<svg preserveAspectRatio="xMidYMid meet" data-bbox="0 0 326.3 187.16" viewBox="0 0 326.29 187.15" xmlns:xlink="http://www.w3.org/1999/xlink" xmlns="http://www.w3.org/2000/svg" data-type="ugc" role="img"><g><path d="M38 0h248.9a9.32 9.32 0 0 1 9.32 9.32V182.2H28.72V9.32A9.32 9.32 0 0 1 38 0z" fill="#0f1735"/><path d="M.01 181.84s18.44 5.32 44 5.32H284.8s27.3 0 41.5-5.32v-1.48H.01z" fill="#0f1735"/><path d="M326.3 180.36v1.48H0v-1.48h326.3z" fill="#1c2956"/><path d="M131.75 180.44v1.12a1.5 1.5 0 0 0 1.5 1.5h59.87a1.43 1.43 0 0 0 1.42-1.42v-1.24z" fill="#1c2956"/><path d="M40.57 7.2H284.4a5.34 5.34 0 0 1 5.34 5.34V171H35.22V12.55a5.34 5.34 0 0 1 5.34-5.34z" fill="#ffffff"/><path d="M181.93 174.86v1.75h-37.57v-1.75h37.57z" fill="#f0e7cf" opacity=".1"/><path d="M290 24.44v147H35v-147h255zm-71.4-4.9a3.38 3.38 0 1 1 0-6.76h26.24a3.39 3.39 0 0 1 3.38 3.38 3.38 3.38 0 0 1-3.38 3.38m10.28 0a3.38 3.38 0 1 1 0-6.76 3.39 3.39 0 0 1 3.38 3.38 3.38 3.38 0 0 1-3.38 3.38z" fill="#f0f0ef"/><path d="M255.12 16.15l1.37-.94h-2.74l1.37.94zm0 .47l-1.37-.94v1.4h2.74v-1.4l-1.37.94z" fill="#002069"/><path d="M257.5 15.2a.74.74 0 1 1-.74-.74.74.74 0 0 1 .74.74z" fill="#fbab20"/><text transform="translate(256.37 15.38)" font-family="Raleway-Medium,Raleway Medium" font-size=".77" fill="#ffffff">
            13
        </text><path d="M265 19.53a3.37 3.37 0 0 1-3.37-3.38 3.38 3.38 0 0 1 3.37-3.38 3.38 3.38 0 1 1 0 6.76z" fill="#f0f0ef"/><path d="M266.16 17.2h-2.27a.15.15 0 0 1-.15-.14.13.13 0 0 1 .13-.15h2.3a.14.14 0 0 1 .13.15.15.15 0 0 1-.15.14z" fill="#002069"/><path d="M265.84 15.96a.91.91 0 0 0-.82-1.06c-.33 0-.83.3-.8 1.06 0 .7-.22.9-.36 1h2.35c-.14-.1-.37-.32-.36-1z" fill="#002069"/><path d="M265.18 14.9a.16.16 0 1 1-.16-.17.17.17 0 0 1 .16.17zm.25 2.16a.41.41 0 0 1-.81 0 .41.41 0 1 1 .81 0z" fill="#002069"/><path d="M266.9 15.2a.74.74 0 1 1-.74-.74.74.74 0 0 1 .74.74z" fill="#fbab20"/><text transform="translate(265.92 15.38)" font-family="Raleway-Medium,Raleway Medium" font-size=".77" fill="#ffffff">
            8
        </text><path d="M275 19.53a3.38 3.38 0 1 1 0-6.76 3.38 3.38 0 1 1 0 6.76z" fill="#f0f0ef"/><path d="M274.23 14.83v2.52h-.32v-2.52h.32z" fill="#002069"/><path d="M275.74 16.58h-1.67v-1.64h1.67l-.57.82.57.82z" fill="#002069"/><path d="M276.8 15.2a.74.74 0 1 1-.73-.74.74.74 0 0 1 .73.74z" fill="#fbab20"/><text transform="translate(275.86 15.38)" font-family="Raleway-Medium,Raleway Medium" font-size=".77" fill="#ffffff">
            2
        </text><path d="M244.6 16.82a.94.94 0 0 1-.67-.28.944.944 0 0 1 1.34-1.33.95.95 0 0 1-.67 1.61zm0-1.52a.6.6 0 0 0-.41.17.58.58 0 0 0 0 .81.57.57 0 0 0 .82 0 .58.58 0 0 0-.41-1z" fill="#1d2a35"/><path d="M245.257 16.263l.728.728-.26.262-.73-.73.262-.26z" fill="#1d2a35"/><path d="M125.8 33.1v28.26H81.62V33.1h44.18z" opacity=".15"/><path d="M125.8 32.1v28.26H81.62V32.1h44.18z" fill="#ffffff"/><path d="M82.65 54.3h42.1v5.03h-42.1V54.3z" fill="#f0f0ef"/><path d="M120.78 39.23v6.1a.54.54 0 0 1-.54.54H110.2a.54.54 0 0 1-.54-.54v-6.1" fill="#fbab20"/><path d="M120.2 46.52h-1.77l-1.26 1.07v-3.83l3.03 2.76z" fill="#16335b"/><path d="M120.24 38.03H110.2a.54.54 0 0 0-.54.54v.66h11.13v-.66a.54.54 0 0 0-.54-.54z" fill="#002069"/><path d="M111.62 42.1v2.08m1.74-1.1v1.1m1.74.01V40.9" stroke-width=".75" stroke="#ffffff" fill="none" stroke-miterlimit="10"/><text transform="translate(85.42 43.2)" font-size="4.58" font-family="Raleway-SemiBold,Raleway SemiBold" fill="#16335b">
            236,635
        </text><text transform="translate(85.42 51.34)" font-size="2.08" fill="#16335b" font-family="Raleway-Regular,Raleway">
            454<tspan y="0" letter-spacing="-.11em" x="3.88">T</tspan><tspan y="0" x="4.91">od</tspan><tspan y="0" letter-spacing="-.01em" x="7.44">a</tspan><tspan y="0" letter-spacing="-.03em" x="8.55">y</tspan></text><text font-size="3.12" font-family="Raleway-Regular,Raleway"><tspan y="57.87" x="84.24" letter-spacing="-.02em">R</tspan><tspan y="57.87" x="86.23">edem</tspan><tspan y="57.87" letter-spacing="-.01em" x="94.7">p</tspan><tspan y="57.87" x="96.6">tions</tspan></text><path d="M175 65.2v54.45H81.62V65.2H175z" opacity=".15"/><path d="M175 64.2v54.45H81.62V64.2H175z" fill="#ffffff"/><path d="M173.94 71.1h-91.3v-5.7h91.3v5.72z" fill="#002069"/><g stroke-width=".25" stroke="#f0f0ef" stroke-miterlimit="10"><path d="M142.96 110.63H89.64V87.32" fill="none"/><path d="M142.96 110.63H89.64m53.32-6.8H89.64M142.96 97H89.64m53.32-6.8H89.64m53.32 20.43v-23.3" fill="none"/></g><path d="M96.73 105.84v4.8h-2.2v-4.8h2.2z" fill="#7806c7"/><path d="M98.94 101.17v9.46h-2.2v-9.46h2.2z" fill="#025cee"/><path d="M101.15 103.82v6.8h-2.2v-6.8h2.2z" fill="#fbab20"/><path d="M109.04 99.86v10.77h-2.2V99.86h2.2z" fill="#7806c7"/><path d="M111.25 93.62v17h-2.2v-17h2.2z" fill="#025cee"/><path d="M113.46 103.82v6.8h-2.2v-6.8h2.2z" fill="#fbab20"/><path d="M121.35 100.12v10.5h-2.2v-10.5h2.2z" fill="#7806c7"/><path d="M123.56 101.17v9.46h-2.2v-9.46h2.2z" fill="#f15f73"/><path d="M125.77 91.16v19.47h-2.2V91.16h2.2z" fill="#fbab20"/><path d="M133.66 98.97v11.66h-2.2V98.97h2.2z" fill="#7806c7"/><path d="M135.87 101.8v8.82h-2.2v-8.82h2.2z" fill="#025cee"/><path d="M138.08 105.9v4.73h-2.2v-4.73h2.2z" fill="#fbab20"/><text transform="translate(85.74 110.92)" fill="#aeaeac" font-size="1.56" font-family="Raleway-Regular,Raleway">
            0
        </text><text transform="translate(85.33 104.11)" fill="#aeaeac" font-size="1.56" font-family="Raleway-Regular,Raleway">
            20
        </text><text transform="translate(85.31 97.31)" fill="#aeaeac" font-size="1.56" font-family="Raleway-Regular,Raleway">
            40
        </text><text transform="translate(85.27 90.5)" fill="#aeaeac" font-size="1.56" font-family="Raleway-Regular,Raleway">
            60
        </text><path d="M152.62 90.6V93h-2.4v-2.4h2.4z" fill="#7806c7"/><path d="M152.62 94.7v2.4h-2.4v-2.4h2.4z" fill="#f15f73"/><path d="M152.62 98.82v2.4h-2.4v-2.4h2.4z" fill="#fbab20"/><text transform="translate(154.39 92.4)" font-size="1.74" fill="#16335b" font-family="Raleway-Regular,Raleway">
            Online
        </text><text transform="translate(154.39 96.51)" font-size="1.74" fill="#16335b" font-family="Raleway-Regular,Raleway">
            Offline
        </text><text font-size="1.74" fill="#16335b" font-family="Raleway-Regular,Raleway"><tspan y="100.62" x="154.39" letter-spacing="-.02em">R</tspan><tspan y="100.62" letter-spacing="-.01em" x="155.5">e</tspan><tspan y="100.62" letter-spacing="-.03em" x="156.51">f</tspan><tspan y="100.62" x="157.04">er</tspan><tspan y="100.62" letter-spacing="-.01em" x="158.67">r</tspan><tspan y="100.62" x="159.27">a</tspan><tspan y="100.62" letter-spacing="-.03em" x="160.22">l</tspan></text><text font-size="3.12" fill="#ffffff" font-family="Raleway-Regular,Raleway"><tspan y="69.31" x="84.24" letter-spacing="-.02em">R</tspan><tspan y="69.31" x="86.23">edem</tspan><tspan y="69.31" letter-spacing="-.01em" x="94.7">p</tspan><tspan y="69.31" x="96.6">tions</tspan></text><path d="M273.36 124.46v41.34H81.62v-41.34h191.74z" opacity=".15"/><path d="M273.36 123.46v41.34H81.62v-41.34h191.74z" fill="#ffffff"/><g stroke-width=".25" stroke="#f0f0ef" stroke-miterlimit="10"><path d="M267.9 158.13H89.64V134.8" fill="none"/><path d="M267.9 158.13H89.64m178.26-6.8H89.64m178.26-6.82H89.64m178.26-6.8H89.64m178.26 20.43V134.8" fill="none"/></g><text transform="translate(97.51 160.74)" fill="#aeaeac" font-size="1.56" font-family="Raleway-Regular,Raleway">
            1
        </text><text transform="translate(113.06 160.74)" fill="#aeaeac" font-size="1.56" font-family="Raleway-Regular,Raleway">
            2
        </text><text transform="translate(128.67 160.74)" fill="#aeaeac" font-size="1.56" font-family="Raleway-Regular,Raleway">
            3
        </text><text transform="translate(144.28 160.74)" fill="#aeaeac" font-size="1.56" font-family="Raleway-Regular,Raleway">
            4
        </text><text transform="translate(159.9 160.74)" fill="#aeaeac" font-size="1.56" font-family="Raleway-Regular,Raleway">
            5
        </text><text transform="translate(175.48 160.74)" fill="#aeaeac" font-size="1.56" font-family="Raleway-Regular,Raleway">
            6
        </text><text transform="translate(191.16 160.74)" fill="#aeaeac" font-size="1.56" font-family="Raleway-Regular,Raleway">
            7
        </text><text transform="translate(206.73 160.74)" fill="#aeaeac" font-size="1.56" font-family="Raleway-Regular,Raleway">
            8
        </text><text transform="translate(222.36 160.74)" fill="#aeaeac" font-size="1.56" font-family="Raleway-Regular,Raleway">
            9
        </text><text transform="translate(237.63 160.74)" fill="#aeaeac" font-size="1.56" font-family="Raleway-Regular,Raleway">
            10
        </text><text transform="translate(253.39 160.74)" fill="#aeaeac" font-size="1.56" font-family="Raleway-Regular,Raleway">
            11
        </text><text transform="translate(85.74 158.42)" fill="#aeaeac" font-size="1.56" font-family="Raleway-Regular,Raleway">
            0
        </text><text transform="translate(85.33 151.61)" fill="#aeaeac" font-size="1.56" font-family="Raleway-Regular,Raleway">
            20
        </text><text transform="translate(85.31 144.8)" fill="#aeaeac" font-size="1.56" font-family="Raleway-Regular,Raleway">
            40
        </text><text transform="translate(85.27 138)" fill="#aeaeac" font-size="1.56" font-family="Raleway-Regular,Raleway">
            60
        </text><text transform="translate(258.47 128.2)" font-size="1.87" fill="#16335b" font-family="Raleway-Regular,Raleway">
            Online
        </text><text transform="translate(258.47 131.13)" font-size="1.87" fill="#16335b" font-family="Raleway-Regular,Raleway">
            Offline
        </text><g stroke-miterlimit="10"><path d="M267.9 146.47l-13.84 3.42-15.62 6.94-15.62-2.7-15.63 2.7-15.62-14.22-15.62 4.42-15.62-5.54-15.62 13.08-15.63 1.74-15.62-10.58-15.62-4.24-8.2 16.64" stroke="#fbab20" fill="none"/><path d="M267.9 151.32l-13.84-3.85-15.62 9.36-15.62-4.08-15.63-12.13-15.62 10.92-15.62 4.77-15.62-11.8-15.62 7.64-15.63-11.54-15.62 11.54-15.62-4.7-8.2 8.84" stroke="#7806c7" fill="none"/></g><path d="M256.8 126.92v1.28h-1.28v-1.28h1.28z" fill="#7806c7"/><path d="M256.8 129.85v1.28h-1.28v-1.28h1.28z" fill="#fbab20"/><text transform="translate(83.2 128.07)" font-size="3.12" font-family="Raleway-Regular,Raleway">
            Ana<tspan y="0" letter-spacing="-.01em" x="5.63">ly</tspan><tspan y="0" x="8.1">sis</tspan></text><path d="M174.98 33.1v28.26H130.8V33.1h44.18z" opacity=".15"/><path d="M174.98 32.1v28.26H130.8V32.1h44.18z" fill="#ffffff"/><path d="M131.84 54.3h42.1v5.03h-42.1V54.3z" fill="#f0f0ef"/><text transform="translate(134.6 43.2)" font-size="4.58" font-family="Raleway-SemiBold,Raleway SemiBold" fill="#16335b">
            100,486
        </text><text transform="translate(134.6 51.34)" font-size="2.08" fill="#16335b" font-family="Raleway-Regular,Raleway">
            53 <tspan y="0" letter-spacing="-.01em" x="2.77">N</tspan><tspan y="0" letter-spacing="-.01em" x="4.37">e</tspan><tspan y="0" letter-spacing="-.03em" x="5.56">w</tspan><tspan y="0" x="7.19"> cus</tspan><tspan y="0" letter-spacing="-.01em" x="11.11">t</tspan><tspan y="0" x="11.78">omers</tspan></text><path d="M168.58 46.07h-8.36v-.2a4.18 4.18 0 1 1 8.36 0z" fill="#002069"/><path d="M166.92 40.22a2.52 2.52 0 1 1-5.04 0 2.52 2.52 0 0 1 5.04 0z" fill="#fbab20"/><path d="M161.65 44.73H164" stroke-width=".75" stroke="#ffffff" fill="none" stroke-miterlimit="10"/><text transform="translate(133.64 57.87)" font-size="3.12" font-family="Raleway-Regular,Raleway">
            Cus<tspan y="0" letter-spacing="-.01em" x="5.51">t</tspan><tspan y="0" x="6.52">omers</tspan></text><path d="M273.36 65.2v54.45H180V65.2h93.37z" opacity=".15"/><path d="M273.36 64.2v54.45H180V64.2h93.37z" fill="#ffffff"/><path d="M272.32 71.1h-91.3v-5.72h91.3v5.72z" fill="#002069"/><path fill="#142d4f" d="M269 69.8h-22.6a1.56 1.56 0 1 1 0-3.12H269a1.56 1.56 0 1 1 0 3.12z"/><text letter-spacing=".1em" font-family="Raleway-Light,Raleway Light" opacity=".25" transform="matrix(.88 0 0 1 247.36 68.99)" font-size="1.56" fill="#ffffff">
            SEARCH
        </text><path d="M270.15 75.18v39.57h-85.6V75.18h85.6z" fill="#f0f0ef"/><use xlink:href="#B" opacity=".15"/><use y="-1" xlink:href="#B" fill="#f0f0ef"/><path d="M269.03 76.03l-.4.56h.82l-.4-.56z" fill="#16335b"/><use y="36.77" xlink:href="#B" opacity=".15"/><use y="35.77" xlink:href="#B" fill="#f0f0ef"/><path d="M269.03 113.36l.4-.55h-.82l.4.55z" fill="#16335b"/><path d="M270.16 77.44v34.5h-2.26v-34.5h2.26z" fill="#d1d1d0"/><use y="31.87" xlink:href="#B" opacity=".15"/><use y="30.87" xlink:href="#B" fill="#f0f0ef"/><use xlink:href="#C" opacity=".15"/><use y="-.5" xlink:href="#C" fill="#f0f0ef"/><use y="-4.51" xlink:href="#C" opacity=".15"/><use y="-5.01" xlink:href="#C" fill="#f0f0ef"/><use y="-9.01" xlink:href="#C" opacity=".15"/><use y="-9.51" xlink:href="#C" fill="#f0f0ef"/><use y="-13.51" xlink:href="#C" opacity=".15"/><use y="-14.01" xlink:href="#C" fill="#f0f0ef"/><use y="-18.01" xlink:href="#C" opacity=".15"/><use y="-18.51" xlink:href="#C" fill="#f0f0ef"/><use y="-22.51" xlink:href="#C" opacity=".15"/><use y="-23.01" xlink:href="#C" fill="#f0f0ef"/><use y="-27.01" xlink:href="#C" opacity=".15"/><use y="-27.51" xlink:href="#C" fill="#f0f0ef"/><path d="M267.9 76.18v6h-83.33v-6h83.33z" opacity=".15"/><path d="M267.9 75.18v6h-83.33v-6h83.33z" fill="#f0f0ef"/><text transform="translate(188.31 78.92)" font-size="2.08" font-family="Raleway-SemiBold,Raleway SemiBold" fill="#16335b">
            Campaign <tspan y="0" letter-spacing="-.01em" x="10.57">N</tspan><tspan y="0" x="12.16">ame</tspan></text><text font-size="2.08" font-family="Raleway-SemiBold,Raleway SemiBold" fill="#16335b"><tspan y="78.92" x="254.15" letter-spacing="-.11em">T</tspan><tspan y="78.92" x="255.19">eam</tspan></text><text transform="translate(220.02 78.92)" font-size="2.08" font-family="Raleway-SemiBold,Raleway SemiBold" fill="#16335b">
            Channe<tspan y="0" letter-spacing="-.03em" x="7.56">l</tspan></text><text transform="translate(187.79 84.09)" font-size="1.87" fill="#16335b" font-family="Raleway-Regular,Raleway">
            Spring<tspan y="0" letter-spacing="-.01em" x="6.03">A</tspan><tspan y="0" letter-spacing="-.01em" x="7.27">c</tspan><tspan y="0" x="8.28">quisition P</tspan><tspan y="0" letter-spacing="-.03em" x="17.16">r</tspan><tspan y="0" x="17.77">omo</tspan></text><text transform="translate(249.49 84.09)" font-size="1.87" fill="#16335b" font-family="Raleway-Regular,Raleway">
            Online <tspan y="0" letter-spacing="-.01em" x="6.08">M</tspan><tspan y="0" x="7.71">ar</tspan><tspan y="0" letter-spacing="-.03em" x="9.39">k</tspan><tspan y="0" letter-spacing="0" x="10.33">e</tspan><tspan y="0" x="11.43">ting</tspan></text><text transform="translate(221.28 84.09)" font-size="1.87" fill="#16335b" font-family="Raleway-Regular,Raleway">
            Online
        </text><text transform="translate(221.28 93.45)" font-size="1.87" fill="#16335b" font-family="Raleway-Regular,Raleway">
            Online
        </text><text transform="translate(187.79 88.59)" font-size="1.87" fill="#16335b" font-family="Raleway-Regular,Raleway">
            Cus<tspan y="0" letter-spacing="-.01em" x="3.31">t</tspan><tspan y="0" x="3.91">ome</tspan><tspan y="0" letter-spacing="-.02em" x="7.84">r</tspan><tspan y="0" letter-spacing="-.01em" x="8.93">E</tspan><tspan y="0" x="10.06">ngageme</tspan><tspan y="0" letter-spacing="-.01em" x="18.41">n</tspan><tspan y="0" x="19.49">t</tspan></text><text font-size="1.87" fill="#16335b" font-family="Raleway-Regular,Raleway"><tspan y="93.27" x="187.79" letter-spacing="-.02em">R</tspan><tspan y="93.27" letter-spacing="0" x="188.98">e</tspan><tspan y="93.27" letter-spacing="-.03em" x="190.07">f</tspan><tspan y="93.27" x="190.64">er</tspan><tspan y="93.27" letter-spacing="-.01em" x="192.4">r</tspan><tspan y="93.27" x="193.04">a</tspan><tspan y="93.27" letter-spacing="-.03em" x="194.06">l</tspan><tspan y="93.27" x="194.51"> Campaign</tspan></text><text transform="translate(254.77 88.59)" font-size="1.87" fill="#16335b" font-family="Raleway-Regular,Raleway">
            CRM
        </text><text transform="translate(221.31 88.59)" font-size="1.87" fill="#16335b" font-family="Raleway-Regular,Raleway">
            Offline
        </text><text transform="translate(182.01 69.31)" font-size="3.12" fill="#ffffff" font-family="Raleway-Regular,Raleway">
            Campaigns
        </text><path d="M224.17 33.1v28.26H180V33.1h44.18z" opacity=".15"/><path d="M224.17 32.1v28.26H180V32.1h44.18z" fill="#ffffff"/><path d="M181.02 54.3h42.1v5.03h-42.1V54.3z" fill="#f0f0ef"/><text transform="translate(183.79 43.2)" font-size="4.58" font-family="Raleway-SemiBold,Raleway SemiBold" fill="#16335b">
            3,966
        </text><text transform="translate(183.79 51.34)" font-size="2.08" fill="#16335b" font-family="Raleway-Regular,Raleway">
            12 <tspan y="0" letter-spacing="-.01em" x="2.5">N</tspan><tspan y="0" letter-spacing="-.01em" x="4.1">e</tspan><tspan y="0" letter-spacing="-.03em" x="5.29">w</tspan></text><path d="M216.98 40.07h-9.8l1.5-2.05h9.8l-1.5 2.05z" fill="#002069"/><path d="M218.5 38.02v7.72h-9.8v-7.72h9.8z" fill="#fbab20"/><path d="M218.5 45.74h-9.8l1.5-2.04h9.8l-1.5 2.04z" fill="#002069"/><path d="M210.62 40.1h1.97m-1.97 1.74h5.93" stroke-width=".75" stroke="#ffffff" fill="none" stroke-miterlimit="10"/><text transform="translate(182.01 57.87)" font-size="3.12" font-family="Raleway-Regular,Raleway">
            Offline <tspan y="0" letter-spacing="-.03em" x="10.02">r</tspan><tspan y="0" x="11.03">edem</tspan><tspan y="0" letter-spacing="-.01em" x="19.5">p</tspan><tspan y="0" x="21.4">tions</tspan></text><path d="M273.36 33.1v28.26h-44.18V33.1h44.18z" opacity=".15"/><path d="M273.36 32.1v28.26h-44.18V32.1h44.18z" fill="#ffffff"/><path d="M230.2 54.3h42.1v5.03h-42.1V54.3z" fill="#f0f0ef"/><text transform="translate(232.98 43.2)" font-size="4.58" font-family="Raleway-SemiBold,Raleway SemiBold" fill="#16335b">
            $53,450
        </text><text transform="translate(232.98 51.34)" font-size="2.08" fill="#16335b" font-family="Raleway-Regular,Raleway">
            $216<tspan y="0" letter-spacing="-.11em" x="4.99">T</tspan><tspan y="0" x="6.02">od</tspan><tspan y="0" letter-spacing="-.01em" x="8.55">a</tspan><tspan y="0" letter-spacing="-.03em" x="9.66">y</tspan></text><path d="M267.15 38.42v5.37h-10.3v-5.37h10.3z" fill="#002069"/><path d="M268.7 39.98v5.37h-10.3v-5.37h10.3z" fill="#fbab20"/><path d="M265.17 42.67a1.61 1.61 0 1 1-1.61-1.61 1.61 1.61 0 0 1 1.61 1.61z" fill="#002069"/><path d="M265.17 42.67a1.61 1.61 0 1 1-1.61-1.61 1.61 1.61 0 0 1 1.61 1.61z" stroke-width=".75" stroke="#ffffff" fill="none" stroke-miterlimit="10"/><text transform="translate(231.41 57.87)" font-size="3.12" font-family="Raleway-Regular,Raleway">
            P<tspan y="0" letter-spacing="-.03em" x="1.94">r</tspan><tspan y="0" letter-spacing="-.01em" x="2.95">o</tspan><tspan y="0" x="4.79">fit</tspan></text><path d="M43.9 92.93h16.5" stroke-width=".23" stroke="#253b4a" fill="none" stroke-miterlimit="10"/><path d="M68.9 25.86v145.58H34.96V25.86H68.9z" fill="#002069"/><path d="M53.54 37.44h-.32v-3.4h.32v1.5a1.07 1.07 0 0 1 .61-.49.85.85 0 0 1 .5 0 .61.61 0 0 1 .46.36.87.87 0 0 1 .11.38v1.64h-.32v-1.3a1.71 1.71 0 0 0 0-.39.85.85 0 0 0-.06-.17.46.46 0 0 0-.49-.31.91.91 0 0 0-.42.14 1 1 0 0 0-.4.52.34.34 0 0 0 0 .1v1.4zm4.66-1.14h-2.08a.52.52 0 0 0 0 .18 1 1 0 0 0 .51.66.8.8 0 0 0 .66 0 .77.77 0 0 0 .4-.29l.06-.1.27.07a.2.2 0 0 1 0 .08.89.89 0 0 1-.4.39 1.21 1.21 0 0 1-1.78-.83 1.28 1.28 0 0 1 .17-1.02 1.15 1.15 0 0 1 .95-.52 1.22 1.22 0 0 1 1.22 1 2.19 2.19 0 0 1 0 .36s.02 0 .02.02zm-.3-.24a.91.91 0 0 0-.45-.78.85.85 0 0 0-.93 0 .93.93 0 0 0-.39.75zM42 34.04h.34l.6 1.5.6 1.52 1.18-3h.34l-1.35 3.38h-.3zm3 2.18a1.34 1.34 0 0 1 .58-1.12 1.15 1.15 0 0 1 1.54.24 1.37 1.37 0 0 1 0 1.7 1.19 1.19 0 0 1-1 .44 1.21 1.21 0 0 1-1.09-1c-.03-.1-.03-.2-.03-.26zm.33 0a1 1 0 0 0 .25.7.77.77 0 0 0 .63.3.81.81 0 0 0 .7-.38 1.05 1.05 0 0 0 .09-1.08.87.87 0 0 0-.54-.49.78.78 0 0 0-.88.27 1 1 0 0 0-.23.65zm2.52-1.32h.32v1.4a1.8 1.8 0 0 0 0 .4l.06.18a.47.47 0 0 0 .44.31.81.81 0 0 0 .56-.19 1.11 1.11 0 0 0 .34-.46.34.34 0 0 0 0-.1V34.9h.32v2.13a.12.12 0 0 0 .09.1v.3a.41.41 0 0 1-.22 0 .26.26 0 0 1-.17-.25v-.24a.11.11 0 0 0 0-.05 1.13 1.13 0 0 1-.82.56 1.07 1.07 0 0 1-.4 0 .64.64 0 0 1-.41-.33 1.14 1.14 0 0 1-.12-.41v-1.8zm14.28 0h.3a.14.14 0 0 0 0 .06l-1.23 3.2a.72.72 0 0 1-.12.21.48.48 0 0 1-.27.16 1.08 1.08 0 0 1-.31 0v-.3h.2a.16.16 0 0 0 .15-.09l.07-.15.2-.52a.08.08 0 0 0 0-.07l-.4-1-.6-1.45v-.06h.33l.9 2.23zm-9.73 1.86l.3.1a.69.69 0 0 1-.07.15 1.12 1.12 0 0 1-.5.39 1.19 1.19 0 0 1-.91 0 1.21 1.21 0 0 1-.72-.9 1.34 1.34 0 0 1 .1-.9 1.15 1.15 0 0 1 1.09-.66 1.12 1.12 0 0 1 .51.11 1 1 0 0 1 .44.4.16.16 0 0 0 0 .07l-.3.1a.78.78 0 0 0-.62-.36.89.89 0 0 0-.87.61 1.07 1.07 0 0 0 .08.92.83.83 0 0 0 .77.46.82.82 0 0 0 .55-.22.48.48 0 0 0 .15-.26zM42 38.32v-.3h5.42v.3zm17.9-3.42v.3h-.13a.89.89 0 0 0-.74.6.25.25 0 0 0 0 .12v1.5h-.3V34.9h.3v.57a1.06 1.06 0 0 1 .58-.56.71.71 0 0 1 .3 0zm-12.47 3.97a.59.59 0 1 1-.56.58.58.58 0 0 1 .56-.58zm0 .88a.29.29 0 1 0-.29-.29.29.29 0 0 0 .3.29zm-5.98-2.85a.58.58 0 0 1 .56-.58.56.56 0 0 1 .57.59.57.57 0 0 1-.55.58.59.59 0 0 1-.58-.59zm.85 0a.29.29 0 0 0-.28-.3.28.28 0 0 0-.28.29.28.28 0 1 0 .56 0z" fill="#ffffff"/><path d="M69.13 42.67v5.73H35.08v-5.73h34.05z" fill="#fbab20"/><text font-size="2.54" fill="#ffffff" font-family="Raleway-Regular,Raleway"><tspan y="83.25" x="45.26">Charts</tspan><tspan y="89.11" x="45.26">Banners</tspan></text><path fill="#fffdfd" d="M61 55.67l.6.6.6-.6H61zm0 20.3l.6.6.6-.6H61z"/><text font-size="2.54" font-family="Raleway-SemiBold,Raleway SemiBold" fill="#ffffff"><tspan y="46.53" x="45.33">Dashboa</tspan><tspan y="46.53" letter-spacing="-.03em" x="55.9">r</tspan><tspan y="46.53" x="56.78">d</tspan></text><path d="M42 46.27l2.38-1.84a.14.14 0 0 1 .19 0 .14.14 0 0 1 0 .17l-1.83 2.38a.53.53 0 0 1-.74.09.52.52 0 0 1-.1-.74.43.43 0 0 1 .1-.06zm-.92.37h-.14a.76.76 0 0 1 0-.15h.13z" fill="#ffffff"/><path d="M41.13 46.26H41a2 2 0 0 1 .11-.26l.12.07a1.6 1.6 0 0 0-.1.19zm2.47 0a2.29 2.29 0 0 0-.1-.23l.12-.07c0 .1.08.17.1.26zm-2.23-.43l-.1-.1.2-.2.1.1a.77.77 0 0 0-.18.17zm2 0l-.18-.17.1-.1.2.2zm-1.6-.3l-.07-.12a1.19 1.19 0 0 1 .26-.11v.13zm1.2 0l-.23-.1v-.13a1.36 1.36 0 0 1 .25.11zm-.73-.15v-.13h.28v.13z" fill="#ffffff"/><path d="M43.8 46.64h-.14v-.13h.14z" fill="#ffffff"/><path d="M42.37 44.24a2.39 2.39 0 0 0-2.4 2.4v.52h.58v-.52a1.82 1.82 0 1 1 3.63 0v.52h.58v-.52a2.39 2.39 0 0 0-2.39-2.4z" fill="#ffffff"/><text transform="translate(45.32 57.18)" font-size="2.54" font-family="Raleway-SemiBold,Raleway SemiBold" fill="#ffffff">
            Campaigns
        </text><path d="M44.56 54.05h-.5a.13.13 0 0 0-.13.13v.17l-2.82 1v-.06a.2.2 0 0 0-.21-.2h-.36a.2.2 0 0 0-.2.2v1.2a.2.2 0 0 0 .2.2h.36a.2.2 0 0 0 .21-.2v-.05h.26v.13a.89.89 0 0 0 .9.88.88.88 0 0 0 .86-.69l.8.15v.17a.13.13 0 0 0 .13.13h.5a.13.13 0 0 0 .13-.13v-2.94a.13.13 0 0 0-.14-.09zm-2.3 3.18a.63.63 0 0 1-.64-.62v-.08l1.24.23a.62.62 0 0 1-.6.47zm2.18-.23h-.26v-.26l-3.33-.62v.32h-.26v-1.1h.26v.38l3.33-1.22v-.23h.26z" fill="#ffffff"/><text font-size="2.54" font-family="Raleway-SemiBold,Raleway SemiBold" fill="#ffffff"><tspan y="67.6" x="44.8" letter-spacing="-.02em">R</tspan><tspan y="67.6" x="46.44">edem</tspan><tspan y="67.6" letter-spacing="-.01em" x="53.43">p</tspan><tspan y="67.6" x="55">tions</tspan></text><path fill="#dcefee" d="M41.74 65.15h.3a2.28 2.28 0 0 0 1-.38.44.44 0 0 0 0-.68.59.59 0 0 0-.75 0 1.29 1.29 0 0 0-.36.56 1.37 1.37 0 0 0-.37-.56.6.6 0 0 0-.74 0 .42.42 0 0 0 0 .68 2.25 2.25 0 0 0 .93.38zm.64-.9a.31.31 0 0 1 .23-.08.33.33 0 0 1 .24.08.26.26 0 0 1 .09.18.28.28 0 0 1-.09.18 2.31 2.31 0 0 1-.85.33 1.54 1.54 0 0 1 .38-.69zm-1.47 0a.37.37 0 0 1 .46 0 1.47 1.47 0 0 1 .38.68 2 2 0 0 1-.84-.33.21.21 0 0 1-.09-.17.23.23 0 0 1 .09-.18zm2.78 1h-3.62v.85h.22v1.5h3.2v-1.5h.2zm-2.13.22h.64l.22 1.24-.35-.15-.27.26zm-1.27 0h1.05l.08.42H40.3zm3 1.9h-2.76V66.1h.95l.2 1.14.47-.43.58.25-.17-1h.73zm.22-1.5h-1l-.08-.42h1.07z"/><text transform="translate(45.84 77.21)" font-size="2.54" font-family="Raleway-SemiBold,Raleway SemiBold" fill="#ffffff">
            Ana<tspan y="0" letter-spacing="-.01em" x="4.66">l</tspan><tspan y="0" x="5.39">ytics</tspan></text><path fill="#dcefee" d="M44.87 77.3v.22H41.1v-.22zm-1.1-1.33h.44v1.1h.23v-1.34h-.9v1.34h.22zm-1.1-.67h.44v1.78h.23v-2h-.9v2h.22zm-1.1-.9H42v2.67h.22v-2.9h-.88v2.9h.22z"/><path fill="#f0e7cf" opacity=".18" d="M190.1.44l-4.95 96.46L29 126.02v-117A8.62 8.62 0 0 1 37.62.41z"/></g></svg>