<svg preserveAspectRatio="xMidYMid meet" data-bbox="14.442 0.016 743.438 616.202" viewBox="0 0 758.87 616.21" xmlns:xlink="http://www.w3.org/1999/xlink" xmlns="http://www.w3.org/2000/svg" data-type="ugc" role="img"><g><defs><linearGradient gradientUnits="userSpaceOnUse" y2="451.89" x2="655.01" y1="451.89" x1="247.74" id="cc64c9f9-9402-4634-b814-efa41e0f9607"><stop stop-color="#ffffff" offset="0"/><stop stop-color="#d3e0f2" offset="1"/></linearGradient><linearGradient gradientUnits="userSpaceOnUse" y2="429.81" x2="599.7" y1="429.81" x1="303.24" id="3cc2e5a7-b8b4-413f-b1a0-f8782f22b9c3"><stop stop-color="#7806c7" offset="0"/><stop stop-color="#0054ad" offset="1"/></linearGradient><linearGradient xlink:href="#3cc2e5a7-b8b4-413f-b1a0-f8782f22b9c3" gradientTransform="matrix(.87 -.5 -.5 -.87 -61.5 612.65)" y2="140.12" x2="714.82" y1="140.12" x1="624.78" id="aea3d356-cf28-4b12-a23d-271ea11fe0ec"/><linearGradient xlink:href="#3cc2e5a7-b8b4-413f-b1a0-f8782f22b9c3" gradientTransform="scale(1 -1) rotate(32 926.95 -485.938)" y2="140.12" x2="714.82" y1="140.12" x1="624.78" id="321af515-6dea-4335-9509-f42148e4566b"/><linearGradient xlink:href="#3cc2e5a7-b8b4-413f-b1a0-f8782f22b9c3" gradientTransform="scale(1 -1) rotate(32 1071.689 -395.95)" y2="135.27" x2="721.24" y1="135.27" x1="647.22" id="e3b9dae3-78aa-4282-89a3-5f472dc79107"/><linearGradient gradientUnits="userSpaceOnUse" y2="470.44" x2="451.68" y1="180.66" x1="451.68" id="01fef23b-e742-47d3-8b45-e0057e054a7b"><stop stop-opacity="0" stop-color="#fbab20" offset="0"/><stop stop-color="#fbab20" offset="1"/></linearGradient><linearGradient xlink:href="#cc64c9f9-9402-4634-b814-efa41e0f9607" y2="403.66" x2="312.77" y1="403.66" x1="261.82" id="0c524c86-dc27-4e90-8dfb-77560b13ac16"/><linearGradient xlink:href="#cc64c9f9-9402-4634-b814-efa41e0f9607" gradientTransform="matrix(103.94 0 0 -103.94 170.58 76231.05)" y2="728.11" x2="1.76" y1="728.11" x1=".91" id="9165da07-cf7e-46d3-807c-80a85dfd723c"/><clipPath transform="translate(-69.66 -63.06)" id="baba99cd-10b9-4efd-a74b-b43148c56673"><path fill="none" d="M225.43 235.11v94.53H93.73v-94.53h131.7z"/></clipPath><linearGradient gradientUnits="userSpaceOnUse" y2="268.21" x2="755.68" y1="268.21" x1="541.38" id="b5f53d78-d622-44b9-8e99-6e2d4ec527f3"><stop stop-color="#7806c7" offset="0"/><stop stop-color="#750ac8" offset=".49"/><stop stop-color="#208afa" offset="1"/></linearGradient><linearGradient xlink:href="#3cc2e5a7-b8b4-413f-b1a0-f8782f22b9c3" y2="142.07" x2="755.68" y1="142.07" x1="541.49" id="f36427df-6603-4a8e-b286-577600740399"/><linearGradient xlink:href="#b5f53d78-d622-44b9-8e99-6e2d4ec527f3" y2="514.81" x2="170.13" y1="514.81" x1="84.11" id="de1cdb2d-a938-4a46-af18-f202f462d99c"/><linearGradient xlink:href="#3cc2e5a7-b8b4-413f-b1a0-f8782f22b9c3" y2="464.18" x2="170.13" y1="464.18" x1="84.15" id="eeb20958-a08f-487e-a052-09fed15d9ea7"/><linearGradient xlink:href="#b5f53d78-d622-44b9-8e99-6e2d4ec527f3" y2="463.78" x2="805.46" y1="463.78" x1="719.45" id="ff2ade7f-cb27-457c-9698-78a8a21bfe2e"/><linearGradient xlink:href="#3cc2e5a7-b8b4-413f-b1a0-f8782f22b9c3" y2="413.15" x2="805.46" y1="413.15" x1="719.49" id="6a54e869-42d0-44c8-97b9-444c18fc4ffa"/><linearGradient xlink:href="#3cc2e5a7-b8b4-413f-b1a0-f8782f22b9c3" gradientTransform="rotate(30.01 392.416 337.062)" y2="337.03" x2="422.62" y1="337.03" x1="362.16" id="137e9f3c-4e0d-4aae-8f8b-bdeadc152c37"/><linearGradient xlink:href="#3cc2e5a7-b8b4-413f-b1a0-f8782f22b9c3" y2="273.96" x2="352.97" y1="273.96" x1="292.51" id="7d9d5ff7-9e67-4693-ad17-634ecdd3788b"/><linearGradient xlink:href="#3cc2e5a7-b8b4-413f-b1a0-f8782f22b9c3" y2="333.78" x2="426.93" y1="333.78" x1="377.24" id="de2c6e2e-f6a5-438a-b87b-bceacb9670a6"/><linearGradient xlink:href="#3cc2e5a7-b8b4-413f-b1a0-f8782f22b9c3" gradientTransform="matrix(.87 -.5 -.5 -.87 128.37 735.97)" y2="221.77" x2="586.64" y1="221.77" x1="526.18" id="510bc880-dc24-4881-9231-2fd05bee9c8c"/><linearGradient xlink:href="#3cc2e5a7-b8b4-413f-b1a0-f8782f22b9c3" gradientTransform="matrix(.86 -.51 -.51 -.86 63.36 676.53)" y2="221.77" x2="586.64" y1="221.77" x1="526.18" id="5497250c-d403-4d04-b35f-4aca0f899676"/><linearGradient xlink:href="#3cc2e5a7-b8b4-413f-b1a0-f8782f22b9c3" gradientTransform="matrix(.86 -.51 -.51 -.86 133.02 739.6)" y2="218.52" x2="590.95" y1="218.52" x1="541.25" id="b6858f70-492c-416e-9ee1-03e35e466f2f"/><linearGradient gradientUnits="userSpaceOnUse" y2="81.23" x2="674.75" y1="75.35" x1="664.7" id="081373ad-df80-492e-848c-bae8dedfd5bb"><stop stop-color="#98bfea" offset=".21"/><stop stop-color="#9cc1eb" offset=".37"/><stop stop-color="#a7c8ed" offset=".53"/><stop stop-color="#bad4f1" offset=".68"/><stop stop-color="#d5e5f6" offset=".82"/><stop stop-color="#f7fafd" offset=".97"/><stop stop-color="#ffffff" offset="1"/></linearGradient><linearGradient gradientUnits="userSpaceOnUse" y2="45.64" x2="626.35" y1="42.18" x1="616.33" id="a1b45e8b-a3b0-47ad-bc80-e475138dcf27"><stop stop-opacity="0" stop-color="#ffffff" offset="0"/><stop stop-opacity=".3" stop-color="#ffffff" offset="1"/></linearGradient><linearGradient xlink:href="#cc64c9f9-9402-4634-b814-efa41e0f9607" gradientTransform="matrix(1 .52 0 1 -65.33 -203.52)" y2="422.09" x2="382.57" y1="422.09" x1="322.69" id="f861c8cd-6e71-41da-8eb4-f6bfea77369f"/></defs><g><path d="M579.66 425.28l-5.16-3-3.92-2.26-9.09-5.25-4.85-2.8-24.71-14.28-21.51-12.44-56.54-32.67-3.8-2.2-42.74-24.65a50.07 50.07 0 0 0-49.89-.08l-44.11 25.29-43.07 24.7-.87.5-6.23 3.57-1.36.78-3.44 2-5 2.86-.12.07-.48.27-4.52 2.59-14.81 8.5-1.72 1-2.19 1.26-22.59 12.9-4.94 2.84-8.93 5.16-4.1 2.35-5.17 3a11.38 11.38 0 0 0 0 19.74l32.35 18.56 2.81 1.61 2 1.12 1.32.76 3 1.69 17.54 10.07 13.13 7.52 7.42 4.26 18.17 10.42 1.95 1.12 74.07 42.48a50 50 0 0 0 49.78-.1l78.64-45.44 70.8-40.9 22.85-13.2a11.39 11.39 0 0 0 .03-19.72zm-318.32 39.8l1-.22.32 2.35a8 8 0 0 0-1.32-2.13z" opacity=".15"/><path d="M574.87 396.84l-121-69.9-46.53-26.88a50 50 0 0 0-49.9-.08l-171 98.08-8.39-9.23v20.63a11.29 11.29 0 0 0 5.72 9.88l173.7 99.6a50 50 0 0 0 49.9-.08l172.29-99.54a11.28 11.28 0 0 0 5.69-9.86v-20.63z" fill="#b0c7e2"/><path transform="translate(-69.66 -63.06)" d="M649.32 461.75L477 561.3a50.07 50.07 0 0 1-49.89.08l-173.66-99.62a11.39 11.39 0 0 1 0-19.74l9.27-5.32 8.94-5.13 155.48-89.16a50 50 0 0 1 49.89.07l46.5 26.88 107.61 62.18 9.1 5.26 9.08 5.23a11.39 11.39 0 0 1 0 19.72z" fill="url(#cc64c9f9-9402-4634-b814-efa41e0f9607)"/><path d="M540.34 379.94l-.06-.08a13.42 13.42 0 0 0-3.2-5.15l-7.74-12.36-3.56 5.31-74.6-43.11-44.79-25.88a48.21 48.21 0 0 0-48.06-.08l-119.99 68.82-3.45-6.64-10.09 16.17c-.18.28-.37.56-.53.85v.06a13.84 13.84 0 0 0 5.3 18.6l130.48 74.89a44.67 44.67 0 0 0 44.58-.08l129.5-74.82a13.81 13.81 0 0 0 6.21-16.5z" fill="#002069"/><path transform="translate(-69.66 -63.06)" d="M593.26 418.39a12.89 12.89 0 0 1 0 22.32l-120.55 69.65a41.56 41.56 0 0 1-41.5.07l-121.49-69.67a12.88 12.88 0 0 1 0-22.36l119.92-68.78a44.9 44.9 0 0 1 44.74.07l41.7 24.1z" fill="url(#3cc2e5a7-b8b4-413f-b1a0-f8782f22b9c3)"/><path d="M313.59 362.42l60.84-34.63a15.83 15.83 0 0 1 15.69 0l60.32 34.59a4.73 4.73 0 0 1 0 8.2l-60.34 34.86a15.82 15.82 0 0 1-15.78 0l-60.75-34.8a4.73 4.73 0 0 1 .02-8.22z" fill="#fbab20"/><path stroke-miterlimit="10" stroke="#ffffff" opacity=".47" fill="none" d="M439.72 94.09c0 31.867-25.833 57.7-57.7 57.7-31.867 0-57.7-25.833-57.7-57.7 0-31.867 25.833-57.7 57.7-57.7 31.867 0 57.7 25.833 57.7 57.7z"/><g style="isolation:isolate"><path transform="rotate(-1.76 -1640.3 2392.025)" fill="url(#aea3d356-cf28-4b12-a23d-271ea11fe0ec)" d="M493.37 156.29c0 24.963-20.134 45.2-44.97 45.2s-44.97-20.237-44.97-45.2c0-24.963 20.134-45.2 44.97-45.2s44.97 20.237 44.97 45.2z"/><path transform="rotate(-1.76 -1640.3 2392.025)" fill="url(#aea3d356-cf28-4b12-a23d-271ea11fe0ec)" d="M493.37 156.29c0 24.963-20.134 45.2-44.97 45.2s-44.97-20.237-44.97-45.2c0-24.963 20.134-45.2 44.97-45.2s44.97 20.237 44.97 45.2z"/><path fill="url(#321af515-6dea-4335-9509-f42148e4566b)" d="M413.93 65.09l-2.98-3.41-3.26-3.05-3.5-2.68-3.71-2.3-3.9-1.92-4.04-1.52-4.17-1.13-4.25-.73-4.32-.32-4.33.11-4.34.52-4.29.96-4.23 1.4-4.12 1.85-4 2.29-3.75 2.69-3.39 3-3.03 3.27-2.66 3.52-2.29 3.73-1.91 3.92-1.51 4.07-1.13 4.18-.72 4.28-.31 4.33.1 4.36.53 4.36.95 4.31 1.39 4.25 1.84 4.15 2.28 4.02 2.68 3.76 2.98 3.41 3.26 3.05 3.5 2.68 3.72 2.3 3.89 1.92 4.05 1.52 4.17 1.14 4.25.72 4.31.32 4.34-.11 4.33-.52 4.29-.96 4.23-1.4 4.13-1.84 3.99-2.3 3.75-2.69 3.39-2.99 3.03-3.28 2.67-3.52 2.29-3.73 1.9-3.92 1.52-4.07 1.12-4.18.72-4.28.31-4.33-.1-4.36-.53-4.35-.95-4.32-1.39-4.25-1.84-4.15-2.28-4.01-2.68-3.77z"/><path transform="translate(-69.66 -63.06)" d="M480.07 194.13a44.53 44.53 0 0 1-22.83 7.12l-7.41.22a44.61 44.61 0 0 0 22.83-7.11A45.23 45.23 0 0 0 447 111.11l7.41-.23a45.23 45.23 0 0 1 25.68 83.25z" fill="url(#e3b9dae3-78aa-4282-89a3-5f472dc79107)"/><path d="M410.41 131.07a44.53 44.53 0 0 1-22.83 7.12l-7.41.22A44.61 44.61 0 0 0 403 131.3a45.23 45.23 0 0 0-25.66-83.25l7.41-.23a45.23 45.23 0 0 1 25.68 83.25z" style="mix-blend-mode:overlay" fill="#1a1a1a"/></g><path d="M367.78 89.99a1.07 1.07 0 1 0-1.52 0 1.07 1.07 0 0 0 1.52 0z" fill="#fbab20"/><path d="M378.42 86.94a3.22 3.22 0 1 0 0 4.56 3.22 3.22 0 0 0 0-4.56zm-1.52 3a1.08 1.08 0 0 1-1.52 0 1.075 1.075 0 0 1 1.52-1.52 1.09 1.09 0 0 1 0 1.58z" fill="#fbab20"/><path d="M378.42 99.12a3.22 3.22 0 1 0 0 4.56 3.22 3.22 0 0 0 0-4.56zm-1.52 3a1.07 1.07 0 1 1 0-1.52 1.07 1.07 0 0 1 0 1.56z" fill="#fbab20"/><path d="M367.49 97.05a1.07 1.07 0 0 0 1.26.84l15.2-3a1.08 1.08 0 0 0 .84-1.27 1.06 1.06 0 0 0-1.26-.84l-15.2 3a1.07 1.07 0 0 0-.84 1.27z" fill="#fbab20"/><path d="M381.34 73.83a1.07 1.07 0 0 0-.76.32l-11.24 11.28a1.075 1.075 0 0 0 1.52 1.52l10.48-10.52 13.68 13.68-24.13 24.13-13.68-13.68 7.53-7.53a1.075 1.075 0 1 0-1.52-1.52l-8.29 8.29a1.07 1.07 0 0 0 0 1.52l15.2 15.2a1.07 1.07 0 0 0 1.52 0l25.69-25.65a1.07 1.07 0 0 0 0-1.52l-15.2-15.2a1.11 1.11 0 0 0-.8-.32z" fill="#fbab20"/><path d="M402.74 87.06l-3.89-3.78a7.58 7.58 0 0 0-.08-9.08l4.61-4.61a1.075 1.075 0 0 0-1.52-1.52l-4.61 4.61a7.61 7.61 0 0 0-9.08-.08l-3.78-3.89a3.22 3.22 0 0 0-4.56 0l-30.22 30.33a3.22 3.22 0 0 0 0 4.56l4.26 4.27a7.64 7.64 0 0 0 9.72 9.71l1.67 1.67 2.59 2.59a3.22 3.22 0 0 0 4.56 0l2.93-2.9 27.4-27.28a3.22 3.22 0 0 0 0-4.56zm-1.51 3l-29 28.89-1.33 1.32a1.07 1.07 0 0 1-1.52 0l-1.19-1.19-3.58-3.57a1.05 1.05 0 0 0-.76-.32 1 1 0 0 0-.45.1 5.48 5.48 0 0 1-7.28-7.27 1.08 1.08 0 0 0-.21-1.22l-4.77-4.77a1.07 1.07 0 0 1 0-1.52l30.2-30.29a1.07 1.07 0 0 1 1.52 0l4.47 4.6a1.06 1.06 0 0 0 1.53 0 5.43 5.43 0 0 1 6.85-.61l-1.58 1.58a3.22 3.22 0 1 0 1.52 1.52l1.58-1.58a5.42 5.42 0 0 1-.61 6.85 1.06 1.06 0 0 0-.32.77 1.1 1.1 0 0 0 .33.76l4.61 4.48a1.07 1.07 0 0 1-.01 1.52zm-7.73-10.64a1.07 1.07 0 1 1 0-1.52 1.07 1.07 0 0 1 0 1.57z" fill="#fbab20"/><path fill="#b0c7e2" d="M247.3 428.77l15.65-8.61 31.56 17.88-14.67 9.8-32.54-19.07z"/><path transform="translate(-69.66 -63.06)" d="M522.28 427.77c-2.14-11.83-4.19-23.68-6.27-35.52l-3.15-18a34 34 0 0 1-.88-8.68q.35-4.43.71-8.85c1.82-22.87 4-45.71 5.93-68.57.88-10.68 2.07-74.64 3.19-85.3.31-2.93 1.62-7.21-.49-9.62a9.58 9.58 0 0 0-2.62-1.81L507.52 185c-11.65-6.68-100.81-6.12-119.45 4.49-2.54 1.45-6.8 3-7.18 6.32-.33 3 .52 6.44.8 9.41s.54 5.68.8 8.52c1.11 11.73 2.1 76.76 3.12 88.5q1.62 18.83 3 37.68l1.47 19.87c.51 6.91-1.14 13.88-2.15 20.72q-3.14 21.34-6.26 42.69c-.54 3.62-2 8 1.59 10.47.66.45 1.4.8 2.09 1.2l12.3 7 35 20.07c8.47 4.86 17.29 11.93 27.33 6.39 19-10.5 37.68-21.77 56.5-32.65 3.06-1.68 7.12-3.4 5.8-7.91z" fill="url(#01fef23b-e742-47d3-8b45-e0057e054a7b)"/><path fill="url(#0c524c86-dc27-4e90-8dfb-77560b13ac16)" d="M261.82 407.41v-35.22l50.95 26.61v36.33l-50.95-27.72z"/><path d="M220.73 507.73l-21.25 12.21a7.74 7.74 0 0 0 0 13.46l42.14 24.35a17.37 17.37 0 0 0 17.36 0l21.24-12.31a7.66 7.66 0 0 0 0-13.37l-42.14-24.34a16.94 16.94 0 0 0-17.35 0z" opacity=".2"/><path fill="#cccccc" d="M257.36 370.04l59.88 31.44v35.92l1.36-.25v-36.12l-59.89-31.24-1.35.25z"/><path d="M220.72 467.82l-21.27 12.28a7.73 7.73 0 0 0 0 13.4l42.18 24.35a17.35 17.35 0 0 0 17.35 0l21.27-12.27a7.73 7.73 0 0 0 0-13.4l-42.18-24.36a17.35 17.35 0 0 0-17.35 0z" fill="#98b4f7"/><path transform="translate(-69.66 -63.06)" d="M290.39 527.21l-21.25 12.22a7.74 7.74 0 0 0 0 13.46l42.14 24.35a17.37 17.37 0 0 0 17.36 0l21.24-12.31a7.66 7.66 0 0 0 0-13.37l-42.14-24.35a16.94 16.94 0 0 0-17.35 0z" fill="url(#9165da07-cf7e-46d3-807c-80a85dfd723c)"/><path d="M269.55 481.64c0 8.1-13.46 14.66-30.06 14.66s-30.07-6.56-30.07-14.66 13.46-14.65 30.07-14.65 30.06 6.56 30.06 14.65z" fill="#d3e0f2"/><path d="M280.26 488.49l-10.73-6.19-3.88-2.24c-1.12.65-2.15 1.27-3.11 1.88-2.63 1.64-4.72 3.11-6.64 4.4-5.44 3.64-9.57 5.81-20.88 6.26-12.3.5-19.67-10.81-19.51-19.77a12.88 12.88 0 0 1 .17-2.08 11.76 11.76 0 0 1 .67-2.48 9.31 9.31 0 0 1 .59-1.28l4-.69c3.92-.67 10.17-1.72 16.21-2.67 4.63-.72 9.14-1.38 12.37-1.77h.4l1.21-.13a23.81 23.81 0 0 1 2.64-.14 10.34 10.34 0 0 1 6.34 2.3 9.38 9.38 0 0 1 1.22 1.23 9.16 9.16 0 0 1 1.07 1.63 4.76 4.76 0 0 1 .22.5 9.64 9.64 0 0 1 1.6-.31 13.73 13.73 0 0 1 2.45 0 14.38 14.38 0 0 1 8.86 4 11.75 11.75 0 0 1 1.81 2c4.1 6.16 2.92 15.55 2.92 15.55z" fill="#025cee"/><path d="M280.26 488.49c-.15-.41-6.62-16.17-8-17.56s-17.52 4.79-20.14 6.16-15.55 2.25-15.55 2.25l5.64-7.48 8.48.26s6.79-4.1 11.93-4.9c.61-.09 1.14-.2 1.6-.31a13.73 13.73 0 0 1 2.45 0 14.38 14.38 0 0 1 8.86 4 11.75 11.75 0 0 1 1.81 2.03c4.1 6.16 2.92 15.55 2.92 15.55z" fill="#4a92fe"/><path d="M260.09 463.85c-3.74.16-8.82.6-9.8 1.84-.75 1.06-1.27-.66-1.6-2.54-.05-.31-.1-.62-.14-.93l1-.38h.4l1.21-.13a23.81 23.81 0 0 1 2.64-.14 10.34 10.34 0 0 1 6.29 2.28z" fill="#4a92fe"/><path d="M243.09 478.73a10.82 10.82 0 0 0 8.16-12.11 18.21 18.21 0 0 1-.09-5.42c0-8.33 7.44-19 7.44-32.86 0-9-37.54-33.64-37.38-12.39s-.56 23.77-1.32 30.51c-1.71 15.23-8.82 20.53 1.76 28.56 7.23 5.48 15.17 5.32 21.43 3.71z" fill="#dfeafc"/><path d="M246.74 414.83a6.16 6.16 0 0 0-2.57.68c-3.27 1.61-5.41 5.24-10.9 2.07-4.94-2.84-2.2-6.09-.8-9.23a28.92 28.92 0 0 0 1.62-5.27c.35-1.62.5-2.81.5-2.81l3.52.69 6.23 1.22.38.07s-.36 1.21-.93 3.2c-.23.78-.48 1.68-.76 2.67 0 .09-.05.19-.08.29-1.16 4.1 3.79 6.42 3.79 6.42z" fill="#98bfea"/><path d="M252.45 396.01c-.93 4.57-4 13.1-5.81 13.31s-7.47.13-9.84-2.69a16.8 16.8 0 0 1-3.29-14.11c2.32-11.46 21.55-9.4 18.94 3.49z" fill="#98bfea"/><path d="M244.34 402.18a12.57 12.57 0 0 0-.55 3.27 5.2 5.2 0 0 0 .22 1.67 2.42 2.42 0 0 1-1 1c-1.14.62-2.43 0-2.43.69 0 1 .22 5.43 3.57 6.7-3.27 1.61-5.41 5.24-10.9 2.07-4.94-2.84-2.2-6.09-.8-9.23a28.92 28.92 0 0 0 1.62-5.27l4-2.12h.06l9.59-6.69a40.51 40.51 0 0 0-3.38 7.91z" fill="#598cce"/><path d="M293.34 444.2a5.72 5.72 0 0 1-.33-3.19c.39-1.54 3.65-1.8 4.26-2.55s1.84-1.33 2-1.15a.84.84 0 0 1 0 1.29c-.58.72 2 0 3 .49s2.69 1.6 2.7 2.22-1.9-.3-1.66 0a1.54 1.54 0 0 1-.68 2.11 7.54 7.54 0 0 1-5.5.42 9.71 9.71 0 0 0-3.79.36z" fill="#98bfea"/><path d="M252.67 393.15l-.73-.35a3.72 3.72 0 0 0-.62-.15c-3.21-.46-5.78 4.31-7.36 7.62-1.81 3.76-3.45 9-7.15 9s-7.73-6.77-7.36-13.6c.26-4.65 2.28-8.47 6.59-10.39a14.66 14.66 0 0 1 2.5-.83 15.56 15.56 0 0 1 1.75-.3 66.82 66.82 0 0 0 8.06-2.66c1.06-.47 1.73-.9 1.73-1.24.04-1.56 10.02.69 2.59 12.9z" fill="#025cee"/><path d="M256.34 425.3c3 1.61 9.76 7.48 15.28 9.8 2.4 1 20.76 4.07 22.74 4.74s1.29 4.46-1 4.36-20.87 1.48-24.29 1.13c-4-.41-13.8-6-18-9.1s-1.94-14.85 5.32-10.93z" fill="#dfeafc"/><path d="M252.67 393.15l-.73-.35a3.72 3.72 0 0 0-.62-.15v-.14c0-.49.1-2.19 0-4.11-.17-3.15-.81-6.92-2.92-6.92 1.06-.47 1.73-.9 1.73-1.24-.01-1.55 9.97.7 2.54 12.91z" fill="#4a92fe"/><path d="M141.46 293.81l58-33.52a12.81 12.81 0 0 1 12.79 0l56.66 32.65a4.26 4.26 0 0 1 0 7.38l-58.05 33.51a12.75 12.75 0 0 1-12.78 0l-56.62-32.68a4.26 4.26 0 0 1 0-7.38z" fill="#161616" opacity=".17"/><path d="M268.91 282.84l-58.05 33.51a12.75 12.75 0 0 1-12.78 0l-56.62-32.68 70.88-40.9 56.62 32.69a4.26 4.26 0 0 1 0 7.38z" fill="#ffffff"/><path d="M212.34 242.77l-70.83 40.9a4.26 4.26 0 0 1 0-7.38l58-33.52a12.81 12.81 0 0 1 12.79 0z" fill="#0a49ac"/><path d="M209.41 258.05l-48 27.7-5.94-3.43 48-27.7z" fill="#98b4f7"/><path d="M196.69 276.05l-26 15-5.94-3.42 26-15z" fill="#98b4f7"/><g clip-path="url(#baba99cd-10b9-4efd-a74b-b43148c56673)" opacity=".4"><path d="M26.2 224.8l58-33.51a12.76 12.76 0 0 1 12.79 0l56.65 32.65a4.26 4.26 0 0 1 0 7.38l-58 33.52a12.79 12.79 0 0 1-12.78 0L26.2 232.18a4.26 4.26 0 0 1 0-7.38" opacity=".21"/><path d="M153.64 213.83l-58 33.52a12.81 12.81 0 0 1-12.79 0L26.2 214.66l70.83-40.89 56.61 32.68a4.26 4.26 0 0 1 0 7.38" fill="#ffffff"/><path d="M97.03 173.77L26.2 214.66a4.26 4.26 0 0 1 0-7.38l58-33.51a12.76 12.76 0 0 1 12.79 0" fill="#0a49ac"/><path d="M94.14 189.04l-48 27.7-5.94-3.42 48-27.71z" fill="#98b4f7"/><path d="M81.43 207.05l-26 15-5.93-3.43 26-15z" fill="#98b4f7"/></g><path d="M484.34 508.29l58-33.51a12.76 12.76 0 0 1 12.79 0l56.62 32.69a4.26 4.26 0 0 1 0 7.38l-58 33.51a12.81 12.81 0 0 1-12.79 0l-56.62-32.69a4.26 4.26 0 0 1 0-7.38z" fill="#161616" opacity=".11"/><path d="M611.8 497.32l-58.05 33.52a12.79 12.79 0 0 1-12.78 0l-56.63-32.69 70.83-40.89 56.63 32.68a4.26 4.26 0 0 1 0 7.38z" fill="#ffffff"/><path d="M557.34 456.48l-70.83 40.89a4.26 4.26 0 0 1 0-7.38l58.05-33.51a12.75 12.75 0 0 1 12.78 0z" fill="#0a49ac"/><path d="M552.34 472.53l-48 27.71-6-3.43 48-27.71z" fill="#98b4f7"/><path d="M539.58 490.54l-26 15-5.94-3.43 26-15z" fill="#98b4f7"/><g opacity=".4"><path d="M593.77 574.44l58-33.52a12.79 12.79 0 0 1 12.78 0l56.62 32.69a4.26 4.26 0 0 1 0 7.38l-58 33.51a12.76 12.76 0 0 1-12.79 0l-56.61-32.68a4.26 4.26 0 0 1 0-7.38z" opacity=".21"/><path d="M721.21 563.47l-58 33.51a12.76 12.76 0 0 1-12.87-.04l-56.61-32.68 70.82-40.9 56.62 32.69a4.26 4.26 0 0 1 0 7.38z" fill="#ffffff"/><path d="M664.59 523.4l-70.82 40.9a4.27 4.27 0 0 1 0-7.39l58-33.51a12.79 12.79 0 0 1 12.78 0z" fill="#0a49ac"/><path d="M661.71 538.68l-48 27.7-5.92-3.44 48-27.7z" fill="#98b4f7"/><path d="M648.99 556.68l-26 15-5.94-3.42 26-15z" fill="#98b4f7"/></g><g opacity=".4"><path d="M659.94 563.36c.44-.26.48-.68.1-.95a1.45 1.45 0 0 0-1.48 0c-.43.25-.48.68-.1.95a1.5 1.5 0 0 0 1.48 0z" fill="#0a49ac"/><path d="M670.48 561.67a4.4 4.4 0 0 0-4.43-.09c-1.31.76-1.44 2-.3 2.86a4.45 4.45 0 0 0 4.43.09c1.31-.77 1.44-2.05.3-2.86zm-1.67 1.87a1.47 1.47 0 0 1-1.48 0c-.38-.27-.34-.69.1-1a1.46 1.46 0 0 1 1.47 0c.38.32.34.75-.09 1z" fill="#0a49ac"/><path d="M669.69 569.29a4.45 4.45 0 0 0-4.43-.09c-1.31.77-1.44 2-.3 2.87a4.45 4.45 0 0 0 4.43.09c1.31-.77 1.44-2.05.3-2.87zm-1.68 1.88a1.46 1.46 0 0 1-1.47 0c-.38-.27-.34-.7.1-1a1.46 1.46 0 0 1 1.47 0c.38.32.34.77-.1 1z" fill="#0a49ac"/><path d="M659.2 567.78c.07.37.6.61 1.17.55l15-1.61c.57-.06 1-.41.9-.77s-.6-.62-1.18-.56l-15 1.61c-.57.06-.97.41-.89.78z" fill="#0a49ac"/><path d="M674.17 553.49a1.45 1.45 0 0 0-.76.18l-11.69 6.86c-.44.25-.48.68-.1.95a1.46 1.46 0 0 0 1.47 0l10.91-6.39 12.4 8.85-25 14.66-12.4-8.85 7.8-4.57c.44-.26.48-.68.1-1a1.5 1.5 0 0 0-1.48 0l-8.59 5c-.43.25-.48.68-.1.95l13.78 9.84a1.5 1.5 0 0 0 1.48 0l26.59-15.59c.44-.25.48-.68.1-.95l-13.78-9.84a1.25 1.25 0 0 0-.73-.1z" fill="#0a49ac"/><path d="M695.96 550.31a1.46 1.46 0 0 0-1.47 0l-4.78 2.8a10.32 10.32 0 0 0-5.8-1 10.09 10.09 0 0 0-3 .77l-3.42-2.51a4.43 4.43 0 0 0-4.43-.09l-31.32 18.44c-1.31.77-1.44 2-.3 2.86l3.86 2.76c-1.1 1.69-.63 3.64 1.26 5a10.12 10.12 0 0 0 7.55 1.3l3.86 2.76a4.45 4.45 0 0 0 4.43.09l31.45-18.36c1.31-.77 1.44-2 .3-2.86l-3.54-2.45a4 4 0 0 0 1.73-2.88 3.49 3.49 0 0 0-1.21-2.85l4.79-2.81c.42-.27.42-.7.04-.97zm-7.51 9a.69.69 0 0 0-.36.48.54.54 0 0 0 .27.48l4.18 2.9c.38.28.33.7-.1.95L661 582.48a1.47 1.47 0 0 1-1.48 0l-4.32-3.08a1.31 1.31 0 0 0-.72-.22 1.74 1.74 0 0 0-.45.06 7.39 7.39 0 0 1-5.93-.81 2.53 2.53 0 0 1-.67-3.9.49.49 0 0 0-.12-.77l-4.32-3.08c-.38-.27-.34-.7.1-1l31.32-18.44a1.48 1.48 0 0 1 1.47 0l4.05 3a1.49 1.49 0 0 0 1.49 0 7.54 7.54 0 0 1 4.9-.79 6.64 6.64 0 0 1 1.79.54l-.42.24-1.22.72a4.56 4.56 0 0 0-3.6.32c-1.31.76-1.44 2-.3 2.86a4.4 4.4 0 0 0 4.43.09c1.05-.62 1.32-1.55.85-2.29l1.38-.81.26-.15a3.79 3.79 0 0 1 .39.53c.74 1.29.26 2.79-1.43 3.78zm-2.83-2a1.48 1.48 0 0 1-1.47 0c-.38-.27-.34-.7.09-1a1.5 1.5 0 0 1 1.48 0c.38.27.34.7-.1.96z" fill="#0a49ac"/></g><path transform="translate(-69.66 -63.06)" d="M610.4 139.28l-68.91 2.79v179.1a75 75 0 0 0 0 8.61A17.12 17.12 0 0 0 550 343.4l86.67 50.42a24.45 24.45 0 0 0 24.65-.05l91.43-53.64a5.89 5.89 0 0 0 2.93-5v-193z" fill="url(#b5f53d78-d622-44b9-8e99-6e2d4ec527f3)"/><path transform="translate(-69.66 -63.06)" d="M544.46 136.86l92.75-53.55a24.45 24.45 0 0 1 24.6.1l90.94 53.45a5.94 5.94 0 0 1 0 10.25l-91.43 53.64a24.43 24.43 0 0 1-24.65 0l-92.23-53.64a6 6 0 0 1 .02-10.25z" fill="url(#f36427df-6603-4a8e-b286-577600740399)"/><path d="M471.83 154.02l93.68 54.09a25 25 0 0 0 25 0l94.68-54.49.87 8.59-95.55 55a25 25 0 0 1-25 0l-93.68-54.08z" fill="#fbab20"/><path d="M471.83 215.33l93.68 54.08a25 25 0 0 0 25 0l94.64-54.47.87 8.59-95.55 55a25 25 0 0 1-25 0l-93.68-54.09z" fill="#fbab20"/><path stroke="#fbab20" stroke-miterlimit="10" fill="none" d="M645.93 298.87l111.95 64.42-43.42 25.54"/><path d="M15.66 491.16l37.23-21.49a9.81 9.81 0 0 1 9.88 0l36.5 21.45a2.38 2.38 0 0 1 0 4.11l-36.7 21.53a9.8 9.8 0 0 1-9.89 0l-37-21.53a2.39 2.39 0 0 1-.02-4.07z" opacity=".18"/><path transform="translate(-69.66 -63.06)" d="M111.81 463.06l-27.66 1.12v71.88a30.89 30.89 0 0 0 0 3.46 6.87 6.87 0 0 0 3.4 5.47l34.79 20.23a9.8 9.8 0 0 0 9.89 0L169 543.68a2.37 2.37 0 0 0 1.17-2v-77.5z" fill="url(#de1cdb2d-a938-4a46-af18-f202f462d99c)"/><path transform="translate(-69.66 -63.06)" d="M85.34 462.09l37.23-21.5a9.83 9.83 0 0 1 9.88 0l36.55 21.5a2.38 2.38 0 0 1 0 4.11l-36.7 21.53a9.8 9.8 0 0 1-9.89 0l-37-21.53a2.39 2.39 0 0 1-.07-4.11z" fill="url(#eeb20958-a08f-487e-a052-09fed15d9ea7)"/><path d="M14.49 431.23l37.6 21.71a10 10 0 0 0 10 0l38-21.87.35 3.45-38.36 22.07a10 10 0 0 1-10 0l-37.6-21.71z" fill="#fbab20"/><path d="M14.49 455.83l37.6 21.71a10 10 0 0 0 10 0l38-21.87.35 3.45-38.36 22.07a10 10 0 0 1-10 0l-37.6-21.71z" fill="#fbab20"/><path d="M651.02 435.86l37.23-21.5a9.83 9.83 0 0 1 9.88 0l36.5 21.46a2.38 2.38 0 0 1 0 4.11l-36.7 21.53a9.8 9.8 0 0 1-9.89 0l-37-21.53a2.39 2.39 0 0 1-.02-4.07z" opacity=".18"/><path transform="translate(-69.66 -63.06)" d="M747.15 412l-27.66 1.12V485a28.13 28.13 0 0 0 0 3.45 6.83 6.83 0 0 0 3.41 5.55l34.8 20.24a9.8 9.8 0 0 0 9.89 0l36.7-21.53a2.35 2.35 0 0 0 1.17-2v-77.56z" fill="url(#ff2ade7f-cb27-457c-9698-78a8a21bfe2e)"/><path transform="translate(-69.66 -63.06)" d="M720.68 411.06l37.23-21.49a9.81 9.81 0 0 1 9.88 0l36.5 21.45a2.38 2.38 0 0 1 0 4.11l-36.7 21.53a9.8 9.8 0 0 1-9.89 0l-37-21.53a2.39 2.39 0 0 1-.02-4.07z" fill="url(#6a54e869-42d0-44c8-97b9-444c18fc4ffa)"/><path d="M649.83 380.2l37.6 21.74a10 10 0 0 0 10 0l38-21.87.34 3.45-38.35 22.07a10 10 0 0 1-10 0l-37.6-21.71z" fill="#fbab20"/><path d="M649.83 404.81l37.6 21.71a10 10 0 0 0 10 0l38-21.87.34 3.45-38.35 22.07a10 10 0 0 1-10 0l-37.6-21.71z" fill="#fbab20"/><path d="M556.07 495.5c.43-.26.48-.69.09-1a1.48 1.48 0 0 0-1.47 0c-.44.26-.48.68-.1 1a1.5 1.5 0 0 0 1.48 0z" fill="#0a49ac"/><path d="M566.61 493.8a4.47 4.47 0 0 0-4.44-.09c-1.3.77-1.43 2.05-.29 2.86a4.41 4.41 0 0 0 4.43.09c1.3-.72 1.43-2.05.3-2.86zm-1.68 1.88a1.5 1.5 0 0 1-1.48 0c-.38-.27-.33-.7.1-1a1.5 1.5 0 0 1 1.48 0c.38.32.31.74-.1 1z" fill="#0a49ac"/><path d="M565.81 501.43a4.4 4.4 0 0 0-4.43-.09c-1.3.77-1.44 2.05-.29 2.86a4.4 4.4 0 0 0 4.43.09c1.3-.76 1.43-2.05.29-2.86zm-1.67 1.88a1.5 1.5 0 0 1-1.48 0c-.38-.27-.34-.7.1-1a1.5 1.5 0 0 1 1.48 0c.38.31.33.74-.1 1z" fill="#0a49ac"/><path d="M555.34 499.94c.08.37.6.62 1.18.56l15-1.61c.57-.06 1-.41.9-.78s-.6-.61-1.17-.55l-15 1.61c-.6.03-1 .38-.91.77z" fill="#0a49ac"/><path d="M570.34 485.62a1.45 1.45 0 0 0-.76.19l-11.7 6.85c-.44.26-.48.69-.1 1a1.5 1.5 0 0 0 1.48 0l10.91-6.4 12.4 8.85-25 14.67-12.46-8.84 7.81-4.58c.43-.25.47-.68.09-.95a1.46 1.46 0 0 0-1.47 0l-8.59 5c-.44.26-.48.69-.1 1l13.78 9.83a1.43 1.43 0 0 0 1.47 0l26.59-15.58c.44-.26.48-.69.1-1l-13.78-9.83a1.33 1.33 0 0 0-.67-.21z" fill="#0a49ac"/><path d="M592.09 482.44a1.5 1.5 0 0 0-1.48 0l-4.78 2.81a10.68 10.68 0 0 0-8.81-.23l-3.42-2.52a4.4 4.4 0 0 0-4.43-.08l-.4.24-30.93 18.2c-1.3.76-1.44 2-.3 2.86l3.87 2.76c-1.1 1.69-.64 3.64 1.25 5a10.13 10.13 0 0 0 7.55 1.29l3.87 2.76a4.4 4.4 0 0 0 4.43.09l31.44-18.36a1.77 1.77 0 0 0 1.06-1.75 1.74 1.74 0 0 0-.76-1.11l-3.55-2.46c2.09-1.63 2.33-4 .51-5.7l4.78-2.8c.44-.3.48-.72.1-1zm-7.61 9.94l4.19 2.9c.38.27.33.7-.1.95l-31.45 18.36a1.5 1.5 0 0 1-1.48 0l-4.3-3.12a1.32 1.32 0 0 0-.71-.21 1.68 1.68 0 0 0-.45 0 7.34 7.34 0 0 1-5.93-.81 2.51 2.51 0 0 1-.67-3.89.5.5 0 0 0-.13-.77l-4.32-3.09c-.38-.27-.34-.7.1-.95l31.11-18.24.25-.15a1.46 1.46 0 0 1 1.47 0l4.05 3a1.45 1.45 0 0 0 1.48 0 7.67 7.67 0 0 1 6.69-.25l-1.63 1a4.63 4.63 0 0 0-3.61.32 2.34 2.34 0 0 0-.75.66 1.48 1.48 0 0 0 .46 2.21 4.45 4.45 0 0 0 3.93.33 3.85 3.85 0 0 0 .5-.24c1.05-.62 1.32-1.55.85-2.3l1.63-.95c1.24 1.34.9 3.15-1 4.28a.73.73 0 0 0-.23.19.53.53 0 0 0-.12.28.55.55 0 0 0 .17.49zm-4.11-4a1.47 1.47 0 0 1 1.48 0c.38.27.33.7-.1 1a1.48 1.48 0 0 1-1 .16 1.15 1.15 0 0 1-.51-.19.68.68 0 0 1-.2-.22.55.55 0 0 1 .3-.71z" fill="#0a49ac"/><path stroke="#fbab20" stroke-miterlimit="10" fill="none" d="M474.24 318.06l36.29-20.17"/><path stroke-miterlimit="10" stroke="#ffffff" fill="none" d="M365.33 272.04c0 21.992-17.828 39.82-39.82 39.82s-39.82-17.828-39.82-39.82 17.828-39.82 39.82-39.82 39.82 17.828 39.82 39.82z" opacity=".47"/><g style="isolation:isolate"><path transform="rotate(-30.01 239.973 435.45)" fill="url(#137e9f3c-4e0d-4aae-8f8b-bdeadc152c37)" d="M422.58 337.03c0 16.762-13.517 30.35-30.19 30.35-16.673 0-30.19-13.588-30.19-30.35s13.517-30.35 30.19-30.35c16.673 0 30.19 13.588 30.19 30.35z"/><path transform="rotate(-30.01 239.973 435.45)" fill="url(#137e9f3c-4e0d-4aae-8f8b-bdeadc152c37)" d="M422.58 337.03c0 16.762-13.517 30.35-30.19 30.35-16.673 0-30.19-13.588-30.19-30.35s13.517-30.35 30.19-30.35c16.673 0 30.19 13.588 30.19 30.35z"/><path fill="url(#7d9d5ff7-9e67-4693-ad17-634ecdd3788b)" d="M352.77 277.59l-.5 3-.78 2.89-1.05 2.77-1.31 2.62-1.54 2.47-1.77 2.31-1.98 2.11-2.17 1.92-2.35 1.71-2.51 1.47-2.66 1.23-2.79.97-2.91.7-3.01.41-3.09.1-3.09-.21-3-.51-2.88-.8-2.77-1.07-2.62-1.32-2.48-1.56-2.3-1.79-2.12-1.99-1.92-2.19-1.72-2.36-1.48-2.53-1.24-2.67-.98-2.8-.7-2.92-.42-3.01-.12-3.1.2-3.1.49-3 .79-2.89 1.05-2.77 1.31-2.62 1.54-2.48 1.77-2.3 1.98-2.12 2.17-1.91 2.35-1.71 2.51-1.47 2.66-1.23 2.79-.97 2.91-.7 3.01-.41 3.09-.1 3.09.21 2.99.51 2.89.8 2.77 1.07 2.62 1.32 2.47 1.56 2.31 1.79 2.12 1.99 1.92 2.19 1.71 2.36 1.48 2.52 1.24 2.67.98 2.81.71 2.91.42 3.02.11 3.1-.19 3.1"/><path transform="translate(-69.66 -63.06)" d="M397.09 304.23a30.05 30.05 0 0 0-15.54 4l-4.31 2.49a30 30 0 0 1 15.54-4 30.44 30.44 0 0 1 29.84 30.84 30.12 30.12 0 0 1-15.06 25.76l4.3-2.49a30.11 30.11 0 0 0 15.07-25.76 30.44 30.44 0 0 0-29.84-30.84z" fill="url(#de2c6e2e-f6a5-438a-b87b-bceacb9670a6)"/><path d="M327.43 241.17a30.05 30.05 0 0 0-15.54 4l-4.31 2.49a30 30 0 0 1 15.54-4 30.44 30.44 0 0 1 29.84 30.84 30.12 30.12 0 0 1-15.06 25.76l4.3-2.49a30.11 30.11 0 0 0 15.07-25.76 30.44 30.44 0 0 0-29.84-30.84z" style="mix-blend-mode:overlay" fill="#1a1a1a"/></g><path d="M314.78 280.59a.85.85 0 1 0-.85-1.47.85.85 0 0 0 .85 1.47z" fill="#ffffff"/><path d="M338.67 274.7l-2.82-4.89 1.8-2.74a.84.84 0 0 0 0-.89l-1.7-2.94a.86.86 0 0 0-.79-.43l-3.27.2-3.13-5.43a2.56 2.56 0 0 0-2.18-1.28 2.54 2.54 0 0 0-2.15 1.18l-6.34 8.08-4.75 6.06-7.21 4.17a5.95 5.95 0 0 0 5.21 10.67l4.28 7.42a3.4 3.4 0 0 0 4.64 1.24h.06a3.39 3.39 0 0 0 1.19-4.6l-1.74-3-.81-1.4.67-.39 1.53-.88a.85.85 0 0 0 .31-1.17l-1.1-1.91 16.28-3.19a2.55 2.55 0 0 0 2.02-3.88zm-3.9-10.16l1.18 2-1.05 1.58-2-3.51zm-23.56 20.08a4.25 4.25 0 1 1-4.24-7.36l6.62-3.82 4.25 7.35zm8.78 6.71v.05a1.66 1.66 0 0 1 .11 1.39 1.71 1.71 0 0 1-3.07.26l-4.25-7.36 2.94-1.7zm-1.92-6.74l-.85-1.47 1.47-.85.75 1.3.1.17-.08.05zm1.36-4.43l-.28-.48-4.23-7.33 3.36-4.29 6.15-7.83 9.83 17zm17.06-3.34c-.12 0-.17 0-.47.08l-10.46-18.11.3-.38a.84.84 0 0 1 .73-.41.86.86 0 0 1 .73.43l9.88 17.12a.85.85 0 0 1-.71 1.27z" fill="#ffffff"/><path d="M312.14 281.13a.86.86 0 0 0-1.16-.31l-1.47.85a.84.84 0 0 1-1.16-.31.85.85 0 0 0-1.16-.31.84.84 0 0 0-.31 1.16 2.55 2.55 0 0 0 3.48.93l1.47-.85a.84.84 0 0 0 .31-1.16z" fill="#ffffff"/><path d="M345.34 258.12l-4.73 2.63a.853.853 0 0 0 .83 1.49l4.73-2.64a.84.84 0 0 0 .33-1.15.85.85 0 0 0-1.16-.33z" fill="#ffffff"/><path d="M344.89 266.94l-3.29-.88a.85.85 0 0 0-.44 1.64l3.29.88a.85.85 0 0 0 .44-1.64z" fill="#ffffff"/><path d="M336.64 255.03l-.88 3.28a.85.85 0 1 0 1.64.44l.88-3.28a.85.85 0 0 0-1.64-.44z" fill="#ffffff"/><path stroke-miterlimit="10" stroke="#ffffff" fill="none" d="M471.28 201.86c0 21.992-17.828 39.82-39.82 39.82s-39.82-17.828-39.82-39.82 17.828-39.82 39.82-39.82 39.82 17.828 39.82 39.82z" opacity=".47"/><g style="isolation:isolate"><path transform="rotate(-.56 -5984.607 7363.05)" fill="url(#510bc880-dc24-4881-9231-2fd05bee9c8c)" d="M529.43 265.62c0 16.762-13.517 30.35-30.19 30.35-16.673 0-30.19-13.588-30.19-30.35s13.517-30.35 30.19-30.35c16.673 0 30.19 13.588 30.19 30.35z"/><path transform="rotate(-.56 -5984.607 7363.05)" fill="url(#510bc880-dc24-4881-9231-2fd05bee9c8c)" d="M529.43 265.62c0 16.762-13.517 30.35-30.19 30.35-16.673 0-30.19-13.588-30.19-30.35s13.517-30.35 30.19-30.35c16.673 0 30.19 13.588 30.19 30.35z"/><path fill="url(#5497250c-d403-4d04-b35f-4aca0f899676)" d="M453.6 184.16l-1.95-2.33-2.15-2.09-2.31-1.84-2.46-1.6-2.59-1.34-2.69-1.09-2.78-.81-2.85-.55-2.89-.27-2.91.01-2.92.29-2.89.58-2.86.88-2.8 1.18-2.71 1.49-2.55 1.75-2.32 1.96-2.08 2.16-1.84 2.32-1.59 2.48-1.33 2.6-1.08 2.71-.81 2.8-.55 2.86-.26 2.9v2.93l.3 2.93.58 2.91.87 2.87 1.18 2.81 1.47 2.73 1.74 2.57 1.96 2.33 2.14 2.09 2.32 1.84 2.46 1.6 2.59 1.34 2.69 1.08 2.78.82 2.85.55 2.89.27 2.91-.01 2.92-.29 2.89-.59 2.86-.87 2.8-1.18 2.71-1.49 2.55-1.75 2.32-1.97 2.08-2.15 1.84-2.33 1.59-2.47 1.33-2.6 1.08-2.71.81-2.8.54-2.86.27-2.9-.01-2.93-.29-2.93-.58-2.91-.87-2.87-1.18-2.81-1.48-2.73-1.74-2.57z"/><path transform="translate(-69.66 -63.06)" d="M520 291.47a30 30 0 0 1-15.42 4.46h-5a30 30 0 0 0 15.42-4.41 30.37 30.37 0 0 0-16.08-56.25l5-.05A30.37 30.37 0 0 1 520 291.47z" fill="url(#b6858f70-492c-416e-9ee1-03e35e466f2f)"/><path d="M450.34 228.41a30 30 0 0 1-15.42 4.46h-5a30 30 0 0 0 15.42-4.41 30.37 30.37 0 0 0-16.08-56.25l5-.05a30.37 30.37 0 0 1 16.08 56.25z" style="mix-blend-mode:overlay" fill="#1a1a1a"/></g><path fill="#ffffff" d="M425.015 206.867l.341 1.326-1.326.342-.342-1.327 1.327-.341z"/><path fill="#ffffff" d="M425.703 209.514l.342 1.327-1.327.34-.341-1.326 1.326-.341z"/><path fill="#ffffff" d="M426.382 212.17l.341 1.328-1.327.34-.34-1.326 1.326-.341z"/><path fill="#ffffff" d="M424.337 204.22l.34 1.326-1.326.341-.341-1.326 1.327-.342z"/><path fill="#ffffff" d="M423.658 201.562l.341 1.327-1.327.341-.34-1.327 1.326-.341z"/><path fill="#ffffff" d="M422.97 198.918l.341 1.326-1.327.342-.34-1.327 1.326-.341z"/><path fill="#ffffff" d="M422.291 196.27l.341 1.327-1.326.341-.342-1.326 1.327-.342z"/><path fill="#ffffff" d="M413.016 198.644l.341 1.327-1.327.34-.34-1.326 1.326-.341z"/><path fill="#ffffff" d="M446.133 190.134l.342 1.327-1.327.341-.341-1.327 1.326-.34z"/><path fill="#ffffff" d="M450.224 206.037l.342 1.327-1.327.341-.341-1.327 1.326-.34z"/><path fill="#ffffff" d="M417.107 214.545l.34 1.326-1.326.342-.341-1.327 1.327-.341z"/><path d="M449.47 194.94a.69.69 0 0 0 .5-.84l-1.71-6.62a.66.66 0 0 0-.83-.48l-38.41 9.94a.67.67 0 0 0-.5.83l1.7 6.62a.69.69 0 0 0 .84.5 3.42 3.42 0 1 1 1.7 6.62.68.68 0 0 0-.5.83l1.71 6.62a.69.69 0 0 0 .83.5l38.42-9.88a.68.68 0 0 0 .49-.83l-1.7-6.63a.68.68 0 0 0-.84-.48 3.422 3.422 0 0 1-1.7-6.63zm-3.57 5.15a4.78 4.78 0 0 0 4.94 2.92l1.38 5.35-37.1 9.58-1.37-5.35a4.78 4.78 0 0 0-2.36-9.17l-1.38-5.34 37.1-9.54 1.37 5.34a4.79 4.79 0 0 0-2.58 6.23z" fill="#ffffff"/><path d="M429.42 196.58a2.74 2.74 0 1 0 3.33 2 2.73 2.73 0 0 0-3.33-2zm1 4a1.37 1.37 0 1 1 1-1.67 1.37 1.37 0 0 1-.98 1.65z" fill="#ffffff"/><path d="M439.41 202.49a2.74 2.74 0 1 0 3.33 2 2.73 2.73 0 0 0-3.33-2zm1 4a1.37 1.37 0 1 1 1-1.66 1.37 1.37 0 0 1-.98 1.63z" fill="#ffffff"/><path fill="#ffffff" d="M438.425 195.148l1.18.697-7.871 13.318-1.18-.697 7.87-13.318z"/><path stroke="#fbab20" stroke-miterlimit="10" fill="none" d="M100.12 455.68l78.14-44.2"/><path opacity=".23" fill="#ffffff" d="M294.51 213.67a4.26 4.26 0 1 1-8.52 0 4.26 4.26 0 0 1 8.52 0z"/><path opacity=".23" fill="#ffffff" d="M382.21 233.55a3.01 3.01 0 1 1-6.02 0 3.01 3.01 0 0 1 6.02 0z"/><path opacity=".23" fill="#ffffff" d="M363.93 190.25a4.34 4.34 0 1 1-8.68 0 4.34 4.34 0 0 1 8.68 0z"/><path opacity=".23" fill="#ffffff" d="M312.27 168.99a2.75 2.75 0 1 1-5.5 0 2.75 2.75 0 0 1 5.5 0z"/><path opacity=".23" fill="#ffffff" d="M456.37 129.42a4.26 4.26 0 1 1-8.52 0 4.26 4.26 0 0 1 8.52 0z"/><path opacity=".23" fill="#ffffff" d="M430.56 291.22a4.34 4.34 0 1 1-8.68 0 4.34 4.34 0 0 1 8.68 0z"/><path opacity=".23" fill="#ffffff" d="M456.41 264.53a2.75 2.75 0 1 1-5.5 0 2.75 2.75 0 0 1 5.5 0z"/><path d="M636.68 111.28c-3.39-1.6-41.66-10.35-44.73-13.42s-14.87 4.55-17.42 2.73a15.11 15.11 0 0 1-3.64-3.47s5.09-9.27 12-10.54 29.12 4.36 29.12 4.36l27.47 7.91 5 8.31z" style="mix-blend-mode:overlay" fill="#1a1a1a" opacity=".47"/><path d="M652.39 85.21c-.71-5-1.74-11.52-2.55-16.61-.71-4.51-1.26-7.85-1.26-7.85s-.38-7.53-3.94-11.47-5.6-2.53-8.64-2.53-7.29 3.73-9 4.88c-.38.24-1.42.93-2.84 1.88-5.09 3.36-15.13 9.94-17.28 11.29s-6.15 2.5-8.07 3c-.64.18-1 .27-1 .27s-5.08.1-10.17.14h-2.84c-2.19 0-4.19 0-5.56-.06-.62 0-1.11-.05-1.44-.08 0 .17-.09.35-.14.53-.24.84-.54 1.8-.8 2.83-.07.3-.14.61-.21.94v.1a17.49 17.49 0 0 0-.36 3v.47a12.27 12.27 0 0 0 3.28 8.3 21.3 21.3 0 0 0 4.6 3.89c4.3 2.81 10.77 5.49 20.4 7.82 7.85 1.88 28.38 6.26 32.09 7.06l.31.06h.27s1.23.24 1.23 4c0 .6.1 1.9.28 3.66 0 .25.06.52.09.8.07.68.15 1.42.24 2.21 0 .24.06.49.08.75s0 .25.05.38c0 .38.09.79.13 1.19v.41l.08.7c.09.7.17 1.41.26 2.14 0 .39.09.79.14 1.19a2.19 2.19 0 0 0 0 .27c0 .35.07.71.12 1.06l.05.44.36 2.92v.1c.06.5.13 1 .19 1.5s.13 1 .19 1.49c0 .3.06.6.11.9s.06.5.09.76l.15 1.16c.14 1.18.29 2.32.41 3.4.06.36.1.72.14 1.06v.38c0 .28.07.56.11.82.08.69.16 1.33.23 1.91q.06.56.12 1c.13 1.17.21 1.93.21 2.15 3.09 0 5.7 0 6.68-1 .57-.57.81-11.55.92-20.69.08-6.66.08-12.34.08-12.34l-.58-5.13-.46-4.72a9.43 9.43 0 0 0-.71-3.32l1 .11a12.32 12.32 0 0 0 1.88-.71 6 6 0 0 0 2.15-1.55 60.57 60.57 0 0 0-.87-7.26zm-8.35 4.2a15.48 15.48 0 0 0-2.27-1.16l-4.44-1.8-4-1.61-18.89-7.63 18.23-11.72s4.27-4.22 3.85-1.9 3.91 14.35 3.91 14.35l3.49 11.09z" fill="#dfeafc"/><path d="M649.2 94.68s2.86.36 3.75-.52c1.49.59 6.59 4.56 7.56 4.56s2.73 2 1 3-5.68 1.89-7.57 0a7.9 7.9 0 0 0-4.71-2z" fill="#025cee"/><path d="M649.56 140.94s5.94 7.7 8.38 8.44c1.38 1.37.8 1.95.8 1.95s-4.22 2.33-7.46 0c-.85-.61-1.63-1.18-2.3-1.68a14.92 14.92 0 0 1-4.32-5.21c-.49-1-1-1.85-1.33-1.85 2.01-.01 6.23-.13 6.23-1.65z" fill="#025cee"/><path d="M651.08 93.94l-1.88.7-1-.11a7.46 7.46 0 0 0-4.31-5.49l-3.47-11.1s-4.33-12.1-3.88-14.4-3.85 1.91-3.85 1.91l-18.23 11.71s-13.42-6.79-9.23-6.79 20.61-15.34 20.61-15.34 6.63-5 10.83-5 8.42 3.52 8.42 5.26-2 10.73 0 12.73 5.99 25.92 5.99 25.92z" fill="#c3dbff"/><path d="M643.92 89.07l.58 1.85-2.72-2.67a9.7 9.7 0 0 1 2.14.82z" fill="#96bde6"/><path d="M601.21 13.35l-4.87 3.59-6.29 4s-10.78 15.81-12.25 14.58c-.26 2.18 3.59 23.28 3.59 23.28s-14.05-3.47-10.77-23.81c1.14-7.06 2.32-6.67 2.32-6.67v-.1a43.07 43.07 0 0 1 1.29-4.44 4.36 4.36 0 0 1 2-2.73c1.92-1-1.55-6.13.66-7.28a15.67 15.67 0 0 0 5.32-4.37c2.2-3.43 3.94-6.87 7.6-8.66 2-1 5.16-.93 6 0C597.92 3.2 597 2.21 597 2.21s3.92-1.3 5.52-.42c2.52 1.45 5.63 6.47 5.36 8.27s-6.67 3.29-6.67 3.29z" fill="#7806c7"/><path d="M649.99 120.14c-.11 9.14-.35 20.12-.92 20.69-1 1-3.59 1-6.68 1 0-.22-.08-1-.21-2.15q-.06-.47-.12-1c-.07-.58-.15-1.22-.23-1.91 0-.26-.07-.54-.11-.82v-.38c0-.34-.08-.7-.14-1.06-.12-1.08-.27-2.22-.41-3.4l-.15-1.16c0-.26-.06-.52-.09-.76s-.08-.6-.11-.9c-.06-.49-.12-1-.19-1.49s-.13-1-.19-1.5v-.1l-.36-2.92-.05-.44c0-.35-.09-.71-.12-1.06a2.19 2.19 0 0 1 0-.27c-.05-.4-.1-.8-.14-1.19-.09-.73-.17-1.44-.26-2.14l-.08-.7v-.41c0-.4-.08-.81-.13-1.19 0-.13 0-.26-.05-.38s0-.51-.08-.75c-.09-.79-.17-1.53-.24-2.21 0-.28-.06-.55-.09-.8-.18-1.76-.28-3.06-.28-3.66 0-3.72-1.23-4-1.23-4h-.27l-.31-.06c-3.71-.8-24.24-5.18-32.09-7.06-23.58-5.69-28.24-13.58-28.28-20v-.44a20 20 0 0 1 .36-3c.07-.36.46-4.07.55-4.4 2.68-.48 8.59.6 10.46-1v3.3s-2.62 11 30.38 17.84c13.74 2.87 28.37 5.63 23.78 10.23s7.43 18.39 7.43 18.39z" fill="#c3dbff"/><path d="M607.52 11.41l-1.81 3.46-1.09 2.59s-2.13 4.64-3.63 5.72a7.35 7.35 0 0 1-3.11 1.28v.22a7.69 7.69 0 0 0 .06 2.26s-7.49-2.21-7.74-2.47a10.2 10.2 0 0 1-1.43-1.86c0-.22 2.08-4 1.81-4.83-.51-.52-2.2-1.7-.93-5.37 0 0 .7-1.55 2.25 0a2.84 2.84 0 0 1 .28 1.56l.09-.09 5.67-6.26 4.4-1.91 4 2.24z" fill="#598cce"/><path d="M603.34 53.58c-1.74 3.28-2.44 10.39-2.66 13.92v.35a2.31 2.31 0 0 1-1.93 1.8 95.82 95.82 0 0 1-10.29 1.07c-1.2.05-2.27.05-3.22 0a17.33 17.33 0 0 1-5.82-.92 4.58 4.58 0 0 1-1.81-1.1 2.14 2.14 0 0 1-.43-.59 1.85 1.85 0 0 1-.16-1.39 24.31 24.31 0 0 1 2-4c.88-1.56 1.82-3.15 2.36-4a1 1 0 0 0 .13-.22 11.72 11.72 0 0 0 1.35-5.46s-.63-1-1.42-2.47c-.37-.68-.77-1.45-1.17-2.26a26.24 26.24 0 0 1-1.55-3.75c-1-3.37-1.81-11.14-1.13-13.3a13 13 0 0 1 2.75-3.67c1.64-1.79 3.4-3.4 3.4-3.4a18.59 18.59 0 0 1 2.6-5.68 20.53 20.53 0 0 1 4.77 1.26s-1.25 1.59-1.25 2.26.91 1.59 1.59 2.28 6.37 1.79 6.37 1.79l.07-1.64c.05.27 1.69-.49 2.64-.15 3.52 1 4.57 4.5 5 4.93s.56 6.18 1.24 7.78c.9 6.46-1.26 12.47-3.43 16.56z" fill="#025cee"/><path transform="translate(-69.66 -63.06)" d="M677.18 74.47l-1.81 3.46-1.09 2.59s-2.13 4.64-3.63 5.72a7.35 7.35 0 0 1-3.11 1.28v.22a9 9 0 0 1-.92-.3 11.29 11.29 0 0 1-4.42-4.38c-.92-1.89-.58-4.6-.27-6.12l5.67-6.26 4.4-1.91 4 2.24z" fill="url(#081373ad-df80-492e-848c-bae8dedfd5bb)"/><path d="M608.39 12.86a3.21 3.21 0 0 1-2.95 2.73.72.72 0 0 1-.1-.57 4 4 0 0 0 .12-3.83c-.5-.85-1-1.38-1.24-1.2-.49.47-1.88 0-1.92-.71-1.93-1.7-5.74-.24-7 2a4.69 4.69 0 0 1-3.07 2.57s-.54-3.27-2.16-1.71c-1.34 2-.83 5.33.47 5.61 1.73 2.63 1 4 .57 3.68-.18-.13-1.31-1.25-1.32-.7l-9.45 6.86a43.62 43.62 0 0 1 9.18-16c2.14-2.3 7.55-6.44 10.58-6.77s4.24 1.44 4.24 1.44 0-1.59-2.15-3 1-1 1-1 6.15 4.35 5.2 10.6z" fill="#6c0ead"/><path d="M580.18 84.62l-1.94-36.58 6.26 1.06 1.37 10.36s-1 17.49-1.41 24.73a12.77 12.77 0 0 0 .37 3.64 4.44 4.44 0 0 1-.18 2.08c-.68 2.61.31 5.26-.86 4.09-2.26-2.26.44-5.05-1.74-4.09s-3.23 2.87-3.84 3.48a15.83 15.83 0 0 1-3.31 2.36c-.35 0-4.07-.1-2.26-3.4s7.54-6.04 7.54-7.73z" fill="#98bfea"/><path d="M629.16 47.05c-4.1.37-16.49-.45-18.72-.45-.77-.77-4.52-15.1-4.52-15.1l-1.94 17.36s1.53 3.46 2.79 3.76 17.22-1.88 17.22-1.88z" fill="#98bfea"/><path d="M585.56 64.69a5.33 5.33 0 0 1-3.94-.16 8.22 8.22 0 0 1-2.61-1.75l-1.67-27.79 2.16 3.58 4.85 8 1.19 2s3.59 14.84.02 16.12z" fill="#025cee"/><path d="M585.87 59.45l-.21 3.54v1.7a5.33 5.33 0 0 1-3.94-.16s0-2.46-.08-5.93c0-2.33 0-5.11-.07-7.93v-2.08c0-2.49 0-4.92-.05-7a15.84 15.84 0 0 0-3.78-10.25 13 13 0 0 1 2.6-3.75c5 .85 3.29 11.62 3.29 11.62l.41 4.36.35 3z" fill="#4a92fe"/><path d="M605.52 29.24l4.92 17.36 4.41-.31s-1.62 4 0 5.62-9 1.5-9 1.5l-1.75-1.57-2.12-13.56z" fill="#025cee"/><path fill="#095cd3" d="M605.91 53.41l1.69 12.1-5.32 2.79.77-12.43 1.65-5.14 1.21 2.68z"/><path d="M591.44 23.83l3.21 11.11a3.64 3.64 0 0 0 3.67 2.62 3.08 3.08 0 0 0 2.79-3.94l-3.25-8.94z" fill="#598cce"/><path fill="url(#a1b45e8b-a3b0-47ad-bc80-e475138dcf27)" d="M630.65 39.61l-12.74-12.02-8.59 27.29h12.41l8.92-15.27z"/><path d="M589.85 22.03l6.78 10.3a.74.74 0 0 0 1.36-.42l-.11-7.45 7.8 15.81a7.84 7.84 0 0 1 .61 4.75l-4 22-2.35 3.69h-8z" fill="#ffffff"/><path fill="#9bb5ce" d="M623.89 41.35l6.76-1.74-2.14 13.25-6.78 2.02 2.16-13.53z"/><path fill="#9bb5ce" d="M621.73 54.88l.44.45.26-1.63-.7 1.18z"/><path fill="#9bb5ce" d="M630.65 39.61l.44.44-.86.22-.18-.33.6-.33z"/><path d="M589.85 22.03a125 125 0 0 0 .79 19.34 222.75 222.75 0 0 0 5 24.68c1.33 5.58 0 5.84 0 5.84a29.15 29.15 0 0 0-7.2-1.17c-3.22 0-1.29-34.15-1.29-34.15z" fill="#025cee"/><path fill="#b0c7e2" d="M624.33 41.79l6.76-1.74-2.13 13.25-6.79 2.03 2.16-13.54z"/><path d="M632.52 44.7l-1.45 2.75q-.22.42-.48.81l-.32.47-.49.74a3.78 3.78 0 0 1-2.3 1.6c-1.69.38-4.33.6-5.55-1.23-.74-1.12.4-3.13 1.08-3.54.2 1.16 5.58 1.09 6.8.35a3.75 3.75 0 0 1 1.24-2.06l.2-.14c1.09-.68 1.27.25 1.27.25z" fill="#578ecf"/><path d="M632.52 44.7l-1.45 2.75q-.22.42-.48.81l-.32.47c-6.8 1.59-7.26-2.43-7.26-2.43.2 1.16 5.58 1.09 6.8.35a3.75 3.75 0 0 1 1.24-2.06l.2-.14c1.09-.68 1.27.25 1.27.25z" fill="#98bfea"/><path fill="url(#f861c8cd-6e71-41da-8eb4-f6bfea77369f)" d="M317.24 437.28l-59.88-31.43v-35.81l59.88 31.44v35.8z"/><path fill="#0054ad" d="M268.8 411.86l-11.44-6.01v-35.81l11.44 6.01v35.81z"/><path fill="#d88000" d="M292.14 393.55l-9.69-5.08v-2.2l9.69 5.08v2.2z"/><path fill="#cccccc" d="M314.42 410.38l-43.57-22.87v-3.27l43.57 22.87v3.27z"/><path fill="#808080" d="M280.47 386.87l-9.69-5.08v-1.09l9.69 5.08v1.09z"/><path fill="#808080" d="M281.71 392.12l-9.69-5.08v-1.1l9.69 5.09v1.09z"/><path fill="#808080" d="M293.5 398.31l-9.69-5.09v-1.09l9.69 5.09v1.09z"/><path fill="#808080" d="M281.71 396.16l-9.69-5.08v-1.09l9.69 5.08v1.09z"/><path fill="#808080" d="M293.5 402.35l-9.69-5.09v-1.09l9.69 5.09v1.09z"/><path fill="#808080" d="M281.71 400.2l-9.69-5.08v-1.09l9.69 5.08v1.09z"/><path fill="#808080" d="M293.5 406.39l-9.69-5.08v-1.1l9.69 5.09v1.09z"/><path fill="#808080" d="M281.71 404.25l-9.69-5.09v-1.09l9.69 5.08v1.1z"/><path fill="#808080" d="M293.5 410.43l-9.69-5.08v-1.09l9.69 5.08v1.09z"/><path fill="#808080" d="M281.71 412.79l-9.69-5.08v-1.09l9.69 5.08v1.09z"/><path fill="#808080" d="M293.5 418.98l-9.69-5.08v-1.09l9.69 5.08v1.09z"/><path fill="#808080" d="M281.71 416.84l-9.69-5.09v-1.09l9.69 5.08v1.1z"/><path fill="#808080" d="M293.5 423.02l-9.69-5.08v-1.09l9.69 5.08v1.09z"/><path fill="#277c7c" d="M312.46 408.73l-5.1-2.68v-2.02l5.1 2.67v2.03z"/><path fill="#277c7c" d="M305.62 405.13l-5.1-2.67v-2.02l5.1 2.67v2.02z"/><path fill="#cccccc" d="M314.42 427.12l-43.57-22.87v-3.27l43.57 22.87v3.27z"/><path fill="#808080" d="M281.71 408.86l-9.69-5.09v-1.09l9.69 5.09v1.09z"/><path fill="#808080" d="M293.5 415.05l-9.69-5.09v-1.09l9.69 5.08v1.1z"/><path fill="#277c7c" d="M312.46 425.46l-5.1-2.67v-2.03l5.1 2.68v2.02z"/><path fill="#277c7c" d="M305.62 421.87l-5.1-2.67v-2.03l5.1 2.68v2.02z"/></g></g></svg>