<svg id="Capa_1" enable-background="new 0 0 512 512" height="512" viewBox="0 0 512 512" width="512" xmlns="http://www.w3.org/2000/svg"><path fill="rgba(242, 242, 242, 0.9)" d="m512 30h-60v-30h-121v30h-150v-30h-121v30h-60v482h512zm-151 0h61v30h-61zm-271 0h61v30h-61zm-30 30v30h121v-30h150v30h121v-30h30v60h-452v-60zm-30 422v-332h452v332z"/><path fill="rgba(242, 242, 242, 0.9)" d="m256 180c-74.439 0-135 61.009-135 136s60.561 136 135 136 135-61.009 135-136-60.561-136-135-136zm15 240.914v-28.914h-30v28.914c-45.963-6.667-82.401-43.493-88.944-89.914h28.944v-30h-28.944c6.542-46.42 42.981-83.247 88.944-89.914v28.914h30v-28.914c45.963 6.667 82.401 43.493 88.944 89.914h-28.944v29.99h28.944c-6.543 46.43-42.981 83.257-88.944 89.924z"/><path fill="rgba(242, 242, 242, 0.9)" d="m271 270h-30v61h60v-30h-30z"/></svg>