<svg xmlns="http://www.w3.org/2000/svg" xmlns:xlink="http://www.w3.org/1999/xlink" xmlns:fi="http://pattern.flaticon.com/" x="0" y="0" width="1600" height="800" viewBox="0 0 1600 800"><rect x="0px" y="0px" width="100%" height="100%" opacity="1" fill="#000000"/><defs><g transform="matrix(0.12410896545112624 0.058899172000847586 -0.058899172000847586 0.12410896545112624 5.828144997306337 168.85593057840688)" id="L1_207"><path d="m311.95068 352.87036a74.80087 74.80087 0 0 1 24.04932 55.12964 8.00008 8.00008 0 0 0 8 8h32a8.00008 8.00008 0 0 0 8-8v-136a8.00055 8.00055 0 0 0 -1.6001-4.7998l-47.0487-62.73145q.6378-10.03015.6488-20.13575a222.69815 222.69815 0 0 0 -74.68506-166.3125 8.00217 8.00217 0 0 0 -10.62988 0 222.69815 222.69815 0 0 0 -74.68506 166.3125q0 10.10412.6488 20.13574l-47.0487 62.73146a8.00055 8.00055 0 0 0 -1.6001 4.7998v136a8.00008 8.00008 0 0 0 8 8h32a8.00008 8.00008 0 0 0 8-8 74.80049 74.80049 0 0 1 24.04938-55.12939 7.99939 7.99939 0 0 0 7.95062 7.12939h5.75366l-5.51489 22.05957a8.00058 8.00058 0 0 0 7.76123 9.94043h4.04584a88.60749 88.60749 0 0 0 16.80523 85.95215l13.07471 15.2539a7.99984 7.99984 0 0 0 12.14844 0l13.07471-15.2539a88.60749 88.60749 0 0 0 16.80523-85.95215h4.04584a8.00058 8.00058 0 0 0 7.76123-9.94043l-5.51489-22.05957h5.75366a7.99944 7.99944 0 0 0 7.95068-7.12964zm-15.95068-8.87036h-80v-32h80zm-40-192a24 24 0 1 1 -24 24 24.0275 24.0275 0 0 1 24-24zm112 122.667v125.333h-16.34521a90.72025 90.72025 0 0 0 -33.89161-63.23438l-5.76318-4.61035v-26.70385l3.94482-10.51978a314.209 314.209 0 0 0 17.02318-66.97464zm-67.03662 14.64649-2.50733 6.68651h-34.45605v-80.80493a40.004 40.004 0 0 0 0-78.39014v-24.80493h42.89386a206.38468 206.38468 0 0 1 13.10614 72.333 297.97169 297.97169 0 0 1 -19.03662 104.98048zm-44.96338-254.44044a206.50216 206.50216 0 0 1 44.1192 61.12695h-88.2384a206.50216 206.50216 0 0 1 44.1192-61.12695zm-50.89386 77.12695h42.89386v24.80493a40.004 40.004 0 0 0 0 78.39014v80.80493h-34.456l-2.50733-6.68555a297.98093 297.98093 0 0 1 -19.03667-104.98145 206.38468 206.38468 0 0 1 13.10614-72.333zm-10.86884 224.76562a90.719 90.719 0 0 0 -33.89209 63.23438h-16.34521v-125.333l35.032-46.71a314.22122 314.22122 0 0 0 17.02314 66.97559l3.94486 10.51907v26.70361zm47.51661 23.23438 4 16h-19.50782l4-16zm21.24658 107.54-7.00049 8.167-7.00049-8.167a72.65285 72.65285 0 0 1 -11.86615-75.54h37.73328a72.65285 72.65285 0 0 1 -11.86615 75.54zm22.75342-91.54h-19.50782l4-16h11.50782z" fill="#faad32"/><path d="m48 336h16v104h-16z" fill="#faad32"/><path d="m48 456h16v24h-16z" fill="#faad32"/><path d="m80 288h16v80h-16z" fill="#faad32"/><path d="m80 384h16v24h-16z" fill="#faad32"/><path d="m448 336h16v104h-16z" fill="#faad32"/><path d="m448 456h16v24h-16z" fill="#faad32"/><path d="m416 288h16v80h-16z" fill="#faad32"/><path d="m416 384h16v24h-16z" fill="#faad32"/><path d="m40 224h16v16h16v-16h16v-16h-16v-16h-16v16h-16z" fill="#faad32"/><path d="m392 88h16v-16h-16v-16h-16v16h-16v16h16v16h16z" fill="#faad32"/><path d="m112 152h24v16h-24z" fill="#faad32"/><path d="m48 128h24v16h-24z" fill="#faad32"/><path d="m88 88h24v16h-24z" fill="#faad32"/><path d="m368 152h24v16h-24z" fill="#faad32"/><path d="m408 200h24v16h-24z" fill="#faad32"/><path d="m448 136h24v16h-24z" fill="#faad32"/></g><g transform="matrix(0.1321990847374983 -0.09045200421876662 0.09045200421876662 0.1321990847374983 255.8450299388463 336.70922403135455)" id="L1_208"><path d="m480 136a24.0275 24.0275 0 0 0 -24-24h-48a24.0275 24.0275 0 0 0 -24 24v312h-16v-264a24.0275 24.0275 0 0 0 -24-24h-48a24.0275 24.0275 0 0 0 -24 24v136h-16v-80a24.0275 24.0275 0 0 0 -24-24h-48a24.0275 24.0275 0 0 0 -24 24v75.69482a32.012 32.012 0 0 1 -16-27.69482v-24a8.00039 8.00039 0 0 0 -8-8h-80a8.00039 8.00039 0 0 0 -8 8v24a47.80184 47.80184 0 0 0 12.261 32h-20.261a8.00039 8.00039 0 0 0 -8 8v120h-16v16h480v-16h-16zm-192 48a8.00917 8.00917 0 0 1 8-8h48a8.00917 8.00917 0 0 1 8 8v264h-48v-120a8.00039 8.00039 0 0 0 -8-8h-8zm-144 152h48v112h-48zm144 48h-80v-16h80zm0-32h-80v-16h80zm-80 48h80v16h-80zm-32-160a8.00917 8.00917 0 0 1 8-8h48a8.00917 8.00917 0 0 1 8 8v80h-64zm-112 48v-16h64v16a47.80184 47.80184 0 0 0 12.261 32h-44.261a32.03667 32.03667 0 0 1 -32-32zm-16 48h80v16h-64v16h64v16h-64v16h64v16h-64v16h64v16h-80zm160 112v-16h80v16zm192 0v-312a8.00917 8.00917 0 0 1 8-8h48a8.00917 8.00917 0 0 1 8 8v312z" fill="#faad32"/><path d="m392 480h32v16h-32z" fill="#faad32"/><path d="m296 480h32v16h-32z" fill="#faad32"/><path d="m200 480h32v16h-32z" fill="#faad32"/><path d="m104 480h32v16h-32z" fill="#faad32"/><path d="m492.7998 65.59961-64-48a8.00013 8.00013 0 0 0 -12.7998 6.40039v40h-36a36.04061 36.04061 0 0 0 -36 36 20.02229 20.02229 0 0 1 -20 20h-60a32.03667 32.03667 0 0 0 -32 32 16.01833 16.01833 0 0 1 -16 16h-48v16h48a32.03667 32.03667 0 0 0 32-32 16.01833 16.01833 0 0 1 16-16h60a36.04061 36.04061 0 0 0 36-36 20.02229 20.02229 0 0 1 20-20h108a7.99991 7.99991 0 0 0 4.7998-14.40039zm-60.7998-1.59961v-24l32 24z" fill="#faad32"/><path d="m128 168h16v16h-16z" fill="#faad32"/><path d="m96 168h16v16h-16z" fill="#faad32"/></g><g transform="matrix(0.11690072006433616 -0.01995865941039205 0.01995865941039205 0.11690072006433616 174.12137389026742 55.02086895782186)" id="L1_209"><path d="M248,232h16a8.00049,8.00049,0,0,1,.00684,16.001L232,248v16l16,.00049V280h16V264.001h.00684A24.00049,24.00049,0,0,0,264,216H248a8,8,0,0,1,0-16h32V184H264V168H248v16a24,24,0,0,0,0,48Z" fill="#faad32"/><path d="M24,368H72a8.00008,8.00008,0,0,0,8-8h5.38184A128.848,128.848,0,0,0,160,384h40v24a8.00008,8.00008,0,0,0-8,8v72a8.00008,8.00008,0,0,0,8,8H312a8.00008,8.00008,0,0,0,8-8V416a8.00008,8.00008,0,0,0-8-8h-2.251a102.67286,102.67286,0,0,0,8.11988-24H360a128.86469,128.86469,0,0,0,72.17871-22.32446A8.001,8.001,0,0,0,440,368h48a8.00008,8.00008,0,0,0,8-8V264a8.00008,8.00008,0,0,0-8-8H440a8.00008,8.00008,0,0,0-8,8v16h-6.05469a89.26219,89.26219,0,0,0-59.40625,22.43848A32.14862,32.14862,0,0,0,352,284.30762V200a80.12934,80.12934,0,0,0-58.94043-77.16687l.72168-1.08264A60.6481,60.6481,0,0,0,304,88a8.00008,8.00008,0,0,0-8-8H216a8.00008,8.00008,0,0,0-8,8,60.65086,60.65086,0,0,0,10.21875,33.751l.72168,1.08221A80.12921,80.12921,0,0,0,160,200v79.05566a6.43728,6.43728,0,0,1-3.57812,5.78907,22.35436,22.35436,0,0,0-10.70167,11.45947A89.27848,89.27848,0,0,0,94.05371,280H80V264a8.00008,8.00008,0,0,0-8-8H24a8.00008,8.00008,0,0,0-8,8v96A8.00008,8.00008,0,0,0,24,368Zm424-96h32v80H448ZM304,480H208V424h96Zm-88-72V336h55.97412A62.16434,62.16434,0,0,0,256,377.7832v9.37256h16V377.7832A46.31947,46.31947,0,0,1,285.65625,344.813,7.99917,7.99917,0,0,0,288,339.15576V312a8,8,0,0,1,16,0v51.15576A86.95356,86.95356,0,0,1,291.583,408ZM425.94531,296H432v48h-.001a8.00055,8.00055,0,0,0-4.7998,1.6001A112.69952,112.69952,0,0,1,360,368H319.87378c.075-1.6106.12622-3.22437.12622-4.84424L368,352V336H326.60742C322.96387,335.99951,320,332.41077,320,328.00024v-.00048a8.71448,8.71448,0,0,1,2.1875-5.91968A6.078,6.078,0,0,1,326.61035,320H368v-.00342a7.95726,7.95726,0,0,0,5.65527-2.334A73.45859,73.45859,0,0,1,425.94531,296ZM231.53125,112.87549A44.70579,44.70579,0,0,1,224.71484,96h62.57032a44.70038,44.70038,0,0,1-6.81641,16.875l-4.812,7.21777C274.44385,120.0379,273.22632,120,272,120H240c-1.22632,0-2.44385.0379-3.657.09277ZM163.57812,299.15527A22.34924,22.34924,0,0,0,176,279.05566V200a64.07239,64.07239,0,0,1,64-64h32a64.07239,64.07239,0,0,1,64,64v80.00244H320v16h16A15.99629,15.99629,0,0,1,349.8335,304H326.6084a21.49,21.49,0,0,0-7.54907,1.36353A23.99722,23.99722,0,0,0,272,312v8H206.63818A24.03916,24.03916,0,0,0,184,304h-.00488l-23.926.00488A6.43045,6.43045,0,0,1,163.57812,299.15527ZM94.05371,296a73.45859,73.45859,0,0,1,52.29,21.6626,7.99952,7.99952,0,0,0,5.65723,2.34375h.00195L183.99805,320a8,8,0,0,1,.00488,16H144v16l56,.00061V368H160a112.70022,112.70022,0,0,1-67.2002-22.3999A7.9984,7.9984,0,0,0,88,344H80V296ZM32,272H64v80H32Z" fill="#faad32"/><rect x="120px" y="144px" width="24px" height="16px" fill="#faad32"/><rect x="368px" y="144px" width="24px" height="16px" fill="#faad32"/><rect x="331px" y="56px" width="24px" height="16px" transform="matrix(0.7071067811865476 -0.7071067811865475 0.7071067811865475 0.7071067811865476 55.18172836303711 261.8581848144531)" fill="#faad32"/><rect x="248px" y="16px" width="16px" height="24px" fill="#faad32"/><rect x="160px" y="52px" width="16px" height="24px" transform="matrix(0.7071372403081164 -0.7070763207528741 0.7070763207528741 0.7071372403081164 3.815840005874634 137.8505096435547)" fill="#faad32"/></g><path d="M491.147,56.645a8.00136,8.00136,0,0,0-8.6709,1.56836l-176,168a7.99949,7.99949,0,0,0-.13281,11.44336l10.34314,10.34314-9.118,9.1178-62.37744,23.3916a7.9709,7.9709,0,0,0-.9375.43066l-6.59668-6.59668a7.99611,7.99611,0,0,0-4.34131-2.23437l-45.47119-7.57862-8.53064-8.53039,10.34314-10.34314a7.99986,7.99986,0,0,0,.26269-11.03809l-160-176A7.99986,7.99986,0,0,0,16,64V288a7.99877,7.99877,0,0,0,2.34326,5.65674l56,56a7.99945,7.99945,0,0,0,11.31348,0L96,339.31348l36.76666,36.7666a24.97507,24.97507,0,0,0,27.45044,39.49658A24.91351,24.91351,0,0,0,184,432.959a25.09037,25.09037,0,0,0,8.2171-1.38232,24.96492,24.96492,0,0,0,40.95874,10.53723,24.98,24.98,0,0,0,40.4809,7.54285l8-8a24.83945,24.83945,0,0,0,7.04413-14.06153l9.56231-2.125a34.23207,34.23207,0,0,0,16.80616-9.22607L400,331.31348l18.34326,18.34326a7.99945,7.99945,0,0,0,11.31348,0l64-64A7.99877,7.99877,0,0,0,496,280V64A8.0004,8.0004,0,0,0,491.147,56.645ZM80,332.68652l-48-48V84.69287l140.94922,155.044Zm72,68.28418a8.97072,8.97072,0,0,1-6.34326-15.314l16-16a8.97072,8.97072,0,0,1,12.68652,12.68652l-8,8-8,8A8.91226,8.91226,0,0,1,152,400.9707Zm25.65674,13.37256a8.98111,8.98111,0,0,1,0-12.68652l8-8a8.97072,8.97072,0,0,1,12.68652,12.68652l-8,8A8.982,8.982,0,0,1,177.65674,414.34326Zm44.68652,16a8.97072,8.97072,0,0,1-12.68652-12.68652l8-8a8.97072,8.97072,0,0,1,12.68652,12.68652Zm48,0-8,8a8.97072,8.97072,0,0,1-12.68652-12.68652l8-8a8.97072,8.97072,0,0,1,12.68652,12.68652Zm24.44922-20.49219-8.98419,1.99659a24.94746,24.94746,0,0,0-38.98413-5.96155,24.94688,24.94688,0,0,0-31.04126-13.46277,24.8999,24.8999,0,0,0-22.84619-17.36011,24.95341,24.95341,0,0,0-42.59345-16.72L144,364.68652,107.31348,328,168,267.31348l10.34326,10.34326a7.99611,7.99611,0,0,0,4.34131,2.23437l45.47119,7.57862,4.53058,4.53051-28.45441,28.45435A21.97293,21.97293,0,0,0,226.729,356.85645l37.78516-12.59522,4.63525.92725c.29615.0592.59272.10815.889.16345l33.71741,33.71741a18.28656,18.28656,0,0,1-8.96338,30.78173Zm29.4563-25.41333a34.07058,34.07058,0,0,0-9.17944-16.68188l-21.87507-21.875a71.28744,71.28744,0,0,0,40.46247-20.22412l-11.31348-11.31348A55.31437,55.31437,0,0,1,272.28711,329.499l-6.71826-1.34375a7.99316,7.99316,0,0,0-4.09864.25537l-39.80078,13.26709a5.98475,5.98475,0,0,1-6.124-9.90966l36.88623-36.88575,62.37744-23.3916a7.99739,7.99739,0,0,0,2.84766-1.834L328,259.31348,388.68652,320ZM480,276.68652l-56,56L323.44678,232.1333,480,82.6958Z" transform="matrix(0.13395910293811153 -0.01913701423649536 0.01913701423649536 0.13395910293811153 176.61464551050292 305.04232876214644)" id="L1_210" fill="#faad32"/><g transform="matrix(0.09006297375533757 0.0470783724296137 -0.0470783724296137 0.09006297375533757 305.97390691986783 104.8790946226656)" id="L1_211"><path d="m55.261719 28.761719c-12.125 0-21.988281 9.867187-21.988281 21.988281 0 12.125 9.863281 21.992188 21.988281 21.992188s21.992187-9.867188 21.992187-21.992188c0-12.121094-9.867187-21.988281-21.992187-21.988281zm0 28.992187c-3.859375 0-7.003907-3.140625-7.003907-7.003906 0-3.859375 3.144532-7 7.003907-7 3.863281 0 7.003906 3.140625 7.003906 7 0 3.863281-3.140625 7.003906-7.003906 7.003906zm0 0" fill="#faad32"/><path d="m111.25 28.761719c-12.125 0-21.992188 9.867187-21.992188 21.988281 0 12.125 9.867188 21.992188 21.992188 21.992188s21.988281-9.867188 21.988281-21.992188c0-12.121094-9.863281-21.988281-21.988281-21.988281zm0 28.992187c-3.863281 0-7.003906-3.140625-7.003906-7.003906 0-3.859375 3.140625-7 7.003906-7 3.859375 0 7.003906 3.140625 7.003906 7 0 3.863281-3.144531 7.003906-7.003906 7.003906zm0 0" fill="#faad32"/><path d="m167.234375 28.761719c-12.125 0-21.988281 9.867187-21.988281 21.988281 0 12.125 9.863281 21.992188 21.988281 21.992188s21.992187-9.867188 21.992187-21.992188c0-12.121094-9.867187-21.988281-21.992187-21.988281zm0 28.992187c-3.859375 0-7.003906-3.140625-7.003906-7.003906 0-3.859375 3.144531-7 7.003906-7 3.863281 0 7.003906 3.140625 7.003906 7 0 3.863281-3.140625 7.003906-7.003906 7.003906zm0 0" fill="#faad32"/><path d="m503.9375 147.824219c4.140625 0 7.496094-3.355469 7.496094-7.496094l.566406-107.351563c0-18.183593-14.792969-32.976562-32.976562-32.976562h-446.042969c-18.183594 0-32.980469 14.796875-32.980469 32.980469v362.566406c0 16.480469 12.152344 30.175781 27.964844 32.597656 1.636718.253907 3.3125.382813 5.015625.382813h145.804687v26.875h-22.625c-15.089844 0-27.371094 12.277344-27.371094 27.367187v16.191407c0 6.886718 5.601563 12.488281 12.488282 12.488281h35.734375c4.136719 0 7.492187-3.355469 7.492187-7.496094 0-4.136719-3.355468-7.492187-7.492187-7.492187h-33.234375v-13.691407c0-6.828125 5.554687-12.382812 12.382812-12.382812h199.113282c6.828124 0 12.382812 5.554687 12.382812 12.382812v13.691407h-144.125c-4.136719 0-7.492188 3.355468-7.492188 7.492187 0 4.140625 3.355469 7.496094 7.492188 7.496094h146.621094c6.886718 0 12.488281-5.601563 12.488281-12.488281v-16.191407c0-15.089843-12.277344-27.367187-27.371094-27.367187h-22.625v-26.875h145.808594c1.703125 0 3.378906-.128906 5.011719-.382813 15.816406-2.421875 27.964844-16.117187 27.964844-32.597656v-208.757813c0-4.140624-3.351563-7.496093-7.492188-7.496093-4.136719 0-7.492188 3.355469-7.492188 7.496093v165.347657h-234.234374v-250.207031h234.234374v38.398437c0 4.140625 3.355469 7.496094 7.492188 7.496094zm-488.398438-45.894531h231.683594v249.667968h-231.683594zm302.121094 353.472656h-123.886718v-26.875h123.886718zm178.785156-88.277344v28.421875c0 9.300781-7.09375 16.976563-16.15625 17.902344-.605468.058593-1.214843.089843-1.835937.089843h-445.472656c-.621094 0-1.234375-.03125-1.835938-.089843-9.0625-.925781-16.15625-8.601563-16.15625-17.902344v-28.421875zm-241.726562-280.183594h-239.179688v-53.964844c0-9.917968 8.070313-17.988281 17.992188-17.988281h444.921875c9.921875 0 17.992187 8.070313 17.992187 17.992188v53.960937zm0 0" fill="#faad32"/><path d="m46.90625 131.792969h37.964844c4.136718 0 7.492187-3.351563 7.492187-7.492188 0-4.136719-3.355469-7.492187-7.492187-7.492187h-37.964844c-4.140625 0-7.496094 3.355468-7.496094 7.492187 0 4.140625 3.355469 7.492188 7.496094 7.492188zm0 0" fill="#faad32"/><path d="m110.847656 131.792969h17.984375c4.136719 0 7.492188-3.351563 7.492188-7.492188 0-4.136719-3.355469-7.492187-7.492188-7.492187h-17.984375c-4.140625 0-7.492187 3.355468-7.492187 7.492187 0 4.140625 3.351562 7.492188 7.492187 7.492188zm0 0" fill="#faad32"/><path d="m103.851562 143.257812h-24.976562c-4.136719 0-7.492188 3.355469-7.492188 7.496094 0 4.136719 3.355469 7.492188 7.492188 7.492188h24.976562c4.140626 0 7.496094-3.355469 7.496094-7.492188 0-4.140625-3.355468-7.496094-7.496094-7.496094zm0 0" fill="#faad32"/><path d="m221.746094 170.65625h-24.976563c-4.136719 0-7.492187 3.355469-7.492187 7.492188 0 4.136718 3.355468 7.492187 7.492187 7.492187h24.976563c4.140625 0 7.492187-3.355469 7.492187-7.492187 0-4.136719-3.351562-7.492188-7.492187-7.492188zm0 0" fill="#faad32"/><path d="m119.339844 150.753906c0 4.136719 3.355468 7.492188 7.492187 7.492188h59.945313c4.140625 0 7.496094-3.355469 7.496094-7.492188 0-4.140625-3.355469-7.496094-7.496094-7.496094h-59.945313c-4.136719 0-7.492187 3.355469-7.492187 7.496094zm0 0" fill="#faad32"/><path d="m95.359375 178.148438c0 4.136718 3.355469 7.492187 7.496094 7.492187h12.988281c4.136719 0 7.492188-3.355469 7.492188-7.492187 0-4.136719-3.355469-7.492188-7.492188-7.492188h-12.988281c-4.140625 0-7.496094 3.355469-7.496094 7.492188zm0 0" fill="#faad32"/><path d="m173.789062 185.640625c4.140626 0 7.496094-3.355469 7.496094-7.492187 0-4.136719-3.355468-7.492188-7.496094-7.492188h-35.964843c-4.140625 0-7.496094 3.355469-7.496094 7.492188 0 4.136718 3.355469 7.492187 7.496094 7.492187zm0 0" fill="#faad32"/><path d="m92.363281 275.269531c0-4.140625-3.355469-7.492187-7.492187-7.492187h-37.964844c-4.140625 0-7.496094 3.351562-7.496094 7.492187 0 4.136719 3.355469 7.492188 7.496094 7.492188h37.964844c4.136718 0 7.492187-3.355469 7.492187-7.492188zm0 0" fill="#faad32"/><path d="m110.847656 267.777344c-4.140625 0-7.492187 3.351562-7.492187 7.492187 0 4.136719 3.351562 7.492188 7.492187 7.492188h17.984375c4.136719 0 7.492188-3.355469 7.492188-7.492188 0-4.140625-3.355469-7.492187-7.492188-7.492187zm0 0" fill="#faad32"/><path d="m111.347656 301.71875c0-4.136719-3.355468-7.492188-7.496094-7.492188h-24.976562c-4.136719 0-7.492188 3.355469-7.492188 7.492188 0 4.140625 3.355469 7.496094 7.492188 7.496094h24.976562c4.140626 0 7.496094-3.355469 7.496094-7.496094zm0 0" fill="#faad32"/><path d="m115.84375 321.625h-12.988281c-4.140625 0-7.496094 3.351562-7.496094 7.492188 0 4.136718 3.355469 7.492187 7.496094 7.492187h12.988281c4.136719 0 7.492188-3.355469 7.492188-7.492187 0-4.140626-3.355469-7.492188-7.492188-7.492188zm0 0" fill="#faad32"/><path d="m221.746094 321.625h-24.976563c-4.136719 0-7.492187 3.351562-7.492187 7.492188 0 4.136718 3.355468 7.492187 7.492187 7.492187h24.976563c4.140625 0 7.492187-3.355469 7.492187-7.492187 0-4.140626-3.351562-7.492188-7.492187-7.492188zm0 0" fill="#faad32"/><path d="m194.273438 301.71875c0-4.136719-3.355469-7.492188-7.496094-7.492188h-59.945313c-4.136719 0-7.492187 3.355469-7.492187 7.492188 0 4.140625 3.355468 7.496094 7.492187 7.496094h59.945313c4.140625 0 7.496094-3.355469 7.496094-7.496094zm0 0" fill="#faad32"/><path d="m173.789062 321.625h-35.964843c-4.140625 0-7.496094 3.351562-7.496094 7.492188 0 4.136718 3.355469 7.492187 7.496094 7.492187h35.964843c4.140626 0 7.496094-3.355469 7.496094-7.492187 0-4.140626-3.355468-7.492188-7.496094-7.492188zm0 0" fill="#faad32"/><path d="m46.90625 219.976562h20.980469c4.136719 0 7.492187-3.355468 7.492187-7.492187 0-4.140625-3.355468-7.492187-7.492187-7.492187h-20.980469c-4.140625 0-7.496094 3.351562-7.496094 7.492187 0 4.136719 3.355469 7.492187 7.496094 7.492187zm0 0" fill="#faad32"/><path d="m173.289062 212.484375c0-4.140625-3.351562-7.492187-7.492187-7.492187h-76.929687c-4.136719 0-7.492188 3.351562-7.492188 7.492187 0 4.136719 3.355469 7.492187 7.492188 7.492187h76.929687c4.140625 0 7.492187-3.355468 7.492187-7.492187zm0 0" fill="#faad32"/><path d="m159.304688 238.933594c0-4.136719-3.355469-7.492188-7.496094-7.492188h-72.933594c-4.136719 0-7.492188 3.355469-7.492188 7.492188 0 4.140625 3.355469 7.496094 7.492188 7.496094h72.933594c4.140625 0 7.496094-3.355469 7.496094-7.496094zm0 0" fill="#faad32"/><path d="m172.792969 246.429688h13.984375c4.140625 0 7.496094-3.355469 7.496094-7.496094 0-4.136719-3.355469-7.492188-7.496094-7.492188h-13.984375c-4.140625 0-7.496094 3.355469-7.496094 7.492188 0 4.140625 3.355469 7.496094 7.496094 7.496094zm0 0" fill="#faad32"/><path d="m343.015625 289.652344h-47.953125c-4.140625 0-7.496094 3.355468-7.496094 7.492187 0 4.140625 3.355469 7.492188 7.496094 7.492188h47.953125c4.140625 0 7.496094-3.351563 7.496094-7.492188 0-4.136719-3.355469-7.492187-7.496094-7.492187zm0 0" fill="#faad32"/><path d="m464.90625 289.652344h-94.914062c-4.136719 0-7.492188 3.355468-7.492188 7.492187 0 4.140625 3.355469 7.492188 7.492188 7.492188h94.914062c4.140625 0 7.496094-3.351563 7.496094-7.492188 0-4.136719-3.355469-7.492187-7.496094-7.492187zm0 0" fill="#faad32"/><path d="m343.015625 318.625h-47.953125c-4.140625 0-7.496094 3.355469-7.496094 7.496094 0 4.136718 3.355469 7.492187 7.496094 7.492187h47.953125c4.140625 0 7.496094-3.355469 7.496094-7.492187 0-4.140625-3.355469-7.496094-7.496094-7.496094zm0 0" fill="#faad32"/><path d="m464.90625 318.625h-94.914062c-4.136719 0-7.492188 3.355469-7.492188 7.496094 0 4.136718 3.355469 7.492187 7.492188 7.492187h94.914062c4.140625 0 7.496094-3.355469 7.496094-7.492187 0-4.140625-3.355469-7.496094-7.496094-7.496094zm0 0" fill="#faad32"/><path d="m472.628906 136.171875c0-10.675781-8.683594-19.363281-19.359375-19.363281h-146.570312c-10.675781 0-19.363281 8.6875-19.363281 19.363281v101.484375.007812 17.75c0 10.675782 8.6875 19.363282 19.363281 19.363282h146.570312c10.675781 0 19.359375-8.6875 19.359375-19.363282zm-14.984375 119.242187c0 2.414063-1.964843 4.375-4.375 4.375h-146.570312c-2.414063 0-4.375-1.960937-4.375-4.375v-14.648437l54.882812-54.855469 37.878907 42.6875c2.746093 3.097656 7.484374 3.378906 10.578124.632813 3.097657-2.746094 3.378907-7.480469.632813-10.578125l-3.4375-3.871094 16.9375-16.929688 37.847656 42.65625zm0-37.488281-28.839843-32.5c-2.160157-2.433593-5.265626-3.886719-8.519532-3.984375-3.269531-.09375-6.441406 1.167969-8.742187 3.46875l-18.648438 18.636719-26.679687-30.0625c-2.160156-2.4375-5.265625-3.890625-8.519532-3.984375-3.25-.089844-6.441406 1.164062-8.742187 3.464844l-46.628906 46.609375v-83.402344c0-2.414063 1.960937-4.378906 4.375-4.378906h146.570312c2.414063 0 4.375 1.964843 4.375 4.378906zm0 0" fill="#faad32"/></g><g transform="matrix(0.13651212053897868 -0.04164776628594277 0.04164776628594277 0.13651212053897868 35.545665937131936 74.38154318093527)" id="L1_212"><path d="M488,344H400a8.00008,8.00008,0,0,0-8,8v4.686l-29.80566-29.80567A50.4741,50.4741,0,0,0,326.26855,312a35.02107,35.02107,0,0,1-20.88378-6.96143A85.797,85.797,0,0,0,264,288.57642V255.99951l.01367.00049h15.92578a39.92188,39.92188,0,0,0,33.28223-17.812l14.208-21.3125A15.9998,15.9998,0,0,0,314.11719,192H298.19141a39.92188,39.92188,0,0,0-33.28223,17.812L264,211.17584V183.599a80,80,0,1,0-16,0v27.57642l-.90918-1.3639A39.92262,39.92262,0,0,0,213.80859,192H197.88281a15.99954,15.99954,0,0,0-13.3125,24.875l14.208,21.31348A39.92262,39.92262,0,0,0,232.06055,256h15.92578L248,255.99951V288h-8.40332a64.54523,64.54523,0,0,0-45.93945,19.02832A43.995,43.995,0,0,1,162.3418,320a60.506,60.506,0,0,0-37.66114,13.21094L104,349.75537V344a8.00008,8.00008,0,0,0-8-8H24a8.00008,8.00008,0,0,0-8,8v96a8.00008,8.00008,0,0,0,8,8H96a8.00008,8.00008,0,0,0,8-8v-8h5.38184A128.848,128.848,0,0,0,184,456h33.37622A23.99123,23.99123,0,0,0,240,488h80.9043a95.77156,95.77156,0,0,0,73.51538-34.27356A7.97,7.97,0,0,0,400,456h88a8.00008,8.00008,0,0,0,8-8V352A8.00008,8.00008,0,0,0,488,344ZM278.22168,218.6875A23.95263,23.95263,0,0,1,298.19141,208h15.92578l-14.208,21.3125A23.95263,23.95263,0,0,1,279.93945,240H264.01367ZM232.06055,240a23.95337,23.95337,0,0,1-19.96973-10.687L197.88281,208h15.92578a23.95337,23.95337,0,0,1,19.96973,10.687L247.98633,240ZM88,432H32V352H88ZM192,104a64,64,0,1,1,64,64A64.07239,64.07239,0,0,1,192,104ZM162.3418,336a59.88925,59.88925,0,0,0,42.6289-17.65771A48.65065,48.65065,0,0,1,239.59668,304h14.67187a69.626,69.626,0,0,1,41.51563,13.83838A51.12224,51.12224,0,0,0,326.26855,328a34.58149,34.58149,0,0,1,24.61231,10.19434l29.50708,29.50744-8.33716,3.57312a183.3467,183.3467,0,0,0-55.32324,36.731L288.00391,408H288a23.823,23.823,0,0,0-16.00952,6.123A23.8999,23.8999,0,0,0,256,408.00049l-25.37671.001A23.99709,23.99709,0,0,0,208,376h-.00488l-28.76758.00586a89.18141,89.18141,0,0,0-52.895-23.62708l8.34228-6.6737A44.45172,44.45172,0,0,1,162.3418,336Zm-45.542,81.6001A7.9984,7.9984,0,0,0,112,416h-8V368h14.05371a73.45859,73.45859,0,0,1,52.29,21.6626,7.99952,7.99952,0,0,0,5.65723,2.34375h.00195L207.99805,392a8,8,0,0,1,.00488,16H168v16h32.00293v.00244L256,424.00049A7.99976,7.99976,0,1,1,256,440H184A112.70022,112.70022,0,0,1,116.7998,417.6001Zm270.668,18.77588A79.83819,79.83819,0,0,1,320.9043,472H240a7.99976,7.99976,0,1,1,0-15.99951l55.99707.00195V456H328V440h-40.002A8,8,0,0,1,288,424h.001l31.99609.00635h.00195a7.99952,7.99952,0,0,0,5.65723-2.34375A167.473,167.473,0,0,1,378.35352,385.981L392,380.13232v49.44532ZM480,440H408V360h72Z" fill="#faad32"/><path d="M264,152v-8a24,24,0,0,0,0-48H248a8,8,0,0,1,0-16h32V64H264V56H248v8a24,24,0,0,0,0,48h16a8,8,0,0,1,0,16H232v16h16v8Z" fill="#faad32"/><rect x="256px" y="376px" width="16px" height="16px" fill="#faad32"/><rect x="288px" y="352px" width="16px" height="16px" fill="#faad32"/><rect x="232px" y="328px" width="16px" height="16px" fill="#faad32"/><rect x="192px" y="344px" width="16px" height="16px" fill="#faad32"/><rect x="336px" y="352px" width="16px" height="16px" fill="#faad32"/></g><g transform="matrix(0.1408346930318868 0.017604336288376096 -0.017604336288376096 0.1408346930318868 58.294398697536906 257.8090890639111)" id="L1_213"><path d="M475.249,330.426c-0.003,0-0.006-0.001-0.009-0.001l0-0.024l-31.112-4.44c-4.375-0.618-7.42-4.666-6.802-9.04    c0.298-2.109,1.425-4.012,3.13-5.288l10.2-7.632H472c4.418,0,8-3.582,8-8v-288c0-4.418-3.582-8-8-8H8c-4.418,0-8,3.582-8,8v288    c0,4.418,3.582,8,8,8h20.688l-10.344,10.344c-2.726,2.729-3.116,7.015-0.928,10.192l15.2,22.112l-26.296,5.52    c-3.691,0.793-6.325,4.057-6.32,7.832v32c-0.002,3.784,2.649,7.052,6.352,7.832l26.296,5.528l-15.2,22.104    c-2.188,3.177-1.798,7.463,0.928,10.192l24,24c2.729,2.726,7.015,3.116,10.192,0.928l22.104-15.2l5.528,26.296    c0.79,3.679,4.037,6.31,7.8,6.32h32c3.784,0.002,7.052-2.649,7.832-6.352l5.528-26.304l22.104,15.24    c3.177,2.188,7.463,1.798,10.192-0.928l24-24c2.726-2.729,3.116-7.015,0.928-10.192l-15.2-22.112l26.296-5.52    c3.691-0.793,6.325-4.057,6.32-7.832v-32c0.002-3.784-2.649-7.052-6.352-7.832l-26.296-5.528l15.2-22.104    c2.188-3.177,1.798-7.463-0.928-10.192l-10.312-10.344h33.016l-6.4,44.52c-0.634,4.372,2.396,8.431,6.768,9.066    c0.034,0.005,0.069,0.01,0.103,0.014l31.112,4.44c4.375,0.618,7.42,4.666,6.802,9.04c-0.298,2.109-1.425,4.012-3.13,5.288    L222.4,395.201c-3.535,2.651-4.251,7.665-1.6,11.2l28.8,38.4c2.651,3.535,7.665,4.251,11.2,1.6l25.144-18.864    c3.534-2.652,8.549-1.936,11.2,1.598c1.275,1.699,1.822,3.835,1.52,5.938l-4.448,31.112c-0.627,4.374,2.41,8.427,6.783,9.055    c0.003,0,0.006,0.001,0.009,0.001l47.512,6.784c0.376,0.057,0.756,0.087,1.136,0.088c3.982,0,7.358-2.929,7.92-6.872l4.448-31.112    c0.623-4.374,4.674-7.415,9.048-6.792c2.102,0.299,3.998,1.422,5.272,3.12l18.856,25.144c2.651,3.535,7.665,4.251,11.2,1.6    l38.4-28.8c3.535-2.651,4.251-7.665,1.6-11.2l-18.864-25.144c-2.652-3.534-1.936-8.549,1.598-11.2    c1.699-1.275,3.836-1.822,5.938-1.52l31.112,4.44c4.373,0.628,8.428-2.409,9.056-6.782c0-0.001,0-0.001,0-0.002l6.792-47.512    C482.659,335.108,479.622,331.054,475.249,330.426z M192,366.497v19.008l-19.944,4.192c-8.648,1.817-14.185,10.3-12.368,18.948    c0.437,2.078,1.282,4.048,2.488,5.796l11.424,16.616l-14.544,14.544l-16.616-11.456c-7.276-5.014-17.239-3.18-22.254,4.096    c-1.202,1.745-2.046,3.711-2.482,5.784l-4.2,19.976H94.496l-4.2-19.936c-1.829-8.645-10.32-14.171-18.965-12.342    c-2.053,0.434-4,1.268-5.731,2.454l-16.656,11.424L34.4,431.057l11.456-16.616c5.018-7.274,3.19-17.238-4.084-22.256    c-1.748-1.206-3.718-2.052-5.796-2.488L16,385.505v-19.008l19.944-4.192c8.645-1.83,14.169-10.322,12.339-18.967    c-0.435-2.055-1.271-4.005-2.459-5.737L34.4,320.945l14.544-14.544L65.6,317.825c7.276,5.014,17.24,3.18,22.254-4.096    c1.202-1.745,2.046-3.711,2.482-5.784l4.16-19.944h19.008l4.2,19.936c1.816,8.648,10.298,14.187,18.946,12.371    c2.075-0.436,4.043-1.28,5.79-2.483l16.616-11.424l14.544,14.544l-11.424,16.656c-5.018,7.274-3.19,17.238,4.084,22.256    c1.748,1.206,3.718,2.052,5.796,2.488L192,366.497z M138.136,301.353l-4.8,3.296l-5.528-26.296    c-0.778-3.695-4.033-6.342-7.808-6.352h-16v-56h32v80C136.013,297.99,136.776,299.901,138.136,301.353z M176,168.001    c-4.418,0-8,3.582-8,8v112h-16v-80c0-4.418-3.582-8-8-8H96c-4.418,0-8,3.582-8,8v64c-3.784-0.002-7.052,2.649-7.832,6.352    l-5.528,26.304l-22.104-15.24c-1.339-0.899-2.923-1.362-4.536-1.328v-0.088H16v-272h448v261.336l-25.6-34.136    c-2.651-3.535-7.665-4.251-11.2-1.6l-25.144,18.864c-3.534,2.652-8.549,1.936-11.2-1.598c-1.275-1.699-1.822-3.835-1.52-5.938    l4.448-31.112c0.305-2.216-0.343-4.457-1.784-6.168V72.001c0-4.418-3.582-8-8-8h-48c-4.418,0-8,3.582-8,8v157.712l-2.024,14.16    c-0.587,4.343-4.584,7.389-8.927,6.802c-1.975-0.267-3.777-1.267-5.049-2.802V112.001c0-4.418-3.582-8-8-8h-48    c-4.418,0-8,3.582-8,8v134l-4.8,3.6c-3.535,2.651-4.251,7.665-1.6,11.2l18.864,25.144c2.652,3.534,1.936,8.549-1.598,11.2    c-1.699,1.275-3.836,1.822-5.938,1.52L232,295.681v-119.68c0-4.418-3.582-8-8-8H176z M376,80.001v131.2l-32-4.576V80.001H376z     M296,120.001v106.672l-3.2-4.272c-2.651-3.535-7.665-4.251-11.2-1.6l-17.6,13.2v-114H296z M216,288.001h-32v-104h32V288.001z     M460.528,376.801l-23.2-3.312c-13.122-1.874-25.278,7.244-27.152,20.366c-0.9,6.301,0.74,12.702,4.56,17.794l14.064,18.752    l-25.6,19.2l-14.056-18.744c-7.947-10.609-22.989-12.766-33.597-4.82c-5.1,3.82-8.471,9.512-9.371,15.82l-3.312,23.2    l-31.664-4.528l3.312-23.2c1.87-13.122-7.252-25.276-20.374-27.146c-6.295-0.897-12.689,0.741-17.778,4.554l-18.76,14.064    l-19.2-25.6l18.736-14.056c10.605-7.952,12.756-22.995,4.804-33.599c-3.818-5.092-9.503-8.459-15.804-9.361l-23.2-3.32    l4.528-31.672l23.2,3.312c13.122,1.874,25.278-7.244,27.152-20.366c0.9-6.301-0.74-12.702-4.56-17.794L259.2,257.601l25.6-19.2    l14.056,18.744c7.947,10.609,22.989,12.766,33.597,4.82c5.1-3.82,8.471-9.512,9.371-15.82l3.312-23.2l31.672,4.528l-3.312,23.2    c-1.87,13.122,7.252,25.276,20.374,27.146c6.295,0.897,12.689-0.741,17.778-4.554l18.752-14.064l19.2,25.6l-18.736,14.056    c-10.605,7.952-12.756,22.995-4.804,33.599c3.818,5.092,9.503,8.459,15.804,9.361l23.2,3.32L460.528,376.801z" fill="#faad32"/><path d="M104,328.001c-26.51,0-48,21.49-48,48c0,26.51,21.49,48,48,48c26.51,0,48-21.49,48-48    C151.974,349.502,130.499,328.027,104,328.001z M104,408.001c-17.673,0-32-14.327-32-32c0-17.673,14.327-32,32-32s32,14.327,32,32    C136,393.674,121.673,408.001,104,408.001z" fill="#faad32"/><path d="M344,280.001c-35.346,0-64,28.654-64,64c0,35.346,28.654,64,64,64c35.346,0,64-28.654,64-64    C407.96,308.671,379.33,280.041,344,280.001z M344,392.001c-26.51,0-48-21.49-48-48c0-26.51,21.49-48,48-48    c26.51,0,48,21.49,48,48C391.974,370.5,370.499,391.975,344,392.001z" fill="#faad32"/><path d="M321.6,32.161l-40-8l-3.2,15.68l19.392,3.888L83.952,169.097l8.096,13.808L308.656,55.929l-4.496,22.472l15.68,3.136l8-40    C328.685,37.229,325.9,33.045,321.6,32.161z" fill="#faad32"/><rect x="32px" y="216px" width="16px" height="56px" fill="#faad32"/><rect x="32px" y="184px" width="16px" height="16px" fill="#faad32"/><rect x="432px" y="104px" width="16px" height="120px" fill="#faad32"/><rect x="432px" y="72px" width="16px" height="16px" fill="#faad32"/><rect x="184px" y="456px" width="16px" height="16px" fill="#faad32"/><rect x="216px" y="456px" width="16px" height="16px" fill="#faad32"/><rect x="248px" y="456px" width="16px" height="16px" fill="#faad32"/></g><g transform="matrix(0.8514144680888072 -0.4627252614502588 0.4627252614502588 0.8514144680888072 138.94752865474987 188.56194538756645)" id="L1_214"><path d="m33 19v-2h3v-3c0-1.654-1.346-3-3-3h-2c-.552 0-1-.449-1-1v-1h3c.552 0 1 .449 1 1h2c0-1.654-1.346-3-3-3v-2h-2v2h-3v3c0 1.654 1.346 3 3 3h2c.552 0 1 .449 1 1v1h-3c-.552 0-1-.449-1-1h-2c0 1.654 1.346 3 3 3v2z" fill="#faad32"/><path d="m62.618 47-5-10h-13.974c2.044-1.651 3.356-4.174 3.356-7v-1h-7c-2.826 0-5.349 1.312-7 3.356v-9.406c5.598-.508 10-5.222 10-10.95 0-6.065-4.935-11-11-11s-11 4.935-11 11c0 5.728 4.402 10.442 10 10.949v5.406c-1.651-2.043-4.174-3.355-7-3.355h-7v1c0 4.962 4.037 9 9 9h5v2h-1.382-3.236-20l-5 10h3.618v16h52v-16zm-36.618-14c-3.521 0-6.442-2.612-6.929-6h4.929c3.521 0 6.442 2.612 6.929 6zm14-2h4.929c-.486 3.388-3.408 6-6.929 6h-4.929c.487-3.388 3.408-6 6.929-6zm-17-19c0-4.962 4.037-9 9-9s9 4.038 9 9-4.037 9-9 9-9-4.038-9-9zm8 27h7 18.382l3 6h-26.764l-3-6zm-23.382 0h18.764l-3 6h-18.764zm-.618 8h17.618l2.382-4.764v18.764h-20zm48 14h-26v-18.764l2.382 4.764h23.618z" fill="#faad32"/><path d="m53 53h-15v6h15zm-2 4h-11v-2h11z" fill="#faad32"/><path d="m9 53h2v2h-2z" fill="#faad32"/><path d="m9 57h2v2h-2z" fill="#faad32"/><path d="m9 49h2v2h-2z" fill="#faad32"/><path d="m49 33h2v-19h-2.233l4.233-7.056 4.233 7.056h-2.233v9h2v-7h3.767l-7.767-12.944-7.767 12.944h3.767z" fill="#faad32"/><path d="m55 25h2v2h-2z" fill="#faad32"/><path d="m55 29h2v2h-2z" fill="#faad32"/><path d="m6 23h2v-9h-2.233l4.233-7.056 4.233 7.056h-2.233v19h2v-17h3.767l-7.767-12.944-7.767 12.944h3.767z" fill="#faad32"/><path d="m6 25h2v2h-2z" fill="#faad32"/><path d="m6 29h2v2h-2z" fill="#faad32"/><path d="m46 41h2v2h-2z" fill="#faad32"/><path d="m50 41h2v2h-2z" fill="#faad32"/><path d="m54 41h2v2h-2z" fill="#faad32"/><path d="m8 41h2v2h-2z" fill="#faad32"/><path d="m12 41h2v2h-2z" fill="#faad32"/><path d="m16 41h2v2h-2z" fill="#faad32"/></g></defs><g fi:class="KUsePattern" opacity="0.29"><pattern id="pattern_L1_207" width="350" height="350" patternUnits="userSpaceOnUse"><use xlink:href="#L1_207" x="-350" y="-350"/><use xlink:href="#L1_207" x="0" y="-350"/><use xlink:href="#L1_207" x="350" y="-350"/><use xlink:href="#L1_207" x="-350" y="0"/><use xlink:href="#L1_207" x="0" y="0"/><use xlink:href="#L1_207" x="350" y="0"/><use xlink:href="#L1_207" x="-350" y="350"/><use xlink:href="#L1_207" x="0" y="350"/><use xlink:href="#L1_207" x="350" y="350"/></pattern><rect x="0" y="0" width="100%" height="100%" fill="url(#pattern_L1_207)"/></g><g fi:class="KUsePattern" opacity="0.3"><pattern id="pattern_L1_208" width="350" height="350" patternUnits="userSpaceOnUse"><use xlink:href="#L1_208" x="-350" y="-350"/><use xlink:href="#L1_208" x="0" y="-350"/><use xlink:href="#L1_208" x="350" y="-350"/><use xlink:href="#L1_208" x="-350" y="0"/><use xlink:href="#L1_208" x="0" y="0"/><use xlink:href="#L1_208" x="350" y="0"/><use xlink:href="#L1_208" x="-350" y="350"/><use xlink:href="#L1_208" x="0" y="350"/><use xlink:href="#L1_208" x="350" y="350"/></pattern><rect x="0" y="0" width="100%" height="100%" fill="url(#pattern_L1_208)"/></g><g fi:class="KUsePattern" opacity="0.3"><pattern id="pattern_L1_209" width="350" height="350" patternUnits="userSpaceOnUse"><use xlink:href="#L1_209" x="-350" y="-350"/><use xlink:href="#L1_209" x="0" y="-350"/><use xlink:href="#L1_209" x="350" y="-350"/><use xlink:href="#L1_209" x="-350" y="0"/><use xlink:href="#L1_209" x="0" y="0"/><use xlink:href="#L1_209" x="350" y="0"/><use xlink:href="#L1_209" x="-350" y="350"/><use xlink:href="#L1_209" x="0" y="350"/><use xlink:href="#L1_209" x="350" y="350"/></pattern><rect x="0" y="0" width="100%" height="100%" fill="url(#pattern_L1_209)"/></g><g fi:class="KUsePattern" opacity="0.3"><pattern id="pattern_L1_210" width="350" height="350" patternUnits="userSpaceOnUse"><use xlink:href="#L1_210" x="-350" y="-350"/><use xlink:href="#L1_210" x="0" y="-350"/><use xlink:href="#L1_210" x="350" y="-350"/><use xlink:href="#L1_210" x="-350" y="0"/><use xlink:href="#L1_210" x="0" y="0"/><use xlink:href="#L1_210" x="350" y="0"/><use xlink:href="#L1_210" x="-350" y="350"/><use xlink:href="#L1_210" x="0" y="350"/><use xlink:href="#L1_210" x="350" y="350"/></pattern><rect x="0" y="0" width="100%" height="100%" fill="url(#pattern_L1_210)"/></g><g fi:class="KUsePattern" opacity="0.31"><pattern id="pattern_L1_211" width="350" height="350" patternUnits="userSpaceOnUse"><use xlink:href="#L1_211" x="-350" y="-350"/><use xlink:href="#L1_211" x="0" y="-350"/><use xlink:href="#L1_211" x="350" y="-350"/><use xlink:href="#L1_211" x="-350" y="0"/><use xlink:href="#L1_211" x="0" y="0"/><use xlink:href="#L1_211" x="350" y="0"/><use xlink:href="#L1_211" x="-350" y="350"/><use xlink:href="#L1_211" x="0" y="350"/><use xlink:href="#L1_211" x="350" y="350"/></pattern><rect x="0" y="0" width="100%" height="100%" fill="url(#pattern_L1_211)"/></g><g fi:class="KUsePattern" opacity="0.3"><pattern id="pattern_L1_212" width="350" height="350" patternUnits="userSpaceOnUse"><use xlink:href="#L1_212" x="-350" y="-350"/><use xlink:href="#L1_212" x="0" y="-350"/><use xlink:href="#L1_212" x="350" y="-350"/><use xlink:href="#L1_212" x="-350" y="0"/><use xlink:href="#L1_212" x="0" y="0"/><use xlink:href="#L1_212" x="350" y="0"/><use xlink:href="#L1_212" x="-350" y="350"/><use xlink:href="#L1_212" x="0" y="350"/><use xlink:href="#L1_212" x="350" y="350"/></pattern><rect x="0" y="0" width="100%" height="100%" fill="url(#pattern_L1_212)"/></g><g fi:class="KUsePattern" opacity="0.3"><pattern id="pattern_L1_213" width="350" height="350" patternUnits="userSpaceOnUse"><use xlink:href="#L1_213" x="-350" y="-350"/><use xlink:href="#L1_213" x="0" y="-350"/><use xlink:href="#L1_213" x="350" y="-350"/><use xlink:href="#L1_213" x="-350" y="0"/><use xlink:href="#L1_213" x="0" y="0"/><use xlink:href="#L1_213" x="350" y="0"/><use xlink:href="#L1_213" x="-350" y="350"/><use xlink:href="#L1_213" x="0" y="350"/><use xlink:href="#L1_213" x="350" y="350"/></pattern><rect x="0" y="0" width="100%" height="100%" fill="url(#pattern_L1_213)"/></g><g fi:class="KUsePattern" opacity="0.3"><pattern id="pattern_L1_214" width="350" height="350" patternUnits="userSpaceOnUse"><use xlink:href="#L1_214" x="-350" y="-350"/><use xlink:href="#L1_214" x="0" y="-350"/><use xlink:href="#L1_214" x="350" y="-350"/><use xlink:href="#L1_214" x="-350" y="0"/><use xlink:href="#L1_214" x="0" y="0"/><use xlink:href="#L1_214" x="350" y="0"/><use xlink:href="#L1_214" x="-350" y="350"/><use xlink:href="#L1_214" x="0" y="350"/><use xlink:href="#L1_214" x="350" y="350"/></pattern><rect x="0" y="0" width="100%" height="100%" fill="url(#pattern_L1_214)"/></g></svg>