<svg preserveAspectRatio="xMidYMid meet" data-bbox="0.09 0 483.41 423.1" viewBox="0 0 483.49 423.09" xmlns:xlink="http://www.w3.org/1999/xlink" xmlns="http://www.w3.org/2000/svg" data-type="ugc" role="img"><g><defs><linearGradient xlink:href="#a" id="e1e5af6d-d7f1-4769-9988-412d3d883645" x1="389.71" y1="386.19" x2="388.52" y2="388.32"><stop offset="0" stop-color="#ffffff"/><stop offset=".11" stop-color="#d4d4d4"/><stop offset=".3" stop-color="#959595"/><stop offset=".47" stop-color="#606060"/><stop offset=".64" stop-color="#363636"/><stop offset=".78" stop-color="#191919"/><stop offset=".91" stop-color="#060606"/><stop offset="1"/></linearGradient><linearGradient id="d41a08f7-ccbc-4e85-ba50-bd4df6760c12" x1="397.33" x2="398.52" xlink:href="#e1e5af6d-d7f1-4769-9988-412d3d883645"/><linearGradient xlink:href="#e1e5af6d-d7f1-4769-9988-412d3d883645" id="c0d170b5-5074-4602-b72f-3ab1eb5449c1" x1="187.247" y1="266.986" x2="325.38" y2="502.648"><stop offset="0" stop-color="#7806c7"/><stop offset=".49" stop-color="#750ac8"/><stop offset="1" stop-color="#208afa"/></linearGradient><linearGradient id="b894c0e3-b16d-485f-a984-f73152758cba" x1="263.202" y1="256.823" x2="393.725" y2="479.494" xlink:href="#c0d170b5-5074-4602-b72f-3ab1eb5449c1"/><linearGradient id="8d113b1f-e232-4d62-aef5-91c5231fa717" x1="310.979" y1="194.236" x2="449.172" y2="430.026" xlink:href="#c0d170b5-5074-4602-b72f-3ab1eb5449c1"/><linearGradient id="438103a8-c601-4876-bd03-8a1d03c2211c" x1="322.148" y1="214.306" x2="457.154" y2="444.654" xlink:href="#c0d170b5-5074-4602-b72f-3ab1eb5449c1"/><linearGradient id="4ae5d917-1ace-4867-888d-f434649b91f4" x1="312.063" y1="193.618" x2="450.196" y2="429.28" xlink:href="#c0d170b5-5074-4602-b72f-3ab1eb5449c1"/><linearGradient id="4a642885-6a73-43a0-b546-15b281342d98" x1="256.748" y1="251.865" x2="387.261" y2="474.544" xlink:href="#c0d170b5-5074-4602-b72f-3ab1eb5449c1"/><linearGradient id="ea2ed6d5-1bc2-49ce-bfb8-27425bdf8796" x1="188.271" y1="266.235" x2="326.472" y2="502.04" xlink:href="#c0d170b5-5074-4602-b72f-3ab1eb5449c1"/><linearGradient id="8ec07d97-05b0-448c-b0e8-38372a83c0c4" x1="193.317" y1="286.722" x2="328.314" y2="517.055" xlink:href="#c0d170b5-5074-4602-b72f-3ab1eb5449c1"/><linearGradient id="e6e194e1-54a3-4d29-9acf-94fbdcd8a2ff" x1="120.243" y1="185.793" x2="250.756" y2="408.472" xlink:href="#c0d170b5-5074-4602-b72f-3ab1eb5449c1"/><linearGradient id="b2fc41f5-6f89-4bef-a4e2-0db7b3dc6ab3" x1="709.992" y1="451.227" x2="43.236" y2="-87.72" xlink:href="#c0d170b5-5074-4602-b72f-3ab1eb5449c1"/><linearGradient xlink:href="#e1e5af6d-d7f1-4769-9988-412d3d883645" id="4bdbbbfa-2a68-471c-b18c-42158401c678" x1="224.149" y1="366.066" x2="223.035" y2="366.304"><stop offset=".18" stop-color="#228cff"/><stop offset="1" stop-color="#2270c5"/></linearGradient><linearGradient id="586e32bb-05d6-43e3-9a73-7e0f45f99e79" x1="231.674" y1="361.742" x2="230.561" y2="361.979" xlink:href="#4bdbbbfa-2a68-471c-b18c-42158401c678"/><linearGradient xlink:href="#e1e5af6d-d7f1-4769-9988-412d3d883645" id="07f07987-f26c-42c4-b3bd-928816c05a7e" x1="231.744" y1="360.78" x2="224.279" y2="359.392"><stop offset="0" stop-color="#2b63b6"/><stop offset="1" stop-color="#3e3a91"/></linearGradient><linearGradient xlink:href="#e1e5af6d-d7f1-4769-9988-412d3d883645" id="953824c0-c410-4291-8774-584c753113d4" x1="225.615" y1="354.048" x2="213.556" y2="351.808"><stop offset="0" stop-color="#00dfff"/><stop offset=".65" stop-color="#00baff"/><stop offset="1" stop-color="#00acff"/></linearGradient><linearGradient xlink:href="#e1e5af6d-d7f1-4769-9988-412d3d883645" id="9e3763b8-64f4-4471-8431-b86a4a75dba7" x1="222.37" y1="360.132" x2="214.618" y2="358.697"><stop offset="0" stop-color="#3491ff"/><stop offset="1" stop-color="#5f7aff"/></linearGradient><linearGradient id="e723dd9b-2405-4fa0-8c2a-475642713596" x1="218.106" y1="357.432" x2="212.773" y2="356.443" xlink:href="#9e3763b8-64f4-4471-8431-b86a4a75dba7"/><linearGradient id="111cfda9-5438-4ab9-97a8-0d48805be0d5" x1="233.897" y1="357.932" x2="217.471" y2="354.886" xlink:href="#953824c0-c410-4291-8774-584c753113d4"/><linearGradient id="d2d92f12-9725-4159-9139-c4eed5f5c547" x1="230.269" y1="346.812" x2="214.966" y2="343.978" xlink:href="#07f07987-f26c-42c4-b3bd-928816c05a7e"/><linearGradient xlink:href="#e1e5af6d-d7f1-4769-9988-412d3d883645" id="41dd4e8e-c0f7-4760-b20c-2951811c2920" x1="234.58" y1="367.42" x2="221.33" y2="363.79"><stop offset="0" stop-color="#00adff"/><stop offset="1" stop-color="#5f8bff"/></linearGradient><linearGradient xlink:href="#e1e5af6d-d7f1-4769-9988-412d3d883645" id="fb920a92-dd29-477b-8d85-44b1270f46a5" x1="224.127" y1="341.564" x2="234.193" y2="343.569"><stop offset="0" stop-color="#2270c5"/><stop offset=".34" stop-color="#227ada"/><stop offset="1" stop-color="#228cff"/></linearGradient><linearGradient id="12586a20-6395-45ff-9880-80725336ef6b" x1="221.969" y1="358.97" x2="219.838" y2="334.043" xlink:href="#4bdbbbfa-2a68-471c-b18c-42158401c678"/><linearGradient id="931da793-e71e-4b88-903e-b44f6503a74a" x1="228.038" y1="368.293" x2="226.924" y2="368.531" xlink:href="#4bdbbbfa-2a68-471c-b18c-42158401c678"/><linearGradient id="c66381bd-fae3-4966-bada-b934c581f590" x1="235.554" y1="363.973" x2="234.441" y2="364.211" xlink:href="#4bdbbbfa-2a68-471c-b18c-42158401c678"/><linearGradient id="01ebd134-9a21-4688-91b6-7a7932f1f9b0" x1="235.624" y1="363.012" x2="228.159" y2="361.624" xlink:href="#07f07987-f26c-42c4-b3bd-928816c05a7e"/><filter id="b731a75e-df78-472f-b1be-862b04819372" x="384.76" y="383.27" width="8.76" height="7.87" color-interpolation-filters="sRGB"><feFlood flood-color="#ffffff"/><feBlend in="SourceGraphic"/></filter><mask id="7c700390-4d61-4278-9fb5-1e7311b180fd" x="378.24" y="365.72" width="8.76" height="7.87" maskUnits="userSpaceOnUse"><path filter="url(#b731a75e-df78-472f-b1be-862b04819372)" transform="translate(-6.51 -17.55)" d="M384.75 386.08l8.77 5.06v-2.8l-8.77-5.06v2.8z" fill="url(#e1e5af6d-d7f1-4769-9988-412d3d883645)" style="mix-blend-mode:multiply"/></mask><linearGradient xlink:href="#e1e5af6d-d7f1-4769-9988-412d3d883645" id="68bdaf4a-0aaf-4c84-bead-f638d4638f57" x1="383.2" y1="368.63" x2="382" y2="370.77"><stop offset="0" stop-color="#e6e7e8"/><stop offset="1" stop-color="#e6e7e8"/></linearGradient><filter id="2657ea92-09fe-4775-9de9-d583582f0cdf" x="393.52" y="383.27" width="8.76" height="7.87" color-interpolation-filters="sRGB"><feFlood flood-color="#ffffff"/><feBlend in="SourceGraphic"/></filter><mask id="98d59734-7912-4857-ad1d-872448be76a7" x="387.01" y="365.72" width="8.76" height="7.87" maskUnits="userSpaceOnUse"><path filter="url(#2657ea92-09fe-4775-9de9-d583582f0cdf)" transform="translate(-6.51 -17.55)" d="M402.28 386.08l-8.76 5.06v-2.8l8.76-5.06v2.8z" fill="url(#d41a08f7-ccbc-4e85-ba50-bd4df6760c12)" style="mix-blend-mode:multiply"/></mask><linearGradient xlink:href="#e1e5af6d-d7f1-4769-9988-412d3d883645" id="065504c9-5f1c-45bc-99f7-6097b6519a62" x1="390.82" y1="368.64" x2="392.01" y2="370.77"><stop offset="0" stop-color="#d0d2d3"/><stop offset=".55" stop-color="#e0e1e2"/><stop offset="1" stop-color="#e6e7e8"/></linearGradient><linearGradient id="99363d5d-4080-43a7-b818-4afe6c103fea" x1="287.966" y1="331.399" x2="230.434" y2="432.87" xlink:href="#c0d170b5-5074-4602-b72f-3ab1eb5449c1"/><linearGradient xlink:href="#e1e5af6d-d7f1-4769-9988-412d3d883645" id="616365da-06dc-4bee-89c4-8a97db68c8a4" x1="283.91" y1="258" x2="283.91" y2="62.52"><stop offset="0" stop-color="#6c20b1" stop-opacity="0"/><stop offset="1" stop-color="#ffffff"/></linearGradient><linearGradient xlink:href="#e1e5af6d-d7f1-4769-9988-412d3d883645" id="7f8a7474-8bd8-42cc-80b9-9b26bd71dcc8" x1="302.84" y1="212.78" x2="302.84" y2="129.95"><stop offset="0" stop-color="#003de6"/><stop offset="1" stop-color="#00b4f7"/></linearGradient><linearGradient id="a68de48f-23d6-438e-80da-f4fb5c4549b8" x1="274.28" y1="262.13" x2="274.28" y2="66.65" xlink:href="#616365da-06dc-4bee-89c4-8a97db68c8a4"/><linearGradient id="94dc195e-30cb-4c68-ac67-63c05ae07001" x1="284.22" y1="233.26" x2="284.22" y2="150.43" xlink:href="#7f8a7474-8bd8-42cc-80b9-9b26bd71dcc8"/><clipPath id="fbc9cc1a-6e3b-4fb5-bfad-84e93c5e9126" transform="translate(-6.51 -17.55)"><path d="M179.65 54.1l-1 .6a.56.56 0 0 1 .58 0l1-.6a.59.59 0 0 0-.58-.01z" fill="#d7e7f7"/></clipPath><clipPath id="c4239094-661d-4d7f-b0c5-e17205505661" transform="translate(-6.51 -17.55)"><path d="M196.5 77.64l1-.6a.56.56 0 0 0 .24-.52l-1 .6a.58.58 0 0 1-.24.53z" fill="#d7e7f7"/></clipPath><clipPath id="cd260889-465c-482c-893a-bfdbce1c8806" transform="translate(-6.51 -17.55)"><path d="M196.78 65.85l1-.6a1.81 1.81 0 0 0-.81-1.41l-1 .6a1.79 1.79 0 0 1 .81 1.41z" fill="#d7e7f7"/></clipPath><linearGradient xlink:href="#e1e5af6d-d7f1-4769-9988-412d3d883645" id="0b2a62c0-3e21-46be-be89-2c15301f672f" x1="32.76" y1="339.77" x2="96.41" y2="246.64"><stop offset=".01" stop-color="#ffffff"/><stop offset="1"/></linearGradient><path d="M213.8 350.5l3.58 2.04 8.3-4.8v-4.1l-11.9 6.87z" id="36daa460-8fe4-487b-892b-e871ff040bd5"/><path d="M314.23 175.6l-.01 2.8-35.87-20.7.01-2.8 35.87 20.7z" id="2d5da576-a820-4772-b268-dc135bea61b5"/><path d="M236.38 86.58l-.34 120.38 76.13 43.95.34-120.37-76.13-43.96z" id="f7aeb88e-1013-4381-a9eb-ca189243eb5c"/><path d="M285.94 184.33v2.8l-16.5-9.53.01-2.8 16.5 9.53z" id="53d77303-cc62-46aa-b44a-cb55a9b5fff6"/><path d="M238.5 129.82a2.53 2.53 0 0 1 1.14 2v6c0 .72-.5 1-1.15.64l-5.2-3a2.5 2.5 0 0 1-1.14-2v-6c0-.72.5-1 1.15-.65z" id="d2ec8b47-133c-4178-a3db-f4a6dd65bd0c"/><path d="M190 60.1l1-.6a.56.56 0 0 0 .24-.52l-1 .6a.58.58 0 0 1-.24.53z" id="a90ced49-9fa7-4ab0-b2aa-ad1dacb9cee6"/><path d="M190.27 48.3l1-.6a1.81 1.81 0 0 0-.81-1.41l-1 .6a1.79 1.79 0 0 1 .81 1.41z" id="fce9f232-5b27-4df7-b2d1-b951c2726ea9"/><path d="M52.4 252.5l-.96-.55-3.5 2.04.96.55 3.5-2.04" id="df9cf7ee-0d8f-43bc-9293-fec54afa22ac"/><path d="M34.47 262.93l-.95-.55-3.5 2.03.95.55 3.5-2.03" id="b3b52ec8-6758-4d36-8572-1ec7fd9c8f3a"/><path d="M25.5 268.13l-.95-.55-3.5 2.04.95.55 3.5-2.04" id="2e4cbc06-4ad3-4eb9-9332-9e90bcf19006"/></defs><path d="M320.67 423.1l-3.4-1.97 1.14-.66 2.28 1.32 2.27-1.32 1.14.66-3.42 1.97z" fill="url(#c0d170b5-5074-4602-b72f-3ab1eb5449c1)"/><path fill="url(#b894c0e3-b16d-485f-a984-f73152758cba)" d="M336.37 435.34l-1.14-.65 5.77-3.33 1.14.65zm11.53-6.66l-1.13-.65 5.76-3.33 1.14.65zm11.54-6.68l-1.14-.65 5.77-3.34 1.14.66zm11.56-6.64l-1.14-.66 5.77-3.33 1.14.66zm11.53-6.66l-1.13-.66 5.76-3.33 1.14.66zm11.52-6.7l-1.14-.66 5.77-3.33 1.14.66zm11.54-6.66l-1.14-.66 5.77-3.33 1.13.66zm11.53-6.66l-1.14-.66 5.77-3.33 1.14.66zm11.54-6.66l-1.14-.66 5.77-3.33 1.14.66zm11.54-6.66l-1.14-.66 5.76-3.33 1.14.66z" transform="translate(-6.51 -17.55)"/><path d="M445.22 351.2l-1.14-.66 2.28-1.32-2.28-1.3 1.15-.66 3.4 1.97-3.42 1.98z" fill="url(#8d113b1f-e232-4d62-aef5-91c5231fa717)"/><path fill="url(#438103a8-c601-4876-bd03-8a1d03c2211c)" d="M445 362.2l-5.6-3.24 1.14-.66 5.6 3.25zm-11.2-6.48l-5.6-3.25 1.15-.65 5.6 3.24zm-11.2-6.5L417 346l1.14-.66 5.6 3.24zm-11.2-6.5l-5.6-3.24 1.14-.66 5.6 3.25zm-11.2-6.48l-5.6-3.25 1.14-.65 5.6 3.24zm-11.18-6.5l-5.6-3.24 1.14-.66 5.6 3.24zm-11.2-6.5l-5.6-3.24 1.14-.66 5.6 3.25zm-11.2-6.48l-5.6-3.25 1.15-.65 5.6 3.24zm-11.2-6.5l-5.6-3.25 1.14-.65 5.6 3.24zm-11.2-6.5l-5.6-3.24 1.15-.66 5.6 3.24zm-11.2-6.5l-5.6-3.24 1.14-.66 5.6 3.25z" transform="translate(-6.51 -17.55)"/><path d="M310.68 273.3l-1.14-.66 3.4-1.97 3.42 1.98-1.14.65-2.28-1.3-2.27 1.3z" fill="url(#4ae5d917-1ace-4867-888d-f434649b91f4)"/><path fill="url(#4a642885-6a73-43a0-b546-15b281342d98)" d="M201.82 357.45l-1.13-.66 5.76-3.33 1.14.66zm11.54-6.66l-1.14-.66 5.78-3.33 1.14.66zm11.54-6.66l-1.14-.66 5.77-3.33 1.14.66zm11.53-6.66l-1.14-.66 5.77-3.33 1.14.66zM248 330.8l-1.14-.66 5.77-3.33 1.14.66zm11.54-6.66l-1.14-.66 5.77-3.33 1.13.66zM271 317.5l-1.14-.66 5.77-3.33 1.14.66zm11.54-6.66l-1.14-.66 5.77-3.33 1.14.66zm11.54-6.66l-1.14-.66 5.77-3.33 1.13.66zm11.53-6.66l-1.14-.66 5.77-3.33 1.14.66z" transform="translate(-6.51 -17.55)"/><path d="M188.4 346.52l-3.4-1.98 3.42-1.97 1.13.66-2.27 1.3 2.27 1.32-1.14.66z" fill="url(#ea2ed6d5-1bc2-49ce-bfb8-27425bdf8796)"/><path fill="url(#8ec07d97-05b0-448c-b0e8-38372a83c0c4)" d="M318.17 435.43l-5.6-3.25 1.14-.65 5.6 3.24zm-11.17-6.5l-5.6-3.24 1.14-.66 5.6 3.24zm-11.2-6.5l-5.6-3.24 1.14-.66 5.6 3.25zM284.55 416l-5.6-3.25 1.14-.65 5.6 3.24zm-11.2-6.5l-5.6-3.25 1.15-.65 5.6 3.24zm-11.2-6.5l-5.6-3.24 1.14-.66 5.6 3.25zm-11.2-6.5l-5.6-3.24 1.15-.66 5.6 3.25zm-11.2-6.5l-5.6-3.25 1.14-.65 5.6 3.24zm-11.2-6.5l-5.6-3.24 1.14-.66 5.6 3.24zm-11.2-6.5l-5.6-3.24 1.14-.66 5.6 3.25zm-11.2-6.48l-5.6-3.25 1.14-.65 5.6 3.24z" transform="translate(-6.51 -17.55)"/><path fill="url(#e6e194e1-54a3-4d29-9acf-94fbdcd8a2ff)" d="M65.9 291.35l-1.14-.66 5.77-3.33 1.14.66zm11.53-6.66l-1.13-.7 5.76-3.33 1.14.66zM89 278l-1.14-.66L93.6 274l1.14.66zm11.54-6.66l-1.14-.66 5.77-3.33 1.13.66zM112 264.7l-1.14-.66 5.77-3.33 1.14.66zm11.54-6.66l-1.14-.66 5.77-3.33 1.14.66zm11.54-6.66l-1.14-.66 5.76-3.33 1.14.66zm11.53-6.66l-1.14-.66 5.77-3.33 1.14.65zm11.54-6.67l-1.14-.65 5.77-3.33 1.14.65zm11.53-6.66l-1.13-.65 5.76-3.33 1.14.65z" transform="translate(-6.51 -17.55)"/><path d="M458.94 271.52a3.23 3.23 0 0 0-1.91-2.95l-211.9-123.22c-2.86-1.66-7.85-1.46-11.16.43L79.62 234.3c-1.8 1-2.72 2.35-2.73 3.6v3.93a3.26 3.26 0 0 0 1.91 2.91l211.86 123.2c2.85 1.66 7.84 1.47 11.15-.43L456.2 279c1.82-1 2.75-2.38 2.74-3.66v-3.85z" opacity=".15"/><path fill="#002069" d="M483.5 227.88l-4.58 2.15L242.17 92.38c-3.22-1.87-8.86-1.65-12.6.48l-20.7 11.87 250.8 143.5 20.7-11.87c2.06-1.17 3.1-2.7 3.1-4.13z"/><path fill="#0054ad" d="M444.43 241.68l-235.54-137L58.74 190.8l-6.44-.85v4.43a3.67 3.67 0 0 0 2.19 3.29l239.13 139c3.22 1.87 8.86 1.66 12.6-.48l153.52-88v-4.54z"/><path d="M293.6 332.2L54.5 193.15c-3.22-1.87-2.8-5.13.93-7.27l153.52-88L459.7 243.7l-153.52 88c-3.7 2.15-9.37 2.37-12.6.5z" fill="#ffffff"/><path fill="#002069" d="M93.2 215.67l-38.7-22.52c-3.22-1.87-2.8-5.13.93-7.27l153.52-88 47.1 27.38"/><path fill="url(#b2fc41f5-6f89-4bef-a4e2-0db7b3dc6ab3)" d="M248.7 103.08l239.13 139c3.22 1.87 2.8 5.12-.92 7.26l-20.7 11.86-250.8-145.78 20.7-11.86c3.74-2.14 9.37-2.35 12.6-.48z" transform="translate(-6.51 -17.55)"/><path d="M437.96 214.6a6.83 6.83 0 0 1-6.18 0c-1.7-1-1.7-2.58 0-3.56a6.83 6.83 0 0 1 6.18 0c1.7 1 1.7 2.58 0 3.56zm9.84 5.73a6.81 6.81 0 0 1-6.17 0c-1.7-1-1.7-2.58 0-3.56a6.81 6.81 0 0 1 6.17 0c1.68 1 1.68 2.58 0 3.56zm9.87 5.73a6.84 6.84 0 0 1-6.17 0c-1.7-1-1.7-2.6 0-3.57a6.81 6.81 0 0 1 6.17 0c1.7.96 1.7 2.6 0 3.57z" fill="#ffffff"/><path d="M339.4 410.07l21.36-12.1 9.37.03 14.5 8.34L361.78 423l-22.38-12.92zm-125.77-42.3l12.43-7.04 5.45.02 8.44 4.85-13.3 9.7-13.02-7.52z" opacity=".15"/><path fill="url(#4bdbbbfa-2a68-471c-b18c-42158401c678)" d="M223.28 367.75a1.37 1.37 0 0 1-.61 1.07c-.34.2-.62 0-.62-.36a1.38 1.38 0 0 1 .62-1.07c.33-.2.6-.04.6.36z" transform="translate(-6.51 -17.55)"/><path fill="url(#586e32bb-05d6-43e3-9a73-7e0f45f99e79)" d="M230.77 363.43a1.35 1.35 0 0 1-.62 1.06c-.34.2-.6 0-.6-.35a1.36 1.36 0 0 1 .61-1.07c.34-.2.62-.07.62.36z" transform="translate(-6.51 -17.55)"/><path fill="url(#07f07987-f26c-42c4-b3bd-928816c05a7e)" d="M230 363.9c0-.08-.8-8.25-3.58-6.66s-3.58 10.7-3.6 10.8a.31.31 0 0 1-.16.25c-.15.1-.15-.1-.15-.1 0-.4.84-9.55 3.9-11.3s3.87 6.45 3.9 6.8a.31.31 0 0 1-.16.28.1.1 0 0 1-.16-.06z" transform="translate(-6.51 -17.55)"/><path d="M223.7 360.78l-12.4 7.16 2-17.44 12.4-7.17-2 17.45z" fill="url(#953824c0-c410-4291-8774-584c753113d4)"/><path d="M219.4 372.63l-4.06-3.8v-17.15l2.03 1.15 2.03 19.8z" fill="url(#9e3763b8-64f4-4471-8431-b86a4a75dba7)"/><path d="M211.3 367.94l4.06.88v-17.15l-2.06-1.17-2 17.44z" fill="url(#e723dd9b-2405-4fa0-8c2a-475642713596)"/><path d="M231.8 365.46l-12.4 7.17-2.03-19.8 12.4-7.16 2.03 19.8z" fill="url(#111cfda9-5438-4ab9-97a8-0d48805be0d5)"/><path d="M225.7 343.33l-12.4 7.17 4.1 2.32 12.4-7.16-4.1-2.33z" fill="url(#d2d92f12-9725-4159-9139-c4eed5f5c547)"/><path d="M225.7 347.73l-8.3 4.8-3.58-2.04 11.9-6.87v-.3l-12.4 7.17 4.1 2.32 8.3-4.8v-.3z" fill="url(#d2d92f12-9725-4159-9139-c4eed5f5c547)"/><path fill="url(#41dd4e8e-c0f7-4760-b20c-2951811c2920)" d="M232.2 360.88l-12.4 7.17 4.1 2.33 8.3-4.8 4.1-2.36zm-8.3 9.2l-3.58-2 11.9-6.87 3.58 2-3.6 2.07z" transform="translate(-6.51 -17.55)"/><path d="M225.7 343.62v4.1l3.6-2.07-3.6-2.04z" fill="url(#fb920a92-dd29-477b-8d85-44b1270f46a5)"/><use fill="url(#d2d92f12-9725-4159-9139-c4eed5f5c547)" xlink:href="#36daa460-8fe4-487b-892b-e871ff040bd5"/><use fill="url(#12586a20-6395-45ff-9880-80725336ef6b)" xlink:href="#36daa460-8fe4-487b-892b-e871ff040bd5"/><path fill="url(#931da793-e71e-4b88-903e-b44f6503a74a)" d="M227.15 370a1.35 1.35 0 0 1-.62 1.07c-.34.2-.6 0-.6-.35a1.34 1.34 0 0 1 .61-1.07c.34-.2.62-.05.62.35z" transform="translate(-6.51 -17.55)"/><path fill="url(#c66381bd-fae3-4966-bada-b934c581f590)" d="M234.64 365.67a1.37 1.37 0 0 1-.62 1.07c-.34.2-.62 0-.62-.36a1.35 1.35 0 0 1 .62-1.06c.34-.2.62-.04.62.35z" transform="translate(-6.51 -17.55)"/><path fill="url(#01ebd134-9a21-4688-91b6-7a7932f1f9b0)" d="M233.86 366.14c0-.08-.8-8.26-3.58-6.66s-3.58 10.7-3.6 10.8a.3.3 0 0 1-.16.24c-.16.1-.16-.1-.16-.1 0-.4.85-9.54 3.9-11.3s3.86 6.46 3.9 6.8a.32.32 0 0 1-.16.28.1.1 0 0 1-.16-.06z" transform="translate(-6.51 -17.55)"/><path d="M378.6 386.65l18.38-10.5 10.12.01v-.01l9.15 5.3-20.65 11.8h-8.25l-8.76-6.57z" opacity=".15"/><path d="M378.24 389.1l8.77 5.06v-23.8l-8.77-5.06v23.8z" fill="#6c0ead"/><g mask="url(#7c700390-4d61-4278-9fb5-1e7311b180fd)"><path d="M378.24 368.53l8.77 5.06v-2.8l-8.77-5.06v2.8z" fill="url(#68bdaf4a-0aaf-4c84-bead-f638d4638f57)" style="mix-blend-mode:multiply"/></g><path d="M377.85 363.35l9.16 5.3 9.15-5.3-9.15-5.28-9.16 5.28z" fill="#6c0ead"/><path d="M395.77 389.1l-8.76 5.06v-23.37l8.76-5.06v23.37z" fill="#7806c7"/><path d="M377.85 363.35l9.16 5.3v2.42l-9.16-5.3v-2.42z" fill="#530c8c"/><g mask="url(#98d59734-7912-4857-ad1d-872448be76a7)"><path d="M395.77 368.53L387 373.6v-2.8l8.76-5.06v2.8z" fill="url(#065504c9-5f1c-45bc-99f7-6097b6519a62)" style="mix-blend-mode:multiply"/></g><path d="M396.16 363.35l-9.15 5.3v2.42l9.15-5.3v-2.42z" fill="#530c8c"/><path d="M258.05 415.2l50.75-30.67c1.7-1 1.5-2.7-.47-3.83l-25.6-14.78a7.38 7.38 0 0 0-6.63-.27l-52 30c-1.7 1-1.48 2.7.48 3.83l25.6 14.78a7.67 7.67 0 0 0 3.41.93l4.46.01z" opacity=".15"/><path fill="#0054ad" d="M257.04 411.75l52-30a2 2 0 0 0 1.15-1.73v-2.28l-27.22-14.6a7.38 7.38 0 0 0-6.63-.28l-53.15 29.3v2.38a2.71 2.71 0 0 0 1.62 2.16l25.6 14.76a7.38 7.38 0 0 0 6.63.3z"/><path d="M257.04 409.45l52-30c1.7-1 1.5-2.7-.47-3.83l-25.6-14.78a7.38 7.38 0 0 0-6.63-.28l-52 30c-1.7 1-1.48 2.7.48 3.82l25.6 14.78a7.35 7.35 0 0 0 6.62.29z" fill="#ffffff"/><path d="M234.45 399.96l58.14-33.57-8.82-5.1-58.14 33.57 8.82 5.1z" fill="url(#99363d5d-4080-43a7-b818-4afe6c103fea)"/><path d="M262.9 391.26l33.85-19.55-4.83-2.8-33.85 19.55 4.83 2.8z" fill="#4a92fe"/><path fill="#e6e7e8" style="mix-blend-mode:multiply" d="M257.6 404.86l6.4-3.7c1.83-1 1.6-2.9-.5-4.12a7.92 7.92 0 0 0-7.15-.3l-6.4 3.7c-1.83 1.06-1.6 2.9.52 4.13a7.92 7.92 0 0 0 7.15.28z"/><path d="M369.95 155.8l-.12.07z" fill="#0e7380"/><path d="M384.95 202.45a1.66 1.66 0 0 1 .76 1.32v8.1c0 .5-.34.7-.77.45L364.7 200.6a1.65 1.65 0 0 1-.76-1.32v-8.1c0-.5.34-.68.77-.44zm-42.97-22.58a1.94 1.94 0 0 1 .9 1.53v4.7c0 .56-.4.8-.9.5l-4.07-2.35a1.9 1.9 0 0 1-.89-1.53v-4.7c0-.56.4-.8.9-.5zm1.04-5.4v1.32l-8.6-4.96v-1.32l8.6 4.96zm11.28 2.78v1.3l-19.86-11.47v-1.3l19.86 11.47z" fill="#ebeeee"/><path d="M360.06 155.62h-.16z" fill="#0e7380"/><path d="M354.32 169.78v1.32l-19.86-11.46v-1.32l19.86 11.46zm10.78-6.22v2.2l-12.9-7.45v-2.2l12.92 7.46z" fill="#ebeeee"/><path d="M355.43 152.64l-.3-.25.32.27zm-1.5-1.32l-.26-.25z" fill="#0e7380"/><path d="M372.67 172.76l-.01 2.2-28.06-16.2v-2.2l28.07 16.2zm12.33 16.7a1.69 1.69 0 0 1 .76 1.32v8.12c0 .48-.33.68-.76.43l-20.27-11.67a1.71 1.71 0 0 1-.76-1.32v-8.12c0-.5.34-.68.76-.43z" fill="#ebeeee"/><path d="M357.5 154.16l.27.17-.17-.1zm2.4 1.38h.02z" fill="#0e7380"/><path d="M359.9 155.54h.08z" fill="#0e7380"/><path d="M364.07 138.6a11.28 11.28 0 0 1-.57 2 6.8 6.8 0 0 1 .57-2z" fill="#89543c"/><path d="M347.55 143.14a2.53 2.53 0 0 1-.13-.22 2.53 2.53 0 0 0 .13.22z" fill="#0e7380"/><path d="M334.45 163.37l12.8 7.38v-1.32l-12.8-7.38v1.32z" fill="#ebeeee"/><path d="M348.37 144.52l-.13-.2z" fill="#0e7380"/><path d="M348.5 144.72l-.13-.2zm7.72 8.55l-.3-.24zm5.58 3.05v-.01.01zm.3.13l-.3-.1zm2.13.45h-.2zm.4.05h-.25zm2.13-.03h-.14zm.67-.12h-.12zm.15-.02h-.15zm.13-.04h-.13zm.15-.04h-.15zm.47-.14l-.16.06zm.28-.1l-.12.05z" fill="#0e7380"/><path d="M295.88 93.1l-.25 90.33 57.12 32.98.26-90.33-57.13-32.98z" fill="#f2f2f2" opacity=".5"/><path d="M368.75 156.45h-.14zm.12-.1l-.12.06z" fill="#0e7380"/><path d="M369 156.3l-.14.06a.84.84 0 0 0 .14-.06zm.13-.06l-.12.05zm.22-.1l-.22.1zm.15-.06l-.1.06zm.2-.14l-.12.07zM220.5 142.1l-.12.07z" fill="#0e7380"/><path d="M232.74 185a1.69 1.69 0 0 1 .76 1.32v8.1c0 .5-.34.7-.77.44L212.5 183.2a1.71 1.71 0 0 1-.76-1.33v-8.1c0-.5.34-.68.76-.43z" fill="#ebeeee"/><path d="M210.64 141.93h-.06l-.1-.05zm-4.64-2.97l-.3-.25.32.27zm-1.5-1.32l-.26-.25z" fill="#0e7380"/><path d="M232.78 172.06a1.66 1.66 0 0 1 .76 1.31v8.12c0 .48-.34.68-.76.44l-20.3-11.7a1.67 1.67 0 0 1-.76-1.31v-8.12c0-.5.34-.68.77-.44z" fill="#ebeeee"/><path d="M208.06 140.45l.27.17-.17-.1zm2.44 1.4l.1.05h-.08z" fill="#0e7380"/><path d="M210.5 141.86h.08z" fill="#0e7380"/><path d="M214.66 124.93a12.17 12.17 0 0 1-.58 2 6.5 6.5 0 0 1 .58-2z" fill="#89543c"/><path d="M201.35 134.2l-.13-.16zm.55.67l-.24-.3zm4.9 4.73l-.3-.24zm5.58 3.04h-.01l-.01-.01.02.01z" fill="#0e7380"/><path d="M212.68 142.74l-.3-.1z" fill="#0e7380"/><path d="M209.35 133.84l.02.03-.12.07.1-.1z" fill="#7d7d7e"/><path d="M214.8 143.22h-.2zm.4.04h-.25zm2.13-.02h-.14zm.67-.1h-.12zm.16-.03H218zm.14-.04h-.13zm.13-.03h-.14zm.47-.15l-.16.06zm.3-.1h-.12z" fill="#0e7380"/><path d="M219.33 142.73l-.14.05zm.17-.06l-.12.06zm.1-.07l-.14.06zm.1-.04h-.12zm.23-.1l-.22.1zm.1-.05l-.1.06zm.26-.15l-.12.07z" fill="#0e7380"/><path d="M159.03 0l-.26 90.33 57.13 32.98.25-90.33L159.03 0z" fill="#f2f2f2" opacity=".5"/><path d="M205.08 111.12a1.68 1.68 0 0 1 .79 1.36v8.4c0 .5-.35.72-.8.46l-21-12.1a1.73 1.73 0 0 1-.79-1.37v-8.4c0-.5.35-.7.8-.45zm.04-12.48a1.74 1.74 0 0 1 .79 1.37v8.4c0 .5-.35.7-.8.46l-20.95-12.1a1.76 1.76 0 0 1-.79-1.37V87c0-.5.35-.7.8-.45zm-43.28-9.74a2 2 0 0 1 .89 1.54v4.68c0 .56-.4.8-.9.5l-4.07-2.35a2 2 0 0 1-.89-1.54v-4.68c0-.56.4-.8.9-.5zm3.83-1.66v1.32l-8.6-4.96v-1.32l8.6 4.96zm11.28 2.78v1.3L157.1 79.86v-1.3l19.86 11.47zm.02-7.47v1.32L157.1 72.4v-1.3l19.86 11.46zm18.35 2.98l-.01 2.2-28.06-16.2v-2.2l28.07 16.2z" fill="#ebeeee"/><path d="M170.2 55.9a2.53 2.53 0 0 1-.13-.22 2.53 2.53 0 0 0 .13.22z" fill="#0e7380"/><path d="M151.6 2.28l-.27 94.2 59.58 34.4.26-94.2zm29.75 29.55c8.6 5 15.56 17 15.53 26.9s-6.83 13.73-15.25 9.12l-.38-.2-.86-.53-.17-.1-.08-.05c-8.08-5.32-14.44-16.74-14.4-26.2 0-9.88 7-13.88 15.62-8.9m14 53.7v2.2l-28.1-16.2v-2.2l28.07 16.2m-20.48-14.46v-2.2l12.92 7.46v2.2l-12.9-7.46m-17.74 3.75l12.8 7.38v1.32l-12.8-7.38v-1.32m5.62 20.3c0 .56-.4.8-.9.5l-4.07-2.35a2 2 0 0 1-.89-1.54v-4.68c0-.56.4-.8.9-.5l4.07 2.34a2 2 0 0 1 .89 1.54v4.68m3-6.57l-8.6-5V82.3l8.6 5v1.32M177 91.37l-19.92-11.5v-1.32l19.86 11.47v1.3m0-7.46L157.1 72.45V71.1l19.86 11.47v1.3m28.58 37c0 .5-.34.7-.77.44l-20.24-11.68a1.69 1.69 0 0 1-.76-1.32v-8.12c0-.5.34-.68.76-.43l20.27 11.7a1.69 1.69 0 0 1 .76 1.32v8.1m0-12.94c0 .48-.34.68-.76.44L184.57 96.7a1.68 1.68 0 0 1-.76-1.32v-8.12c0-.5.34-.68.77-.44l20.23 11.7a1.64 1.64 0 0 1 .77 1.31v8.12" fill="#ffffff"/><path d="M157.1 76.14l12.8 7.38V82.2l-12.8-7.38v1.32z" fill="#ebeeee"/><path d="M171.02 57.3l-.13-.2zm.13.15l-.13-.2zm2.15 3.05l-.16-.2z" fill="#0e7380"/><path d="M176.5 55.13l-2.1.15a31.63 31.63 0 0 0-4.47.16 31.17 31.17 0 0 1-4.19-14.7c0-9.88 7-13.88 15.62-8.9s15.56 17 15.53 26.9c0 4.75-1.63 8.13-4.27 9.82-1.82-2.4-5.83-6.87-6-7.1a3.47 3.47 0 0 1-.25-.29l.14-.14-.9-1.63-.43.06-.3-1.35a2.1 2.1 0 0 0 1.32-.66 11.34 11.34 0 0 0 .67-2.65c.18 0 .4-.1.65-.5.57-.9.92-3.14.3-3.5a40.64 40.64 0 0 0 .69-5.32c-.1-1-2.7-7-4.93-9.12a5.12 5.12 0 0 0-1.05-.78c-2.46-1.42-6.3-1.47-7.48-.7-.06.06-1 1.26-1 2 0 .3.2 1.67.4 3.22v.82c0 .4.08.78.14 1.15s.12.92.2 1.47a1.55 1.55 0 0 0-.51-.51c-.62-.35-.3 2.26.28 3.83.3.82.54 1.22.74 1.34a29.08 29.08 0 0 0 .69 3.4 11.08 11.08 0 0 0 1.54 2.36l-.2.75z" fill="#ebeeee"/><path d="M186.32 61.15l.14-.14-.9-1.63-.43.06-.3-1.35a2.1 2.1 0 0 0 1.32-.66 11.34 11.34 0 0 0 .67-2.65c.18 0 .4-.1.65-.5.57-.9.92-3.14.3-3.5a40.64 40.64 0 0 0 .73-5.32c-.1-1-2.7-7-4.93-9.12a5.12 5.12 0 0 0-1.05-.78c-2.46-1.42-6.3-1.47-7.48-.7-.06.06-1 1.26-1 2 0 .3.2 1.67.4 3.22l.3 2.58v-.05a6.73 6.73 0 0 0 .09.93 1.55 1.55 0 0 0-.51-.51c-.62-.35-.3 2.26.28 3.83.3.82.54 1.22.74 1.34a23.65 23.65 0 0 0 .65 3.38 11.08 11.08 0 0 0 1.51 2.36l-.2.75-.73.46-.1.07 1.72 3.76-1.72-3.76.1-.07-2.1.15a31.63 31.63 0 0 0-4.47.16v.05l.1.2a2.53 2.53 0 0 0 .13.22l.1.2.13.24.12.2.33.55.13.2.26.4a2.14 2.14 0 0 0 .13.19 1.64 1.64 0 0 0 .14.22 3.62 3.62 0 0 0 .22.32l.14.2a2.43 2.43 0 0 0 .14.2l.13.18.14.2.13.17.15.2c0 .08.1.15.17.23l.23.3.13.18.16.2.13.16.16.2a2.09 2.09 0 0 0 .14.17l.24.3.18.2.16.2.14.16.16.18.15.16a1.45 1.45 0 0 0 .16.18l.16.18.26.27.17.2.17.16.15.16.17.17c.05 0 .1.1.16.16l.16.15.26.25.18.16.2.18a1.07 1.07 0 0 0 .16.14l.18.17.16.13.2.17.14.12.3.25-2.08-10.07 2.07 10.1.1.1.23.18.13.1.3.24.1.06.26.2.12.1.37.26.3.2.12.08.1.06.17.1h.08l.33.2.45.27.38.2.13.07.24.13.16.08.2.1.17.08h.16l.3.13.13.06.33.14h.1l.43.16.44.16 2.13-7.48zm-5.28-10.4l.12.07-.12-.07zm-1 6.4c.27.27.5.5.7.67l.17.2-.17-.2c-.14-.17-.38-.36-.65-.67zm.06 4.42l1 1.8zm1.22-1.1l.1-.1zm4.67-6.73a2 2 0 0 0 .16-.3 6.5 6.5 0 0 1 .58-2 12.17 12.17 0 0 1-.58 2 2 2 0 0 1-.16.3 1.07 1.07 0 0 1-.3.3 1.07 1.07 0 0 0 .3-.35z" fill="#ebeeee"/><path d="M186.57 61.45l-2.08 7.64.3.1h.13l.2.06h.15l.2.06h.14l.23.06h.1l.3.06h4.6l.16-.06h.43l.12-.06a.42.42 0 0 0 .14-.06h.12l.22-.1.1-.06.13-.07.36-.2c-1.85-2.67-5.86-7.13-6.08-7.35z" fill="#ebeeee"/><path d="M261.52 64.24l-.34 120.37 76.13 43.96.34-120.38-76.13-43.95z" fill="#e6e6e6" opacity=".5"/><path d="M246 82.46l-.34 120.37 76.14 43.95.34-120.37L246 82.46z" fill="url(#616365da-06dc-4bee-89c4-8a97db68c8a4)" style="mix-blend-mode:screen"/><path d="M310.75 153.92l-.15.1z" fill="#0e7380"/><path d="M326.35 208.73a2.08 2.08 0 0 1 1 1.68v10.37c0 .62-.44.88-1 .57l-25.86-14.9a2.12 2.12 0 0 1-1-1.7V194.4c0-.63.43-.88 1-.56z" fill="#c5c5c5"/><path d="M271.5 179.93a2.46 2.46 0 0 1 1.13 2v6c0 .7-.52 1-1.15.64l-5.2-3a2.53 2.53 0 0 1-1.14-2v-6c0-.72.5-1 1.15-.64z" fill="#1ce5ff"/><path d="M276.34 177.8v1.7l-10.98-6.34v-1.7l10.98 6.34zm14.4 3.54V183l-25.38-14.65.01-1.67 25.37 14.65z" fill="#ebeeee"/><path d="M298.1 153.7h-.07l-.14-.06z" fill="#0e7380"/><path d="M290.78 171.8l-.01 1.7-25.37-14.65v-1.7l25.38 14.65zm13.78-7.96v2.8l-16.5-9.53.01-2.8 16.5 9.52z" fill="#ebeeee"/><path d="M292.2 149.9l-.4-.32.4.33z" fill="#0e7380"/><path d="M289.54 137.02l2.65 12.88-.4-.33-.18-.15-.25-.2-.2-.18-.23-.2-.2-.18-.25-.2-.23-.2-.32-.3-.2-.2-.24-.28-.2-.2-.2-.2-.2-.2a2.39 2.39 0 0 0-.22-.23l-.33-.35-.2-.23-.2-.23-.2-.2-.2-.24-.2-.2-.2-.24-.23-.27-.3-.37-.18-.2c-.06-.1-.13-.17-.2-.26l-.17-.2-.2-.25c-.05-.08-.1-.15-.17-.23l-.3-.38-.22-.3-.2-.26-.16-.22-.2-.27-.13-.22-.18-.25-.18-.26-.28-.42-.18-.28-.17-.25-.16-.25-.16-.26-.17-.27-.15-.24-.28-.46-.14-.24-.18-.3-.14-.25-.16-.3-.14-.24v-.07a39.79 39.79 0 0 1 5.71-.2l2 .1z" fill="#001030"/><path d="M290.26 148.2l-.32-.3z" fill="#0e7380"/><path d="M294.1 145.7l.74-.74 1.33 2.3-1.23 4.63-.12-.08-.16-.1-.4-.27-.12-.08-.35-.25-.15-.1-.33-.24-.1-.1-.4-.3-.16-.13-.3-.23-.14-.12-2.67-12.9s-.86 0-2.05-.07l2.7-.2-.14.08z" fill="#c5c5c5"/><use xlink:href="#2d5da576-a820-4772-b268-dc135bea61b5" fill="#ebeeee"/><path d="M296.34 143.48l.15-.1 1.62 3.5-1.3.74-.3-1.56-.32 1.2-1.33-2.3 1.5-1.5z" fill="#001030"/><path d="M326.4 192.2a2.12 2.12 0 0 1 1 1.68v10.38c0 .6-.43.87-1 .55l-25.9-14.93a2.15 2.15 0 0 1-1-1.68v-10.4c0-.62.44-.87 1-.55z" fill="#c5c5c5"/><path d="M288.05 121.92l.7 5.95h-.05c-.27-.15-.57-.66-.95-1.7-.72-2-1.14-5.35-.35-4.9a2.12 2.12 0 0 1 .66.65z" fill="#ff9d6f"/><path d="M294.82 151.83l.34.23a1.64 1.64 0 0 1-.22-.14z" fill="#0e7380"/><path d="M296.9 153.1l-.17-.1-.48-.27-.45-.27-.12-.07-.43-.27-.1-.06-.22-.15 1.55-5.82.32 1.55 1.2 6h-.1l-.2-.1-.27-.14-.2-.1z" fill="#001030"/><path d="M297.9 153.6l.14.06h-.1z" fill="#0e7380"/><path d="M297.9 153.6h.1z" fill="#0e7380"/><path d="M298.82 148.45l3.9-4 .32.4-2.72 9.76-.57-.2-.54-.2-.14-.06-.4-.17-.17-.08-.4-.18h-.1l-1.2-6 1.3-.74z" fill="#c5c5c5"/><path d="M301.2 142.26l-4.72.68-5.25-6.84-.1.07.27-1a34.63 34.63 0 0 0 4.29 5l.35.46.37-.05a9.81 9.81 0 0 0 4.44 0z" fill="#ff9d6f"/><path d="M287.62 118.6v-1.1l.4 3.3v-.07a8.85 8.85 0 0 0 .11 1.19l-.25-1.88-.26-1.45zm15.62 13.36a14.1 14.1 0 0 1-.73 2.55 8.76 8.76 0 0 1 .73-2.55z" fill="#89543c"/><path d="M294.83 119.12c2 2.38 7.65 7.7 8 8l.75.94-.1 3c0 .24-.1.55-.18.88a8.76 8.76 0 0 0-.73 2.55 4.23 4.23 0 0 1-.2.38c-.42.62-1.22.78-2.22.2a6.68 6.68 0 0 1-1.81-1.69 9.32 9.32 0 0 0-2-2.1c-.14-.08-.18-.06-.18-.06l-.15-.1a.58.58 0 0 0-.17-.14 3.3 3.3 0 0 0-2-.19 2.9 2.9 0 0 1-1.82-.4 5.49 5.49 0 0 1-2.2-2.76 33.21 33.21 0 0 1-1.08-5l.2-.7c.13-.24 2.42-4.88 2.75-7.94a24.5 24.5 0 0 0 3.15 5.12z" fill="#ff9d6f"/><path d="M299.2 112.75c2.83 2.76 6.2 10.34 6.3 11.66a53 53 0 0 1-.94 6.78l-.52.18-.64.24v-.53l.1-3-.75-.94c-.3-.28-6-5.6-8-8a24.5 24.5 0 0 1-3.16-5.07c-.33 3.06-2.62 7.7-2.75 7.94l-.2.7-.35 1.23c0-.07-.16-1.36-.38-3.1l-.4-3.3-.5-4.12c-.1-.94 1.15-2.47 1.22-2.55 1.5-1 6.42-.9 9.56.9a7.2 7.2 0 0 1 1.4.98z" fill="#1e1526"/><path d="M282.12 137.75l-.16-.3zm-.34-.6v.06zm.04.07v-.06z" fill="#0e7380"/><path fill="url(#7f8a7474-8bd8-42cc-80b9-9b26bd71dcc8)" d="M296.7 154.3l-2.7.2a39.79 39.79 0 0 0-5.71.2c-3.34-6-5.37-12.72-5.36-18.8 0-12.62 9-17.73 20-11.38s19.88 21.74 19.84 34.37c0 6.06-2.08 10.4-5.45 12.54-2.32-3.07-7.46-8.77-7.73-9.07l-.32-.37.17-.18-1.15-2.1-.56.08-.36-1.72a2.71 2.71 0 0 0 1.68-.85 15.19 15.19 0 0 0 .85-3.38c.24 0 .5-.14.83-.66.74-1.16 1.18-4 .38-4.46A53 53 0 0 0 312 142c-.1-1.32-3.47-8.9-6.3-11.66a7.2 7.2 0 0 0-1.34-1c-3.14-1.8-8.06-1.87-9.56-.9-.07.08-1.32 1.6-1.22 2.55 0 .38.26 2.14.5 4.12v1.05c0 .5.1 1 .18 1.47s.15 1.17.25 1.88a2.12 2.12 0 0 0-.65-.65c-.8-.46-.37 2.88.35 4.9.38 1 .68 1.56.95 1.7a37.68 37.68 0 0 0 .87 4.35 14.69 14.69 0 0 0 1.81 3l-.27 1z" transform="translate(-6.51 -17.55)"/><path d="M258.37 69.22l-.34 120.37 76.13 44 .33-120.42zm38 37.76c11 6.35 19.88 21.74 19.84 34.37 0 12.45-8.72 17.57-19.5 11.65l-.48-.27c-.37-.22-.74-.44-1.1-.68a1.64 1.64 0 0 1-.22-.14l-.1-.06c-10.34-6.8-18.44-21.4-18.4-33.5 0-12.62 9-17.73 20-11.38m17.84 68.62v2.85l-35.87-20.7v-2.8l35.87 20.7m-26.18-18.48v-2.8l16.5 9.53v2.8l-16.5-9.53m-22.66 4.8l16.35 9.43v1.7l-16.34-9.44v-1.68m7.18 26c0 .7-.52 1-1.15.64l-5.2-3a2.53 2.53 0 0 1-1.14-2v-6c0-.72.5-1 1.15-.64l5.2 3a2.46 2.46 0 0 1 1.13 2v6m3.77-8.4l-11-6.34v-1.77l11 6.34v1.66m14.4 3.54l-25.38-14.65v-1.68l25.37 14.65V183m0-9.53l-25.38-14.65v-1.66l25.38 14.65v1.65m36.52 47.3c0 .62-.44.88-1 .57l-25.8-14.86a2.12 2.12 0 0 1-1-1.7V194.4c0-.63.44-.88 1-.56l25.86 14.93a2.08 2.08 0 0 1 1 1.68v10.37m0-16.53c0 .6-.43.87-1 .55l-25.86-14.96a2.15 2.15 0 0 1-1-1.68v-10.4c0-.62.44-.87 1-.55l25.86 14.93a2.12 2.12 0 0 1 1 1.68v10.38" fill="#ffffff"/><path d="M265.38 163.6l16.35 9.44.01-1.7-16.35-9.44-.01 1.7z" fill="#1ce5ff"/><path d="M283.18 139.5l-.17-.27z" fill="#0e7380"/><path d="M283.34 139.77l-.16-.26zm2.73 3.83l-.2-.25zm.17.22l-.17-.2zm.7.84l-.3-.37zm6.27 6.04l-.4-.3zm7.53 4.02l-.4-.12z" fill="#0e7380"/><path d="M296.47 143.35l.02.04-.15.1.13-.13z" fill="#7d7d7e"/><path d="M303.5 155.34h-.24z" fill="#0e7380"/><path d="M303.42 131.08v.53l.64-.24-.7 4.94a15.19 15.19 0 0 1-.85 3.38 2.71 2.71 0 0 1-1.68.85 9.81 9.81 0 0 1-4.44 0l-.37.05-.35-.46a34.63 34.63 0 0 1-4.29-5 14.69 14.69 0 0 1-1.81-3 30.65 30.65 0 0 1-.82-4.33l-.7-5.95-.1-1.2v.07l.38 3.1.35-1.23a33.21 33.21 0 0 0 1.08 5 5.49 5.49 0 0 0 2.2 2.76 2.9 2.9 0 0 0 1.82.4 3.3 3.3 0 0 1 2 .19.58.58 0 0 1 .17.14l.15.1.18.06a9.32 9.32 0 0 1 2 2.1 6.68 6.68 0 0 0 1.81 1.69c1 .57 1.8.4 2.22-.2a4.23 4.23 0 0 0 .2-.38 14.1 14.1 0 0 0 .73-2.55l.17-.82z" fill="#1e1526"/><path d="M291.2 136.1l5.26 6.84-.18.02.18.4-.13.13-1.5 1.5-.74.73-4.06-8.86.14-.1.93-.58.1-.07z" fill="#898989"/><path d="M303.94 155.4h-.32zm.46.05h-.28zm2.26-.08h-.17zm.84-.15h-.15zm.22-.04h-.2zm.16-.04h-.16z" fill="#0e7380"/><path d="M308.07 155.1l-.2.05zm.6-.2l-.2.07zm.37-.13l-.15.06z" fill="#0e7380"/><path d="M301.2 142.26l.56-.08 1.15 2.08-.17.18-3.9 4-.7-1.53-1.62-3.5-.02-.04-.18-.4.18-.02 4.72-.68z" fill="#898989"/><path d="M309.2 154.7l-.17.06zm.18-.06l-.17.07z" fill="#0e7380"/><path d="M309.55 154.56l-.17.08zm.15-.1l-.15.07zm.3-.1l-.3.14z" fill="#0e7380"/><path d="M310.12 154.28l-.13.07zm.38-.18l-.16.1z" fill="#0e7380"/><path d="M303.05 144.84c.27.28 5.4 6 7.73 9.05l-.3.18-.16.1-.17.1-.13.07-.3.14-.15.07-.17.08-.17.07-.17.06-.15.06-.22.08-.2.07-.23.06h-.16l-.2.05h-.52a3.43 3.43 0 0 1-.34.06h-4.42l-.4-.08h-.13l-.3-.07h-.18l-.25-.06-.2-.06-.27-.08h-.16l-.4-.12z" fill="#001030"/><path d="M304.57 131.2c.8.46.36 3.3-.38 4.46-.33.52-.6.7-.83.66l.7-4.94z" fill="#ff9d6f"/><use fill="url(#a68de48f-23d6-438e-80da-f4fb5c4549b8)" style="mix-blend-mode:screen" xlink:href="#f7aeb88e-1013-4381-a9eb-ca189243eb5c"/><use x="7.45" xlink:href="#f7aeb88e-1013-4381-a9eb-ca189243eb5c" fill="#e6e6e6" opacity=".5"/><path d="M292.13 174.45l-.15.1z" fill="#0e7380"/><path d="M307.73 229.2a2.09 2.09 0 0 1 1 1.68v10.37c0 .63-.44.88-1 .57l-25.86-14.93a2.12 2.12 0 0 1-1-1.7v-10.36c0-.63.44-.87 1-.56z" fill="#c5c5c5"/><path d="M252.83 200.45a2.49 2.49 0 0 1 1.13 2v6c0 .72-.52 1-1.15.64l-5.2-3a2.53 2.53 0 0 1-1.14-2v-6c0-.7.5-1 1.15-.64z" fill="#1ce5ff"/><path d="M257.72 198.27v1.7l-10.98-6.34v-1.7l10.98 6.34zm14.4 3.55v1.68l-25.38-14.66.01-1.67 25.37 14.65z" fill="#ebeeee"/><path d="M279.5 174.18h-.07l-.14-.06z" fill="#0e7380"/><path d="M272.16 192.28l-.01 1.7-25.37-14.65v-1.7l25.38 14.65z" fill="#ebeeee"/><use xlink:href="#53d77303-cc62-46aa-b44a-cb55a9b5fff6" fill="#ebeeee"/><path d="M273.57 170.38l-.4-.32.4.34z" fill="#0e7380"/><path d="M270.92 157.5l2.65 12.88-.4-.32-.18-.16-.25-.2-.2-.18-.23-.2-.2-.17-.25-.23-.23-.22-.32-.3-.42-.4-.2-.2a1.89 1.89 0 0 0-.2-.2l-.43-.45-.33-.35-.2-.23-.2-.23-.2-.2-.2-.24-.2-.2-.2-.23-.23-.27-.3-.38-.18-.2a2.43 2.43 0 0 0-.2-.25l-.17-.2c-.06-.1-.13-.17-.2-.26l-.17-.22-.3-.4-.4-.54-.16-.23-.2-.26-.16-.23-.18-.26-.2-.26-.46-.7-.17-.25-.32-.52-.17-.27-.15-.24-.28-.46-.14-.24-.18-.3-.14-.25-.16-.28-.14-.25v-.07a38.48 38.48 0 0 1 5.71-.19l2.03.06z" fill="#001030"/><path d="M271.64 168.68l-.32-.3c.1.08.17.2.32.3z" fill="#0e7380"/><path d="M275.5 166.2l.74-.74 1.33 2.3-1.23 4.63-.12-.07-.16-.1-.4-.26-.12-.1-.35-.25-.15-.1-.44-.32-.4-.3-.16-.13-.3-.23-.14-.1-2.67-12.9s-.86 0-2.05-.07l2.7-.2-.14.08z" fill="#c5c5c5"/><path d="M295.6 196.08v2.8l-35.87-20.7.01-2.8 35.87 20.7z" fill="#ebeeee"/><path d="M277.72 163.96l.15-.08 1.62 3.5-1.3.74-.3-1.56-.32 1.2-1.33-2.3 1.5-1.5z" fill="#001030"/><path d="M307.78 212.67a2.13 2.13 0 0 1 1 1.68v10.38c0 .6-.43.87-1 .55l-25.9-14.93a2.13 2.13 0 0 1-1-1.68V198.3c0-.63.44-.88 1-.56z" fill="#c5c5c5"/><path d="M269.43 142.45l.7 6h-.05c-.27-.15-.57-.65-.95-1.7-.72-2-1.14-5.34-.35-4.9a2.24 2.24 0 0 1 .66.6z" fill="#ff9d6f"/><path d="M276.54 172.53v.01-.01z" fill="#0e7380"/><path d="M276.2 172.32l.34.22a1.64 1.64 0 0 1-.22-.14z" fill="#0e7380"/><path d="M278.3 173.57l-.17-.1-.48-.27-.45-.27-.12-.07-.43-.27-.1-.06-.22-.15 1.55-5.82.32 1.55 1.2 6-.1-.05-.2-.1-.27-.13-.2-.1z" fill="#001030"/><path d="M279.28 174.08l.14.06-.1-.05z" fill="#0e7380"/><path d="M279.28 174.08l.1.05z" fill="#0e7380"/><path d="M280.2 168.9l3.9-4 .32.4-2.72 9.76-.57-.2-.54-.2-.14-.05-.4-.18-.17-.08-.4-.17h-.1l-1.2-6 1.3-.73z" fill="#c5c5c5"/><path d="M282.57 162.75l-4.72.67-5.25-6.83-.1.06.27-1a34.63 34.63 0 0 0 4.29 5l.35.46h.37a10.1 10.1 0 0 0 4.44 0z" fill="#ff9d6f"/><path d="M269 139.08V138l.4 3.3v-.08s0 .46.1 1.2l-.25-1.88-.26-1.46zm15.62 13.37a13.86 13.86 0 0 1-.73 2.55 8.76 8.76 0 0 1 .73-2.55z" fill="#89543c"/><path d="M276.2 139.6c1.95 2.4 7.65 7.7 7.95 8l.75.94-.1 3c0 .25-.1.55-.18.88a8.76 8.76 0 0 0-.73 2.55c-.07.15-.14.28-.2.4-.42.62-1.22.77-2.22.2a6.68 6.68 0 0 1-1.81-1.69 9.32 9.32 0 0 0-2-2.1c-.14-.08-.18-.06-.18-.06l-.15-.1a.58.58 0 0 0-.17-.14 3.39 3.39 0 0 0-2-.19 2.9 2.9 0 0 1-1.82-.4 5.44 5.44 0 0 1-2.2-2.76 33.21 33.21 0 0 1-1.08-5l.2-.7c.13-.24 2.42-4.88 2.75-7.94a24.5 24.5 0 0 0 3.2 5.12z" fill="#ff9d6f"/><path d="M280.6 133.24c2.83 2.76 6.2 10.33 6.3 11.65a53 53 0 0 1-.94 6.78l-.52.18-.64.24v-.53l.1-3-.75-.94c-.3-.28-6-5.6-7.95-8a24.5 24.5 0 0 1-3.16-5.07c-.33 3.06-2.62 7.7-2.75 7.94l-.2.7-.35 1.23c0-.07-.16-1.36-.38-3.1l-.9-7.43c-.1-.93 1.15-2.47 1.22-2.55 1.5-1 6.42-.9 9.56.9a6.41 6.41 0 0 1 1.35.98z" fill="#1e1526"/><path d="M263.5 158.23l-.16-.28zm-.34-.6v.06zm.04.07v-.06z" fill="#0e7380"/><path fill="url(#94dc195e-30cb-4c68-ac67-63c05ae07001)" d="M278.07 174.8l-2.7.2a38.48 38.48 0 0 0-5.71.19c-3.34-6-5.37-12.72-5.36-18.78 0-12.63 9-17.73 20-11.38s19.88 21.73 19.84 34.36c0 6.06-2.08 10.4-5.45 12.55-2.32-3.08-7.46-8.78-7.73-9.08l-.32-.37.17-.18-1.15-2.08-.56.08-.36-1.72a2.81 2.81 0 0 0 1.68-.85 15.16 15.16 0 0 0 .85-3.39c.24 0 .5-.13.83-.66.74-1.16 1.18-4 .38-4.46a53 53 0 0 0 .94-6.78c-.1-1.32-3.47-8.9-6.3-11.65a6.41 6.41 0 0 0-1.34-1c-3.14-1.82-8.06-1.88-9.56-.9-.07.08-1.32 1.62-1.22 2.55 0 .38.26 2.14.5 4.12v1c0 .5.1 1 .18 1.47s.15 1.17.25 1.88a2.24 2.24 0 0 0-.65-.65c-.8-.45-.37 2.88.35 4.9.38 1.06.68 1.56.95 1.7a37.93 37.93 0 0 0 .87 4.36 15 15 0 0 0 1.81 3l-.27 1z" transform="translate(-6.51 -17.55)"/><path d="M239.75 89.7l-.34 120.37 76.13 44 .34-120.38zm38 37.77c11 6.34 19.88 21.73 19.84 34.36 0 12.45-8.72 17.57-19.5 11.65l-.48-.27c-.37-.22-.74-.44-1.1-.68a1.64 1.64 0 0 1-.22-.14l-.1-.06c-10.34-6.8-18.46-21.4-18.43-33.48 0-12.63 9-17.73 20-11.38m17.84 68.62v2.8l-35.87-20.7v-2.8l35.87 20.7m-26.18-18.48v-2.8l16.5 9.53v2.8l-16.5-9.53m-22.66 4.84l16.35 9.44v1.68l-16.34-9.44v-1.68m7.18 26c0 .72-.52 1-1.15.64l-5.2-3a2.53 2.53 0 0 1-1.14-2v-6c0-.7.5-1 1.15-.64l5.2 3a2.49 2.49 0 0 1 1.13 2v6m3.77-8.4l-11-6.34v-1.68l11 6.34v1.68m14.4 3.54l-25.38-14.74v-1.68l25.37 14.65v1.68m0-9.53l-25.38-14.65v-1.7l25.38 14.66v1.68m36.52 47.3c0 .63-.44.88-1 .57l-25.86-14.93a2.12 2.12 0 0 1-1-1.7v-10.36c0-.63.44-.87 1-.56l25.86 14.93a2.09 2.09 0 0 1 1 1.68v10.37m0-16.53c0 .6-.43.87-1 .55l-25.76-14.93a2.13 2.13 0 0 1-1-1.68V198.3c0-.63.44-.88 1-.56l25.86 14.93a2.13 2.13 0 0 1 1 1.68v10.38" fill="#ffffff"/><path d="M246.76 184.08l16.35 9.44.01-1.7-16.35-9.43-.01 1.68z" fill="#1ce5ff"/><path d="M264.56 160l-.17-.27z" fill="#0e7380"/><path d="M264.72 160.25l-.16-.26zm2.78 3.85c-.06-.1-.13-.17-.2-.26.03.1.1.17.2.26zm.12.2l-.17-.2zm.68.85l-.3-.38zm6.3 6.03l-.4-.3zm7.5 4.02l-.4-.13z" fill="#0e7380"/><path d="M277.85 163.83l.02.05-.15.08.13-.13z" fill="#7d7d7e"/><path d="M284.82 175.82h-.24z" fill="#0e7380"/><path d="M284.8 151.56v.53l.64-.24-.7 4.94a15.16 15.16 0 0 1-.85 3.39 2.81 2.81 0 0 1-1.68.85 10.1 10.1 0 0 1-4.44 0h-.37l-.35-.46a34.63 34.63 0 0 1-4.29-5 15 15 0 0 1-1.81-3 31 31 0 0 1-.82-4.33l-.7-6-.1-1.2v.08l.38 3.1.35-1.23a33.21 33.21 0 0 0 1.08 5 5.44 5.44 0 0 0 2.2 2.76 2.9 2.9 0 0 0 1.82.4 3.39 3.39 0 0 1 2 .19.58.58 0 0 1 .17.14l.15.1.18.06a9.32 9.32 0 0 1 2 2.1 6.68 6.68 0 0 0 1.81 1.69c1 .57 1.8.42 2.22-.2l.2-.4a13.86 13.86 0 0 0 .73-2.55c.07-.17.13-.47.17-.72z" fill="#1e1526"/><path d="M272.6 156.58l5.25 6.84-.18.03.18.38-.13.13-1.5 1.5-.74.74-4.06-8.87.14-.08 1.04-.66z" fill="#898989"/><path d="M285.32 175.88H285zm.46.02h-.28zm2.26-.05h-.17zm.86-.15h-.15zm.2-.04h-.2zm.16-.04h-.16zm.24-.05h-.2zm.55-.17l-.2.07zm.37-.15l-.15.06z" fill="#0e7380"/><path d="M282.57 162.74l.56-.08 1.15 2.1-.17.18-3.9 3.98-2.33-5.03-.02-.05-.18-.38.18-.03 4.72-.68z" fill="#898989"/><path d="M290.6 175.2l-.17.06zm.16-.08l-.17.07z" fill="#0e7380"/><path d="M290.93 175.04l-.17.08z" fill="#0e7380"/><path d="M291.08 174.98l-.15.06z" fill="#0e7380"/><path d="M291.37 174.83l-.3.15z" fill="#0e7380"/><path d="M291.5 174.76l-.13.07zm.33-.18l-.16.1z" fill="#0e7380"/><path d="M284.43 165.32c.27.28 5.4 6 7.73 9.06l-.3.18-.16.1-.17.1-.13.07-.3.15-.15.06-.17.08-.17.07-.17.06-.15.06-.22.08-.2.07-.23.07h-.87l-.34.06h-4.03l-.25-.05h-.17l-.4-.08h-.13l-.3-.07h-.18l-.25-.07-.2-.05-.27-.08-.16-.05-.4-.13z" fill="#001030"/><path d="M285.95 151.67c.8.46.36 3.3-.38 4.46-.33.53-.6.7-.83.66l.7-4.94z" fill="#ff9d6f"/><use y="-67.03" x="-6.51" xlink:href="#f7aeb88e-1013-4381-a9eb-ca189243eb5c" fill="#e6e6e6"/><path d="M279.1 108.3l-.14.1zm15.6 54.8a2.13 2.13 0 0 1 1 1.68v10.37c0 .62-.43.88-1 .57l-25.86-14.93a2.17 2.17 0 0 1-1-1.7v-10.36c0-.63.43-.87 1-.56zm-54.9-28.8a2.51 2.51 0 0 1 1.14 2v6c0 .7-.5 1-1.14.64l-5.2-3a2.5 2.5 0 0 1-1.14-2v-6c0-.72.5-1 1.14-.64zm4.9-2.13v1.7l-10.98-6.34v-1.7l10.98 6.34zm14.4 3.55v1.68l-25.37-14.66v-1.67l25.38 14.65zm7.4-27.65h-.08l-.13-.06zm-7.37 18.1l-.01 1.7-25.38-14.65.01-1.7 25.38 14.65zm13.77-7.95v2.8l-16.5-9.53v-2.8l16.5 9.53zm-12.36-13.95l-.4-.32.4.33z" fill="#fbab20"/><path d="M257.9 91.45l2.65 12.88-.4-.32-.18-.16-.25-.2-.23-.2-.24-.2-.2-.17-.25-.24-.23-.2-.33-.3a1.89 1.89 0 0 1-.2-.2l-.2-.2-.2-.2-.14-.25-.2-.2-.22-.23-.33-.35-.24-.2-.2-.23-.18-.2-.2-.24-.18-.2-.2-.23-.22-.28-.32-.37-.17-.2-.2-.26-.17-.2-.2-.25-.17-.23-.3-.38-.2-.3a2.48 2.48 0 0 1-.19-.26l-.16-.22-.2-.27a1.88 1.88 0 0 1-.16-.23l-.2-.25a2.33 2.33 0 0 0-.17-.26l-.28-.42-.2-.27-.16-.26-.16-.25-.17-.26-.16-.27-.16-.24-.27-.46-.15-.24-.17-.3a2 2 0 0 1-.14-.25l-.17-.28c0-.1-.1-.17-.13-.25v-.07a39.74 39.74 0 0 1 5.71-.2l2 .1z" fill="#fbab20"/><path d="M258.6 102.58l-.33-.3zm3.9-2.48l.74-.74 1.33 2.3-1.24 4.63-.1-.08-.16-.1-.4-.26-.13-.1-.34-.25-.16-.1-.32-.24-.12-.08-.4-.3-.16-.13-.3-.23-.14-.12-2.7-12.84s-.87 0-2-.07l2.68-.2-.13.08z" fill="#fbab20"/><path d="M282.57 129.98l-.01 2.8-35.86-20.7v-2.8l35.86 20.7zm-17.9-32.12l.15-.08 1.63 3.5-1.3.74-.3-1.56-.32 1.2-1.33-2.3 1.5-1.5zm30.07 48.7a2.12 2.12 0 0 1 1 1.68v10.38c0 .6-.44.87-1 .55l-25.9-14.93a2.13 2.13 0 0 1-1-1.68V132.2c0-.62.43-.87 1-.55zM256.4 76.3l.68 5.94h-.05c-.26-.15-.56-.65-.94-1.7-.73-2-1.15-5.35-.36-4.9a2 2 0 0 1 .67.66zm7.1 30.13h-.01.01z" fill="#fbab20"/><path d="M263.17 106.2l.34.23-.22-.14z" fill="#fbab20"/><path d="M265.26 107.45l-.17-.1-.48-.27-.45-.27-.12-.07-.43-.27-.12-.03-.23-.15 1.56-5.82 1.5 7.55h-.1l-.22-.1-.27-.14-.2-.1z" fill="#fbab20"/><path d="M266.25 107.98l.13.06h-.1z" fill="#fbab20"/><path d="M266.25 107.98h.1z" fill="#fbab20"/><path d="M267.16 102.8l3.9-4 .32.4-2.7 9.76-.57-.2-.55-.2h-.13l-.42-.18-.17-.08-.38-.18h-.1l-1.2-6 1.3-.73zm2.38-6.16l-4.72.68-5.26-6.87-.1.07.27-1a34.67 34.67 0 0 0 4.28 5l.36.46h.36a10 10 0 0 0 4.44-.06zm-13.57-23.66v-1.1l.4 3.3v-.07s0 .46.1 1.2l-.24-1.88a14.16 14.16 0 0 1-.27-1.46zm15.63 13.36a15.63 15.63 0 0 1-.73 2.55 8.76 8.76 0 0 1 .73-2.55z" fill="#fbab20"/><path d="M263.17 73.5c2 2.38 7.65 7.7 7.95 8l.76.94-.1 3c0 .25-.1.55-.18.88a8.76 8.76 0 0 0-.73 2.55 2.59 2.59 0 0 1-.21.38c-.42.62-1.22.78-2.2.2a6.54 6.54 0 0 1-1.81-1.69 9 9 0 0 0-2-2.1c-.13-.08-.17-.06-.17-.06l-.15-.1a1.28 1.28 0 0 0-.18-.14 3.3 3.3 0 0 0-2-.19 2.88 2.88 0 0 1-1.81-.4 5.56 5.56 0 0 1-2.21-2.76 32 32 0 0 1-1.07-5l.2-.7c.12-.24 2.42-4.88 2.75-7.94a24.72 24.72 0 0 0 3.18 5.12z" fill="#fbab20"/><path d="M267.56 67.14c2.83 2.75 6.2 10.33 6.3 11.65a51 51 0 0 1-.95 6.78l-.5.18-.65.24v-.53l.1-3-.76-.94c-.3-.28-6-5.6-7.95-8a24.72 24.72 0 0 1-3.13-5.07c-.33 3.06-2.63 7.7-2.75 7.94l-.2.7-.35 1.23c0-.07-.17-1.36-.38-3.1l-.4-3.3-.5-4.12c-.1-.94 1.15-2.47 1.2-2.55 1.5-1 6.43-.9 9.56.9a6.48 6.48 0 0 1 1.35.98zm-17.06 25l-.17-.28z" fill="#fbab20"/><path d="M250.12 91.53v.06zm.05.07v-.06a.25.25 0 0 0 0 .06z" fill="#fbab20"/><path d="M258.5 91.14l-2.68.2a39.74 39.74 0 0 0-5.71.2c-3.34-6-5.38-12.72-5.36-18.8 0-12.62 9-17.73 20-11.38s19.87 21.74 19.84 34.37c0 6.06-2.1 10.4-5.45 12.54-2.33-3.07-7.46-8.77-7.73-9.07-.12-.12-.22-.25-.33-.37l.18-.18-1.16-2.1-.55.08-.37-1.72a2.74 2.74 0 0 0 1.69-.85 15 15 0 0 0 .85-3.38c.23.05.5-.13.83-.66.73-1.16 1.17-4 .37-4.46a51 51 0 0 0 .95-6.78c-.1-1.32-3.47-8.9-6.3-11.65a6.48 6.48 0 0 0-1.35-1c-3.13-1.82-8.05-1.88-9.56-.9-.06.08-1.3 1.6-1.2 2.55 0 .38.26 2.14.5 4.12v1a13.73 13.73 0 0 0 .18 1.47l.24 1.88a2 2 0 0 0-.65-.65c-.8-.46-.37 2.88.36 4.9.38 1.06.68 1.56.94 1.7a36.86 36.86 0 0 0 .88 4.35 14.69 14.69 0 0 0 1.81 3l-.27 1z" fill="#fbab20"/><path d="M226.7 23.6l-.34 120.37 76.13 44 .34-120.38zm38 37.76c11 6.35 19.87 21.74 19.84 34.37 0 12.45-8.72 17.57-19.5 11.65l-.48-.27-1.1-.68-.22-.14-.1-.06c-10.33-6.8-18.45-21.4-18.42-33.5 0-12.62 9-17.73 20-11.38m17.83 68.62v2.8l-35.86-20.7v-2.8l35.86 20.7M256.4 111.5v-2.8l16.5 9.53v2.8l-16.5-9.52m-22.66 4.8l16.34 9.43v1.72L233.74 118v-1.68m7.17 26c0 .7-.5 1-1.14.64l-5.2-3a2.5 2.5 0 0 1-1.14-2v-6c0-.72.5-1 1.14-.64l5.2 3a2.51 2.51 0 0 1 1.14 2v6m3.77-8.4l-11-6.34v-1.7l11 6.34v1.7m14.4 3.52l-25.37-14.7v-1.68l25.38 14.65v1.73m0-9.53l-25.38-14.65v-1.7l25.38 14.65v1.7m36.52 47.3c0 .62-.43.88-1 .57l-25.86-14.93a2.17 2.17 0 0 1-1-1.7V148.8c0-.63.43-.87 1-.56l25.86 14.93a2.13 2.13 0 0 1 1 1.68v10.37m.05-16.53c0 .6-.44.87-1 .55l-25.82-14.98a2.13 2.13 0 0 1-1-1.68V132.2c0-.62.43-.87 1-.55l25.86 14.93a2.12 2.12 0 0 1 1 1.68v10.38" fill="#fbab20"/><path d="M233.73 117.98l16.35 9.44v-1.7l-16.34-9.44-.01 1.7zM251.5 93.9l-.16-.27zm.2.25l-.17-.26zm2.72 3.85l-.2-.25zm.18.2l-.17-.2zm.68.84l-.32-.37zm6.28 6.04l-.4-.3zm7.5 4.02l-.4-.13zm-4.27-11.37l.02.05-.15.08.13-.13zm7 12h-.24z" fill="#fbab20"/><path d="M271.77 85.45v.53l.65-.24-.7 4.94a15 15 0 0 1-.85 3.38 2.74 2.74 0 0 1-1.69.85 10 10 0 0 1-4.44.06h-.36l-.36-.46a34.67 34.67 0 0 1-4.28-5 14.69 14.69 0 0 1-1.81-3 30.13 30.13 0 0 1-.83-4.33 153.562 153.562 0 0 1-.79-7.14v.07l.38 3.1.35-1.23a32 32 0 0 0 1.07 5 5.56 5.56 0 0 0 2.21 2.76 2.88 2.88 0 0 0 1.81.4 3.3 3.3 0 0 1 2 .19 1.28 1.28 0 0 1 .18.14l.15.1.17.06a9 9 0 0 1 2 2.1 6.54 6.54 0 0 0 1.85 1.72c1 .57 1.8.4 2.2-.2a2.59 2.59 0 0 0 .21-.38 15.63 15.63 0 0 0 .73-2.55c.02-.3.08-.6.13-.86zm-12.2 5.03l5.26 6.84-.18.02.17.4-1.62 1.62-.74.73-4.06-8.86.13-.08.94-.6.1-.07zm12.74 19.3h-.33zm.45.03h-.28zm2.25-.05h-.17zm.86-.15h-.15zm.2-.04h-.2zm.17-.04h-.17z" fill="#fbab20"/><path d="M276.42 109.45h-.2zm.6-.15l-.22.07zm.38-.15l-.16.06zm-7.87-12.5l.56-.08 1.16 2.08-.18.18-3.9 4-.7-1.53-1.63-3.5-.02-.05-.17-.4.18-.02 4.7-.68z" fill="#fbab20"/><path d="M277.56 109.1l-.17.06z" fill="#fbab20"/><path d="M277.72 109.02l-.16.07z" fill="#fbab20"/><path d="M277.9 108.94l-.17.08z" fill="#fbab20"/><path d="M278.04 108.88l-.15.06z" fill="#fbab20"/><path d="M278.33 108.73l-.3.15zm.17-.07l-.14.07zm.3-.2l-.15.1z" fill="#fbab20"/><path d="M271.4 99.22c.28.28 5.4 6 7.74 9l-.14.1-.16.1-.15.1-.17.1-.44.22-.15.06-.17.08-.16.07-.17.06-.16.06-.2.08-.22.07-.22.06h-.87l-.34.06H271l-.4-.08h-.13l-.3-.07H270l-.25-.06h-.18l-.28-.1h-.16l-.4-.13zm1.5-13.65c.8.46.36 3.3-.37 4.46-.33.53-.6.7-.83.66l.7-4.94z" fill="#fbab20"/><path d="M293.35 158.62a2.13 2.13 0 0 1 1 1.69v10.36c0 .63-.44.9-1 .57L267.5 156.3a2.12 2.12 0 0 1-1-1.69v-10.37c0-.62.43-.87 1-.56z" fill="#ffffff"/><use xlink:href="#d2ec8b47-133c-4178-a3db-f4a6dd65bd0c" fill="#ffffff"/><path d="M243.34 127.7v1.68l-10.98-6.34v-1.68l10.98 6.34zm14.4 3.53v1.68l-25.38-14.65.01-1.68 25.37 14.65zm7.35-27.63h-.07l-.13-.07zm-7.32 18.1v1.68l-25.38-14.65v-1.7l25.37 14.66z" fill="#ffffff"/><use y="-70.59" x="-14.38" xlink:href="#53d77303-cc62-46aa-b44a-cb55a9b5fff6" fill="#ffffff"/><use y="-50.1" x="-33" xlink:href="#2d5da576-a820-4772-b268-dc135bea61b5" fill="#ffffff"/><path d="M293.4 142.08a2.09 2.09 0 0 1 1 1.68v10.38c0 .62-.43.87-1 .56l-25.9-14.93a2.15 2.15 0 0 1-1-1.69V127.7c0-.63.44-.87 1-.56zm-31.24-40.13v-.01.01z" fill="#ffffff"/><path d="M261.82 101.73l.34.22-.22-.14zm3.08 1.72l.13.07h-.1z" fill="#ffffff"/><path d="M264.9 103.45h.1zm-32.5 10.05l16.34 9.44.01-1.68-16.35-9.44v1.68zm35.33-8.88l-.4-.13z" fill="#ffffff"/><path d="M209.4 108.93l-.35 120.37 76.14 43.96.34-120.38-76.13-43.95z" fill="#e6e6e6" opacity=".5"/><path d="M257.68 196.74l-.15.1zm15.62 54.82a2.12 2.12 0 0 1 1 1.68v10.36c0 .63-.44.9-1 .57l-25.9-14.93a2.15 2.15 0 0 1-1-1.69v-10.37c0-.62.43-.87 1-.55zm-54.92-28.8a2.5 2.5 0 0 1 1.14 2v6c0 .72-.5 1-1.15.65l-5.2-3a2.46 2.46 0 0 1-1.13-2v-6c0-.72.52-1 1.15-.65zm4.9-2.14l-.01 1.68-10.98-6.34v-1.68l11 6.34zm14.42 3.54v1.68l-25.4-14.64v-1.68l25.38 14.65zm7.34-27.64h-.07l-.13-.07zm-7.34 18.1v1.68l-25.38-14.65.01-1.7 25.37 14.66z" fill="#ffffff"/><use y="22.34" x="-34.44" xlink:href="#53d77303-cc62-46aa-b44a-cb55a9b5fff6" fill="#ffffff"/><path d="M239.13 192.72l-.4-.32.4.34zm-2.63-12.88l2.66 12.88-.4-.32-.18-.15-.25-.22-.2-.17-.24-.2-.2-.18-.25-.23-.23-.2-.32-.3-.4-.4-.22-.2-.4-.4-.23-.24-.32-.35-.2-.22-.2-.23-.18-.2-.2-.23-.18-.2-.2-.24-.23-.27-.3-.38-.17-.2-.36-.45-.2-.26-.18-.22-.3-.4-.22-.28-.18-.26-.17-.23-.2-.26-.16-.23-.36-.52-.46-.7-.16-.25-.17-.26-.16-.25-.17-.27-.75-1.25c0-.08-.1-.16-.14-.24l-.16-.3-.14-.24v-.08a38.53 38.53 0 0 1 5.71-.19l2 .06z" fill="#ffffff"/><path d="M237.2 191.03l-.32-.3zm3.83-2.5l.74-.73 1.34 2.3-1.24 4.64-.27-.18-.4-.26-.13-.1-.34-.24-.16-.1-.33-.25-.1-.08-.56-.42-.3-.24-.14-.1-2.66-12.9s-.86 0-2-.06l2.7-.2-.13.1z" fill="#ffffff"/><use y="42.83" x="-53.07" xlink:href="#2d5da576-a820-4772-b268-dc135bea61b5" fill="#ffffff"/><path d="M243.27 186.3l.15-.1 1.62 3.5-1.3.74-.3-1.56-.32 1.2-1.34-2.3 1.5-1.48zm30.06 48.7a2.1 2.1 0 0 1 1 1.69v10.37c0 .62-.44.87-1 .56L247.5 232.7a2.11 2.11 0 0 1-1-1.68v-10.38c0-.63.44-.87 1-.56zm-38.35-70.26l.68 6h-.05c-.26-.15-.56-.65-.95-1.7-.72-2-1.14-5.34-.35-4.88a2.09 2.09 0 0 1 .67.59zm6.77 29.92l.34.22-.22-.14z" fill="#ffffff"/><path d="M243.84 195.9l-.17-.1-.47-.27-.45-.26-.13-.08-.43-.26-.1-.07-.23-.14 1.56-5.84.3 1.56 1.2 6-.1-.05-.22-.1-.27-.14-.2-.1zm1 .55l.13.07-.1-.05z" fill="#ffffff"/><path d="M244.84 196.45l.1.05z" fill="#ffffff"/><path d="M245.75 191.26l3.9-4 .32.4-2.72 9.8-.57-.2-.54-.2-.13-.06-.42-.18-.17-.07-.4-.18h-.1l-1.2-6 1.3-.74zm2.37-6.16l-4.72.68-5.25-6.84-.1.07.28-1a33 33 0 0 0 4.28 5l.36.47.36-.05a9.81 9.81 0 0 0 4.44-.05zm-13.56-23.65v-1.1l.4 3.3-.05-.07s0 .45.12 1.2l-.24-1.87c-.06-.53-.2-1-.24-1.46zm15.62 13.35a15.2 15.2 0 0 1-.74 2.55 8.45 8.45 0 0 1 .74-2.55z" fill="#ffffff"/><path d="M241.76 161.95c2 2.38 7.65 7.7 8 8l.75.94-.1 3-.18.9a8.45 8.45 0 0 0-.74 2.55 1.91 1.91 0 0 1-.2.38c-.42.62-1.22.78-2.2.2a6.54 6.54 0 0 1-1.82-1.69 9.09 9.09 0 0 0-2-2.1c-.13-.07-.17-.06-.18-.06l-.15-.08s0-.07-.17-.14a3.22 3.22 0 0 0-2-.19 2.88 2.88 0 0 1-1.81-.41 5.39 5.39 0 0 1-2.21-2.75 32.12 32.12 0 0 1-1.07-5l.2-.7c.12-.25 2.4-4.9 2.75-8a24.37 24.37 0 0 0 3.14 5.16z" fill="#ffffff"/><path d="M246.14 155.58c2.84 2.76 6.2 10.34 6.3 11.66a50.83 50.83 0 0 1-.94 6.77l-.5.2-.65.23v-.53l.1-3-.75-.94c-.3-.28-6-5.6-8-8a24.37 24.37 0 0 1-3.15-5.08c-.34 3.06-2.63 7.7-2.75 8l-.2.7-.35 1.23c0-.06-.17-1.36-.38-3.1l-.4-3.3-.5-4.1c-.1-.94 1.14-2.48 1.2-2.56 1.5-1 6.42-.9 9.56.9a6.78 6.78 0 0 1 1.41.94zm-17.1 25l-.16-.3z" fill="#ffffff"/><path d="M228.7 179.97v.06zm.05.08V180a.3.3 0 0 1 0 .06z" fill="#ffffff"/><path d="M237.1 179.58l-2.7.2a38.53 38.53 0 0 0-5.71.19c-3.33-6-5.37-12.72-5.35-18.78 0-12.63 9-17.73 20-11.38s19.87 21.74 19.84 34.36c0 6.07-2.1 10.4-5.45 12.55-2.33-3.08-7.47-8.78-7.74-9.08a3.87 3.87 0 0 1-.32-.37l.18-.18-1.16-2.08-.56.08-.36-1.72a2.71 2.71 0 0 0 1.68-.85 14.64 14.64 0 0 0 .85-3.38c.24.05.5-.14.84-.66.73-1.17 1.17-4 .37-4.47a50.83 50.83 0 0 0 .94-6.77c-.1-1.32-3.46-8.9-6.3-11.66a6.78 6.78 0 0 0-1.34-1c-3.14-1.8-8.06-1.88-9.56-.9-.07.08-1.32 1.62-1.2 2.56 0 .38.25 2.14.5 4.1v1.06a14.05 14.05 0 0 0 .18 1.47l.24 1.87a2.09 2.09 0 0 0-.65-.64c-.8-.46-.37 2.88.35 4.88.4 1.06.7 1.56.95 1.7a37.55 37.55 0 0 0 .88 4.36 13.8 13.8 0 0 0 1.81 3l-.28 1z" fill="#ffffff"/><path d="M205.3 112.04l-.34 120.4 76.13 44 .34-120.37zm38 37.77c11 6.34 19.87 21.74 19.84 34.36 0 12.46-8.73 17.58-19.5 11.65l-.47-.27c-.38-.2-.74-.44-1.1-.67l-.22-.14-.1-.06c-10.33-6.8-18.46-21.4-18.42-33.5 0-12.63 9-17.73 20-11.38m17.83 68.64v2.8l-35.87-20.73v-2.8l35.87 20.73m-26.18-18.5v-2.8l16.5 9.53v2.78l-16.5-9.53m-22.66 4.8l16.35 9.44v1.7l-16.35-9.4v-1.7m7.18 26c0 .72-.5 1-1.15.65l-5.2-3a2.46 2.46 0 0 1-1.13-2v-6c0-.72.52-1 1.15-.65l5.2 3a2.5 2.5 0 0 1 1.14 2v6m3.77-8.4l-11-6.34v-1.7l11 6.34v1.7m14.4 3.53l-25.38-14.65v-1.67l25.38 14.65v1.67m0-9.52l-25.38-14.66v-1.68l25.37 14.65v1.7m36.52 47.28c0 .63-.44.9-1 .57l-25.8-15a2.15 2.15 0 0 1-1-1.69v-10.37c0-.62.43-.87 1-.55l25.86 14.93a2.12 2.12 0 0 1 1 1.68v10.36m.05-16.53c0 .62-.44.87-1 .56l-25.8-14.93a2.11 2.11 0 0 1-1-1.68v-10.38c0-.63.44-.87 1-.56L273.35 235a2.1 2.1 0 0 1 1 1.69v10.37" fill="#ffffff"/><path d="M212.32 206.43l16.34 9.43.01-1.68-16.35-9.44v1.7zm17.78-24.1l-.17-.27zm.17.26l-.16-.25zm2.73 3.85l-.2-.26.2.26zm.17.2l-.16-.2zm.7.8l-.3-.38zm6.28 6.07l-.4-.3zm7.52 4.03l-.4-.13zm-4.26-11.37l.02.04-.15.1.13-.13zm6.98 11.98h-.24z" fill="#ffffff"/><path d="M250.36 173.9v.53l.65-.23-.7 4.94a14.64 14.64 0 0 1-.85 3.38 2.71 2.71 0 0 1-1.68.85 9.81 9.81 0 0 1-4.44.05l-.36.05-.36-.46a33.68 33.68 0 0 1-4.28-5 13.8 13.8 0 0 1-1.81-3 30.7 30.7 0 0 1-.83-4.33l-.68-6-.12-1.2.05.07.38 3.1.35-1.23a32.12 32.12 0 0 0 1.07 5 5.39 5.39 0 0 0 2.21 2.75 2.88 2.88 0 0 0 1.81.41 3.22 3.22 0 0 1 2 .19c.13.07.17.13.17.14l.15.08s.05 0 .18.06a9.09 9.09 0 0 1 2 2.1 6.54 6.54 0 0 0 1.82 1.69c1 .58 1.8.42 2.2-.2a1.91 1.91 0 0 0 .2-.38 15.2 15.2 0 0 0 .74-2.55c.01-.27.07-.57.12-.82zm-12.2 5.03l5.25 6.83-.18.03.18.4-.13.13-1.5 1.48-.74.74-4.05-8.86.13-.1.93-.6.1-.06zm12.72 19.3h-.32zm.46.04h-.28zm2.27-.06h-.17zm.9-.15h-.16zm.15-.05h-.2zm.17-.04h-.17zm.18-.06h-.18zm.6-.17l-.22.07zm.38-.13l-.16.06zm-7.86-12.5l.56-.08 1.16 2.08-.18.18-3.9 3.98-.7-1.52-1.62-3.5-.02-.04-.18-.4.18-.03 4.72-.67z" fill="#ffffff"/><path d="M256.15 197.53l-.17.07zm.15-.08l-.16.06zm.2-.05l-.17.08zm.13-.08l-.15.07z" fill="#ffffff"/><path d="M256.92 197.18l-.3.14zm.14-.08l-.14.07zm.32-.17l-.15.08z" fill="#ffffff"/><path d="M249.98 187.66c.27.28 5.4 6 7.74 9.06l-.3.2-.15.08-.17.1-.14.07-.45.2-.17.08-.16.06-.17.07-.16.06-.2.07-.44.14h-.88l-.33.06h-4.43l-.4-.08h-.14l-.3-.06-.18-.05-.25-.07-.2-.05-.27-.08-.16-.05-.4-.13zM251.5 174c.8.46.36 3.3-.37 4.47-.33.52-.6.7-.84.66l.7-4.94z" fill="#ffffff"/><path d="M186.03 59.02v.93l-4.2 2.45v-.93l4.2-2.45z" fill="#9cb5cc"/><path d="M181.84 61.47v.93l-9-5.22v-.93l9 5.22z" fill="#d7e7f7"/><path d="M186.03 59.02l-4.2 2.45-9-5.22 4.2-2.44 9 5.2z" fill="#ffffff"/><path d="M182 59.08l1.42-.83.03-10.74-1.42 1.28-.03 10.3z" fill="#9cb5cc"/><path d="M182.04 48.8l1.42-1.28-4.8-2.77-1.4 1.28 4.8 2.77z" fill="#9cb5cc"/><path d="M177.25 46.02l-.03 10.3 4.8 2.77.03-10.3-4.8-2.77z" fill="#9cb5cc"/><path d="M173.14 36.54l-1 .6a.56.56 0 0 1 .58 0l1-.6a.59.59 0 0 0-.58-.01z" fill="#d7e7f7"/><g clip-path="url(#fbc9cc1a-6e3b-4fb5-bfad-84e93c5e9126)"><path d="M172.68 37.2l1-.6a.59.59 0 0 0-.58-.06l-1 .6a.56.56 0 0 1 .58 0z" fill="#d7e7f7"/></g><use xlink:href="#a90ced49-9fa7-4ab0-b2aa-ad1dacb9cee6" fill="#d7e7f7"/><g clip-path="url(#c4239094-661d-4d7f-b0c5-e17205505661)"><use xlink:href="#a90ced49-9fa7-4ab0-b2aa-ad1dacb9cee6" fill="#d7e7f7"/></g><g><path d="M190.24 59.56l1.04-.6.03-11.26-1.04.6-.03 11.26zm-.78-12.68l1.04-.6-16.78-9.68-1.04.6 16.78 9.68z" fill="#d7e7f7"/><use xlink:href="#fce9f232-5b27-4df7-b2d1-b951c2726ea9" fill="#d7e7f7"/></g><g clip-path="url(#cd260889-465c-482c-893a-bfdbce1c8806)"><use xlink:href="#fce9f232-5b27-4df7-b2d1-b951c2726ea9" fill="#d7e7f7"/></g><path d="M172.68 37.2c-.45-.26-.82 0-.82.47v11.26a1.79 1.79 0 0 0 .81 1.41l16.78 9.7c.45.26.82 0 .82-.47V48.3a1.79 1.79 0 0 0-.81-1.41z" fill="#d7e7f7"/><g><path d="M189.5 48.3a1 1 0 0 0-.41-.72l-16.4-9.46v10.8a1 1 0 0 0 .41.72l16.4 9.46zm68.34 35.25l-2.26.17a30.75 30.75 0 0 0-4.81.16 33.56 33.56 0 0 1-4.51-15.81c0-10.62 7.55-14.9 16.8-9.57s16.73 18.3 16.7 28.95c0 5.1-1.76 8.74-4.6 10.56-1.95-2.6-6.28-7.4-6.5-7.64a3.74 3.74 0 0 1-.27-.31l.14-.15-1-1.75-.47.06-.3-1.44a2.33 2.33 0 0 0 1.41-.72 12.44 12.44 0 0 0 .72-2.84c.2 0 .42-.12.7-.56.62-1 1-3.37.3-3.76a43.49 43.49 0 0 0 .8-5.7c-.1-1.1-2.92-7.48-5.3-9.8a6.07 6.07 0 0 0-1.12-.84c-2.64-1.52-6.78-1.58-8.05-.76-.06.07-1.1 1.36-1 2.15 0 .32.22 1.8.42 3.46v.9a9.84 9.84 0 0 0 .15 1.23c0 .45.12 1 .2 1.6a1.61 1.61 0 0 0-.55-.55c-.66-.38-.3 2.42.3 4.1.33.9.58 1.3.8 1.44a31.74 31.74 0 0 0 .74 3.67 12.37 12.37 0 0 0 1.52 2.51l-.23.8z" fill="#ffffff"/><path d="M268.4 89.84l.14-.15-1-1.75-.47.07-.3-1.45a2.28 2.28 0 0 0 1.41-.72 12.15 12.15 0 0 0 .72-2.84c.2 0 .42-.12.7-.56.62-1 1-3.37.3-3.76a43 43 0 0 0 .8-5.7c-.1-1.1-2.92-7.48-5.3-9.8a5.29 5.29 0 0 0-1.12-.84c-2.64-1.53-6.78-1.6-8.05-.77-.06.07-1.1 1.36-1 2.15 0 .32.22 1.8.42 3.47l.34 2.78v-.06s0 .38.1 1a1.61 1.61 0 0 0-.55-.55c-.66-.38-.3 2.43.3 4.1.33.9.58 1.32.8 1.44a25.94 25.94 0 0 0 .7 3.64 12.11 12.11 0 0 0 1.52 2.51l-.23.8.1-.06-.1.06-.78.5-.12.07 1.85 4.05-1.86-4.03.12-.07-2.26.17a33.4 33.4 0 0 0-4.81.16v.06l.12.2c0 .08.1.16.14.24l.12.2.14.25.12.2.24.38.12.2.15.23c0 .07.1.14.13.22l.28.42.15.23.24.35.3.44a1.33 1.33 0 0 0 .14.19l.15.23a1.33 1.33 0 0 1 .14.19l.16.2.18.24.25.33.14.2.17.2.14.18.17.2.15.18.26.32c.07.07.13.15.2.22l.18.2.15.18.18.2.15.17.18.2a1.54 1.54 0 0 0 .17.19l.28.3.18.2.18.18c.06.06.1.12.17.17l.17.18.18.17c.06.06.1.12.17.17a3.45 3.45 0 0 0 .28.26l.2.18.2.2.17.14.2.18.17.15.2.18.15.13.33.27-2.23-10.84 2.28 10.85.36.3.14.1.34.26.1.07a2.83 2.83 0 0 0 .28.2l.13.1.28.2.1.08.33.22.13.1.1.06.2.13h.08l.36.22.1.07.38.22.4.23.14.07.26.14.17.1.4.2h.18l.47.22.35.15h.1l.46.18c.15.06.3.12.48.17l2.28-8.2zm-5.68-11.18l.12.08-.12-.08zm-1 6.87a9.38 9.38 0 0 0 .75.72l.18.23-.18-.23a9.38 9.38 0 0 1-.77-.72zm.06 4.75l1.12 2zm1.26-1.25l.1-.1zm5-7.23a1.35 1.35 0 0 0 .17-.32 7 7 0 0 1 .62-2.14 12.74 12.74 0 0 1-.62 2.14 1.35 1.35 0 0 1-.17.32 1.08 1.08 0 0 1-.32.32 1.08 1.08 0 0 0 .32-.32zm.62 8.37l-2.28 8.2.33.1h.14l.23.07h.15l.2.06h.16l.24.06h.1l.34.07h.85a1.27 1.27 0 0 0 .28 0h2.6l.28-.05h.74l.2-.06.36-.12h.13l.14-.06h.14a.61.61 0 0 0 .14-.07l.13-.05.36-.18.14-.08.13-.07.13-.08.12-.08c-1.92-2.65-6.25-7.4-6.48-7.68zm63.1 3.07l-.26 94.2 59.58 34.4.26-94.2zm29.74 29.55c8.6 5 15.55 17 15.52 26.9s-6.82 13.75-15.25 9.1l-.37-.2a15.53 15.53 0 0 1-.87-.53l-.17-.1h-.07c-8.1-5.33-14.45-16.75-14.42-26.2 0-9.88 7-13.87 15.63-8.9m14 53.62v2.2l-28.1-16.2v-2.2l28.1 16.2M355 162v-2.2l12.92 7.45v2.2l-12.9-7.46m-17.73 3.75l12.8 7.4v1.32l-12.8-7.4v-1.32m5.6 20.32c0 .56-.4.8-.9.5l-4.07-2.35a1.9 1.9 0 0 1-.89-1.53V178c0-.56.4-.8.9-.5l4.06 2.35a1.94 1.94 0 0 1 .9 1.53v4.7m2.95-6.57l-8.6-5v-1.32l8.6 5v1.32m11.28 2.76l-19.86-11.46v-1.3l19.85 11.46v1.3m0-7.45l-19.86-11.47V162l19.85 11.47v1.32m28.58 37c0 .5-.34.7-.77.45l-20.2-11.64a1.65 1.65 0 0 1-.76-1.32v-8.1c0-.5.34-.68.76-.44l20.26 11.73a1.66 1.66 0 0 1 .76 1.32v8.1m0-12.93c0 .48-.33.68-.76.43l-20.23-11.73a1.71 1.71 0 0 1-.76-1.32v-8.12c0-.5.34-.68.76-.43L385 189.45a1.69 1.69 0 0 1 .76 1.32v8.12" fill="#ffffff"/></g><g><path d="M355.6 145.93l-2.26.16a32 32 0 0 0-4.81.17 33.58 33.58 0 0 1-4.5-15.81c0-10.62 7.55-14.92 16.8-9.57s16.72 18.3 16.7 28.9c0 5.1-1.75 8.74-4.58 10.56-2-2.6-6.28-7.4-6.5-7.64l-.27-.3.15-.15-1-1.76-.47.07-.3-1.45a2.31 2.31 0 0 0 1.42-.71 12.52 12.52 0 0 0 .71-2.85c.2.05.43-.1.7-.55.6-1 1-3.37.3-3.76a43.73 43.73 0 0 0 .79-5.7c-.1-1.1-2.9-7.5-5.3-9.8a5.63 5.63 0 0 0-1.13-.84c-2.64-1.52-6.78-1.58-8-.76-.06.06-1.1 1.36-1 2.15 0 .3.2 1.8.42 3.46v.9c0 .27.1.83.15 1.23s.13 1 .2 1.58a1.89 1.89 0 0 0-.55-.54c-.66-.4-.3 2.42.3 4.1.32.9.57 1.3.8 1.44a31.87 31.87 0 0 0 .73 3.66 12.26 12.26 0 0 0 1.53 2.51l-.23.8z" fill="#ebeeee"/><path d="M366.15 152.22l.15-.15-1-1.75-.47.06-.3-1.44a2.37 2.37 0 0 0 1.42-.72 12.55 12.55 0 0 0 .71-2.84c.2 0 .43-.12.7-.56.6-1 1-3.37.3-3.76a43.73 43.73 0 0 0 .79-5.7c-.1-1.1-2.9-7.48-5.3-9.8a6.51 6.51 0 0 0-1.13-.84c-2.64-1.52-6.78-1.58-8-.76-.06.07-1.1 1.36-1 2.15 0 .32.2 1.8.42 3.46l.33 2.78v-.06a7.59 7.59 0 0 0 .09 1 1.8 1.8 0 0 0-.55-.55c-.66-.38-.3 2.42.3 4.1.32.9.57 1.3.8 1.44a26.38 26.38 0 0 0 .69 3.65 12.53 12.53 0 0 0 1.53 2.51l-.23.8.08-.06-.08.06-.8.5-.1.07 1.85 4-1.85-4 .1-.07-2.26.17a30.84 30.84 0 0 0-4.81.16v.06a2.12 2.12 0 0 1 .11.21c.05.08.1.16.14.24l.12.2.15.26.12.2c.08.13.15.26.23.38l.13.2.14.23.14.2.14.22.13.2.16.23.23.35.15.22c0 .07.1.15.16.22l.13.2c.05.08.1.15.16.22l.14.2a1.77 1.77 0 0 0 .16.22l.18.24.24.33.15.18.17.22.14.18.17.2.15.18.26.3.2.23.17.2.16.18.17.2.16.18.17.2.18.2.27.3.2.2.17.18.52.52.18.17.27.26.2.18.22.2.16.15.2.18.17.15.2.18.15.13.33.27-2.23-10.84 2.24 10.85.12.1.25.2.13.1.34.26.1.07.27.2.13.1.3.2.1.08a3.62 3.62 0 0 1 .32.22l.14.1.1.06.2.12.08.06.36.22.1.06.38.23.4.22.15.08.25.14.17.08.23.12.18.1h.18l.47.22.34.14.12.05.45.18.48.17 2.3-8.2zm-5.66-11.18l.13.07-.13-.07zm-1 6.87c.3.3.54.54.76.72l.17.22-.17-.22c-.26-.18-.5-.43-.76-.72zm.07 4.75l1.12 1.94zm1.26-1.25l.1-.1zm5-7.23a3 3 0 0 0 .17-.32 7.19 7.19 0 0 1 .62-2.15 12.87 12.87 0 0 1-.62 2.15 3 3 0 0 1-.17.32 1.12 1.12 0 0 1-.33.32 1.12 1.12 0 0 0 .31-.32z" fill="#ebeeee"/><path d="M366.42 152.55l-2.3 8.2.34.1h.13l.23.07h.16l.2.06h.15l.25.05h.1l.33.07h4.48l.16-.05h.13l.2-.06.36-.12h.14l.14-.06.13-.05.15-.07.13-.05.24-.12.1-.07.1-.02.12-.08.13-.07.13-.08c-1.9-2.64-6.22-7.44-6.45-7.67zm-130 17.58l-2.26.17a33.31 33.31 0 0 0-4.8.16 33.56 33.56 0 0 1-4.51-15.8c0-10.63 7.55-14.92 16.8-9.58s16.72 18.3 16.7 28.92c0 5.1-1.75 8.74-4.58 10.55-2-2.58-6.28-7.38-6.5-7.63l-.27-.32.15-.15-1-1.75-.47.07-.3-1.45a2.31 2.31 0 0 0 1.42-.72 12.26 12.26 0 0 0 .71-2.84c.2 0 .43-.12.7-.56.6-1 1-3.37.3-3.75a43.73 43.73 0 0 0 .79-5.7c-.1-1.1-2.9-7.5-5.3-9.8a5.36 5.36 0 0 0-1.13-.84c-2.64-1.53-6.78-1.58-8-.77-.06.07-1.1 1.36-1 2.15 0 .32.2 1.8.42 3.47v.88a12.35 12.35 0 0 0 .16 1.24l.2 1.58a1.8 1.8 0 0 0-.55-.55c-.66-.38-.3 2.43.3 4.1.32.9.58 1.32.8 1.45a34.21 34.21 0 0 0 .73 3.66 12.26 12.26 0 0 0 1.53 2.51l-.23.8z" fill="#ebeeee"/><path d="M246.98 176.45l.15-.15-1-1.76-.47.07-.3-1.45a2.31 2.31 0 0 0 1.42-.71 12.52 12.52 0 0 0 .71-2.85c.2 0 .43-.1.7-.55.6-1 1-3.37.3-3.76a43.73 43.73 0 0 0 .79-5.7c-.1-1.1-2.9-7.5-5.3-9.8a5.36 5.36 0 0 0-1.13-.84c-2.64-1.52-6.78-1.58-8-.76-.06.06-1.1 1.36-1 2.15 0 .3.2 1.8.42 3.46l.34 2.78v-.06a7.72 7.72 0 0 0 .09 1 1.77 1.77 0 0 0-.55-.54c-.66-.4-.3 2.42.3 4.1.32.9.58 1.3.8 1.44a27.77 27.77 0 0 0 .69 3.64 12.26 12.26 0 0 0 1.54 2.49l-.23.8-.9.57 1.85 4-1.85-4 .1-.07-2.26.16a33.31 33.31 0 0 0-4.8.16v.07l.12.2.13.24.12.2.15.25.12.2c.08.13.16.25.23.38a2.39 2.39 0 0 1 .13.21l.28.44c0 .07.1.14.14.2a1.64 1.64 0 0 0 .14.22l.15.23c.08.1.16.23.23.35l.15.22.16.2.13.2c.06.07.1.15.16.22l.14.2.16.2.18.25.25.32a1.33 1.33 0 0 0 .14.19l.17.22c.05.05.1.1.14.17l.17.22.15.17a4 4 0 0 0 .26.32l.2.23a1.63 1.63 0 0 1 .17.2l.16.17c.06.07.1.14.17.2a1.29 1.29 0 0 0 .16.17l.17.2.18.2.27.3.2.2.18.18.16.17.18.18.18.17.17.16.27.27.2.17.2.2.16.15.2.17.17.15.2.18.15.13.33.27-2.23-10.83 2.24 10.85.12.1.25.2.13.1.34.26.1.07.27.2.13.1.3.2.1.07.33.22.13.1.1.07.2.12.08.05.36.23.1.06.38.22.4.23.15.08.25.13.17.1.23.12.18.08.1.05h.1l.32.15.15.06.34.15h.12l.45.18.48.17 2.3-8.22zm-5.67-11.18l.12.07-.12-.07s-.01-.02 0-.02zm-1 6.86a11.78 11.78 0 0 0 .76.73l.17.22-.17-.22c-.24-.2-.5-.4-.8-.75zm.07 4.76l1.12 1.94zm1.26-1.25l.1-.1zm5-7.23l.17-.32a7 7 0 0 1 .62-2.15 13.16 13.16 0 0 1-.62 2.15l-.17.32a1 1 0 0 1-.33.31 1 1 0 0 0 .32-.33z" fill="#ebeeee"/><path d="M247.25 176.75l-2.3 8.22.34.1h.13l.23.06.16.05.2.05h.15l.25.06h.1l.34.07h3.72l.28-.05h.92l.2-.06.17-.06.14-.06h.14l.28-.12.13-.06.24-.12.1-.06.15-.08.13-.07.13-.08.12-.07c-1.93-2.68-6.24-7.48-6.48-7.72z" fill="#ebeeee"/></g><path fill="#154902" d="M358.03 143.1l.26-.16a.56.56 0 0 1-.26.52l-.24.17a.58.58 0 0 0 .24-.53z"/><path d="M358.82 149.18c-.16-.1-.3 0-.3.17v1.27a.69.69 0 0 0 .3.52l1.1.63a.18.18 0 0 0 .3-.17v-1.26a.67.67 0 0 0-.31-.53zm-.82-21.53v.3l2.88 1.66v-.3l-2.88-1.66z" fill="#9cb5cc"/><path d="M354.62 126.26c-.32-.2-.6 0-.6.34l-.05 18.9a1.3 1.3 0 0 0 .59 1l9.6 5.54c.33.2.6 0 .6-.34l.05-18.9a1.25 1.25 0 0 0-.58-1z" fill="#ffffff"/><path fill="#f8f9fc" d="M363.96 130a3.07 3.07 0 0 1 1.38 2.41l-.06 21.56c0 .88-.63 1.24-1.4.8l-9-5.22a3.08 3.08 0 0 1-1.4-2.41l.06-21.56c0-.88.63-1.24 1.4-.8zm-9.7 15.2a1.23 1.23 0 0 0 .56 1l9.1 5.25c.3.18.56 0 .56-.32l.06-17.92a1.2 1.2 0 0 0-.56-1l-9.1-5.26c-.3-.18-.56 0-.56.32l-.05 17.93zm4.24 5.42a.69.69 0 0 0 .3.52l1.1.63c.17.1.3 0 .3-.17v-1.26a.67.67 0 0 0-.31-.53l-1.1-.63c-.16-.1-.3 0-.3.17v1.27zm2.36-21.3l-2.87-1.66v.3l2.88 1.66v-.3z"/><path d="M355.26 123.92a.78.78 0 0 1 .57-.07 1.24 1.24 0 0 1 .42.17l9 5.2a2.63 2.63 0 0 1 .67.59 3.05 3.05 0 0 1 .72 1.82l-.06 21.56a1 1 0 0 1-.41.89l-1.33.78a1 1 0 0 0 .4-.89l.06-21.56a3 3 0 0 0-.71-1.82 2.63 2.63 0 0 0-.67-.59l-9-5.22a1.76 1.76 0 0 0-.42-.17.82.82 0 0 0-.57.08z" fill="#d7e7f7"/><path d="M354.58 134.4a.16.16 0 0 1 .25-.15l8.9 5.14a.54.54 0 0 1 .25.42v8.24c0 .16-.1.22-.25.15l-8.9-5.14a.57.57 0 0 1-.25-.42zm0-4.9a.15.15 0 0 1 .25-.14l4.45 2.56 4.44 2.57a.54.54 0 0 1 .25.42v2.83c0 .16-.1.22-.25.14l-4.44-2.56-4.45-2.57a.57.57 0 0 1-.25-.42zm.6 14.68a.12.12 0 0 1 .19-.11l7.03 4a.42.42 0 0 1 .2.33v.37c0 .12-.1.17-.2.1l-7.03-4a.46.46 0 0 1-.19-.34z" fill="#ffffff"/><g><path d="M359.26 138.04c0 .56-.15.9-.4 1l-.7.4s-1-.38-1.27-.87a7.55 7.55 0 0 1-.4-2.54l.7-.4a.84.84 0 0 1 .86.1 2.62 2.62 0 0 1 1.22 2.3zm-1.7-.93a1.41 1.41 0 0 0 .47 1.22c.3.17-.4-1.85-.45-1.5a2.64 2.64 0 0 0-.02.29zm2.42.6l.7-.4.57.33-2.6 3.9-.7.4-.57-.33zm2.55 4.4c0 .57-.16.9-.4 1l-.7.4a2.67 2.67 0 0 1-1.39-1.15 7 7 0 0 1-.31-2.24l.7-.4a.89.89 0 0 1 .87.1 2.62 2.62 0 0 1 1.18 2.3zm-1.7-.92a1.36 1.36 0 0 0 .46 1.21c.3.17.14.1.14-.5s.06-.7-.27-.9-.33-.34-.33.18z" fill="#ebeeee"/><path d="M358.57 138.45c0 1.1-.6 1.32-1.25.95a2.74 2.74 0 0 1-1.24-2.3c0-.93.5-1.36 1.27-.9a2.62 2.62 0 0 1 1.22 2.26zm-1.7-.93a1.41 1.41 0 0 0 .47 1.22c.3.17.44-.1.44-.7a1.34 1.34 0 0 0-.45-1.2c-.3-.2-.46.14-.46.66zm.5 4.1l2.6-3.9.57.33-2.6 3.9zm4.47.9c0 1.1-.6 1.33-1.26.95a2.76 2.76 0 0 1-1.23-2.3c0-.93.5-1.35 1.27-.9a2.62 2.62 0 0 1 1.22 2.25zm-1.7-.92a1.41 1.41 0 0 0 .46 1.21c.3.17.45-.1.45-.68a1.35 1.35 0 0 0-.45-1.21c-.32-.2-.46.15-.46.67zM180.36 46.7c0 .77-.2 1.22-.54 1.4l-1 .55s-1.33-.52-1.68-1.22a10.13 10.13 0 0 1-.54-3.45l.93-.54a1.17 1.17 0 0 1 1.17.14 3.57 3.57 0 0 1 1.66 3.11zm-2.3-1.26a1.91 1.91 0 0 0 .63 1.65c.4.24-.54-2.5-.6-2a2.87 2.87 0 0 0-.02.35zm3.28.8l.94-.54.77.45-3.55 5.3-.94.54-.77-.44zm3.47 6c0 .76-.22 1.2-.55 1.4l-.94.55a3.62 3.62 0 0 1-1.88-1.57 9.49 9.49 0 0 1-.43-3l1-.56a1.17 1.17 0 0 1 1.18.14 3.55 3.55 0 0 1 1.62 3.03zm-2.3-1.27a1.87 1.87 0 0 0 .63 1.65c.4.23.2.13.2-.67s.08-1-.36-1.22-.46-.47-.46.24z" fill="#ebeeee"/><path d="M179.42 47.25c0 1.5-.8 1.8-1.7 1.3a3.7 3.7 0 0 1-1.68-3.09c0-1.27.67-1.84 1.72-1.23a3.52 3.52 0 0 1 1.66 3.03zM177.1 46a1.91 1.91 0 0 0 .63 1.64c.4.24.6-.13.6-.93a1.84 1.84 0 0 0-.61-1.63c-.43-.25-.63.2-.63.92zm.68 5.56l3.54-5.32.77.45-3.54 5.3zm6.07 1.2c0 1.5-.82 1.8-1.7 1.28a3.71 3.71 0 0 1-1.66-3.11c0-1.27.68-1.85 1.73-1.24a3.56 3.56 0 0 1 1.64 3.07zm-2.3-1.25a1.88 1.88 0 0 0 .63 1.64c.4.23.6-.13.6-.93a1.81 1.81 0 0 0-.61-1.63c-.44-.25-.63.2-.63.92z" fill="#ebeeee"/></g><path fill="#c3dbff" d="M267.74 77.15a2.53 2.53 0 0 1-.37.18l-.3.08h-.9l-.4-.06-.43-.12-.46-.18-.48-.25-.48-.3c-.15-.1-.3-.2-.44-.33a4.59 4.59 0 0 1-.41-.36h-.05l-.4-.4-.4-.46-.4-.5-.32-.46-.35-.57-.07-.13-.25-.45a9.57 9.57 0 0 1-.26-.56l-.22-.56-.2-.58-.15-.55v-.06c0-.2-.08-.38-.1-.57 0-.2-.05-.38-.07-.56a5.4 5.4 0 0 1 0-.56 4.58 4.58 0 0 1 0-.53c0-.15 0-.3.07-.45a3.84 3.84 0 0 1 .11-.4.24.24 0 0 1 0-.08 3.42 3.42 0 0 1 .13-.34 3.9 3.9 0 0 1 .19-.35 2.25 2.25 0 0 1 .34-.41l.1-.1a3 3 0 0 1 .4-.31l-4.6 2.67a3.15 3.15 0 0 0-.41.31l-.1.1a2.58 2.58 0 0 0-.33.41 1.74 1.74 0 0 0-.18.33 1.6 1.6 0 0 0-.1.23.84.84 0 0 1 0 .12.64.64 0 0 0 0 .07.14.14 0 0 0 0 .06 1.82 1.82 0 0 0-.07.25.29.29 0 0 1 0 .09v.14a2.23 2.23 0 0 0 0 .23v1.26a.19.19 0 0 1 0 .08v.48a2.23 2.23 0 0 1 0 .23 2.38 2.38 0 0 1 0 .26v.25l.07.25.06.2v.07a2.41 2.41 0 0 0 .08.25c0 .08.05.16.08.25l.06.15.1.24c0 .05.05.1.08.16v.07l.1.23.12.25v.05l.1.2.14.25.07.13.13.2.2.3.3.4.2.28.18.22.38.42.4.4h.05l.1.1.22.18.1.08.07.06.2.16.16.1.2.14.2.12h.05l.15.08.2.1.13.06.2.08.2.07h.07l.13.05h1.6l.27-.07.38-.17zm6.24-.7v-.47a1.49 1.49 0 0 1 0-.21v-.26c0-.06 0-.3-.05-.47s-.05-.32-.07-.5c0-.15-.05-.3-.08-.45l-.1-.5c-.04-.17 0-.12 0-.18v-.1a1.42 1.42 0 0 0-.05-.22c0-.17-.08-.35-.13-.52l-.1-.37v-.07a.64.64 0 0 1 0-.07l-.16-.5-.17-.5v-.16a2.83 2.83 0 0 0-.11-.31l-.2-.47-.14-.34v-.12l-.2-.47-.25-.5a.25.25 0 0 0 0-.07.31.31 0 0 0-.05-.1l-.2-.4-.27-.5-.15-.26a.41.41 0 0 0-.05-.09c-.08-.15-.18-.28-.26-.42l-.4-.63-.06-.1-.6-.87-.43-.56-.36-.45-.37-.44-.38-.4-.06-.07-.07-.07-.26-.28-.4-.4-.13-.12-.3-.3-.43-.37-.3-.24-.56-.44-.3-.22h-.1l-.4-.27-.4-.25h-.1l-.3-.18-.4-.2-.26-.12h-.13l-.4-.16-.4-.15h-.12l-.27-.08-.4-.1h-.4l-.43-.07h-.74a3.39 3.39 0 0 0-.45 0h-.55l-.56.08h-.1a4.94 4.94 0 0 0-.55.15 4.53 4.53 0 0 0-.78-.09l-4.6 2.67a4.53 4.53 0 0 1 .74-.34 5.72 5.72 0 0 1 .59-.17h.12a4.17 4.17 0 0 1 .72-.09h.15a4.48 4.48 0 0 1 .73 0h.1a7.4 7.4 0 0 1 .8.13h.1c.28.06.56.14.85.23h.06l.92.37h.06l.95.5 1 .6h.06l.88.66.1.08.82.72.97.97.82.93.8 1 .68 1 .4.63.32.52.14.25.5.9a.93.93 0 0 0 .05.1l.52 1.12.45 1.12v.07l.38 1.15v.07q.16.56.3 1.1v.1l.23 1.14.14 1.14v1.44a5.78 5.78 0 0 1 0 .58c0 .17 0 .35-.07.52a.28.28 0 0 0 0 .09c0 .18-.07.37-.12.55l-.08.3c-.03.1 0 .2-.08.3s-.16.5-.25.75c0 .1-.08.2-.1.28l-.15.37-.13.3-.16.36-.1.17-.6 1.16a.64.64 0 0 0-.08.14l-.7 1.14-.13.2-.34.53a1.88 1.88 0 0 0-.16.23l-.4.6a.64.64 0 0 1-.1.13l-.5.7-.14.18-.4.5-.17.22-.38.48-.14.18-.58.72-.43.5-.15.18-.35.4a2.09 2.09 0 0 0-.14.17l-.4.45-.43.46-.12.13-.27.3-.12.13-.25.26-.1.1-.28.3-.23.23-.07.08-.1.1-.1.08 4.6-2.67.18-.18.07-.08.23-.23.28-.3.1-.1.25-.26.12-.13.27-.3.12-.13.42-.46h.05l.4-.45.15-.17.34-.4.16-.2.42-.5.08-.1.5-.62.15-.18.38-.48.17-.22.4-.5.14-.18.5-.7a1.13 1.13 0 0 1 .1-.13l.56-.84.34-.52a1.3 1.3 0 0 0 .1-.15v-.06l.68-1.14.08-.14.6-1.16v-.1a.36.36 0 0 0 0-.09l.17-.36c0-.1.08-.2.13-.3s.1-.25.14-.37l.1-.23a7.32 7.32 0 0 0 .25-.75 2.68 2.68 0 0 1 .07-.27c0-.1.06-.2.08-.3 0-.16.07-.3.1-.46v-.57a2.28 2.28 0 0 0 0-.26v-.55z"/><path fill="#dfeafc" d="M259.75 62.84c5.34 3.08 9.66 10.54 9.64 16.68s-9.24 15.18-9.73 15.65c-.48-1-9.6-20.68-9.6-26.8s4.36-8.6 9.7-5.52zm0 16.65c2.67 1.54 4.83.3 4.84-2.76a10.59 10.59 0 0 0-4.81-8.34c-2.67-1.54-4.83-.3-4.84 2.76a10.59 10.59 0 0 0 4.77 8.3"/><g><path d="M272.35 250.62a2.13 2.13 0 0 1 1 1.69v10.36c0 .63-.44.9-1 .57L246.5 248.3a2.12 2.12 0 0 1-1-1.69v-10.37c0-.62.43-.87 1-.56z" fill="#c5c5c5"/><use y="92" x="-21" xlink:href="#d2ec8b47-133c-4178-a3db-f4a6dd65bd0c" fill="#c5c5c5"/><path d="M222.34 219.7v1.68l-10.98-6.34v-1.68l10.98 6.34zm14.4 3.53v1.68l-25.38-14.65.01-1.68 25.37 14.65zm7.35-27.63h-.07l-.13-.07zm-7.32 18.1v1.68l-25.38-14.65v-1.7l25.37 14.66z" fill="#c5c5c5"/><use y="21.41" x="-35.38" xlink:href="#53d77303-cc62-46aa-b44a-cb55a9b5fff6" fill="#c5c5c5"/><use y="41.9" x="-54" xlink:href="#2d5da576-a820-4772-b268-dc135bea61b5" fill="#c5c5c5"/><path d="M272.4 234.08a2.09 2.09 0 0 1 1 1.68v10.38c0 .62-.43.87-1 .56l-25.9-14.93a2.15 2.15 0 0 1-1-1.69V219.7c0-.63.44-.87 1-.56zm-31.24-40.13v-.01.01z" fill="#c5c5c5"/><path d="M240.82 193.73l.34.22-.22-.14zm3.08 1.72l.13.07-.1-.05z" fill="#c5c5c5"/><path d="M243.9 195.45l.1.05zm-32.5 10.05l16.34 9.44.01-1.68-16.35-9.44v1.68zm35.33-8.88l-.4-.13z" fill="#c5c5c5"/></g><path opacity=".44" fill="url(#0b2a62c0-3e21-46be-be89-2c15301f672f)" d="M119.07 305.78L45.4 263.26l-11 6.4c4.58 2.7 4.58 7.06 0 9.74s-12.12 2.7-16.8.06l-11 6.4 73.66 42.53 11-6.4c-4.7-2.7-4.7-7.1 0-9.8s12.22-2.7 16.9 0l11-6.4" transform="translate(-6.51 -17.55)"/><path d="M112.56 284.9L38.9 242.4l-11 6.4c4.58 2.7 4.58 7.06 0 9.74s-12.12 2.7-16.8.06L.1 265l73.66 42.53 11-6.4c-4.7-2.7-4.7-7.1 0-9.8s12.22-2.7 16.9 0l11-6.4" fill="#fbab20"/><g><use xlink:href="#df9cf7ee-0d8f-43bc-9293-fec54afa22ac" fill="#ffffff"/><path d="M47.9 255.12l-.96-.55-3.5 2.03.96.55 3.5-2.03" fill="#ffffff"/><use y="5.22" x="-8.97" xlink:href="#df9cf7ee-0d8f-43bc-9293-fec54afa22ac" fill="#ffffff"/><use y="7.82" x="-13.45" xlink:href="#df9cf7ee-0d8f-43bc-9293-fec54afa22ac" fill="#ffffff"/><use xlink:href="#b3b52ec8-6758-4d36-8572-1ec7fd9c8f3a" fill="#ffffff"/><use y="2.6" x="-4.47" xlink:href="#b3b52ec8-6758-4d36-8572-1ec7fd9c8f3a" fill="#ffffff"/><use xlink:href="#2e4cbc06-4ad3-4eb9-9332-9e90bcf19006" fill="#ffffff"/><use y="7.81" x="-13.44" xlink:href="#b3b52ec8-6758-4d36-8572-1ec7fd9c8f3a" fill="#ffffff"/><path d="M95.98 277.68l-.95-.55-3.5 2.04.94.55 3.5-2.04" fill="#ffffff"/><use y="17.37" x="57.03" xlink:href="#b3b52ec8-6758-4d36-8572-1ec7fd9c8f3a" fill="#ffffff"/><path d="M87.02 282.9l-.95-.55-3.5 2.04.96.54 3.5-2.03m-4.5 2.6l-.95-.55-3.5 2.04.95.54 3.5-2.03" fill="#ffffff"/><use y="19.97" x="52.56" xlink:href="#2e4cbc06-4ad3-4eb9-9332-9e90bcf19006" fill="#ffffff"/><path d="M73.58 290.7l-.95-.54-3.5 2.03.95.55 3.5-2.04m-4.48 2.6l-.95-.55-3.5 2.04.95.54 3.5-2.03" fill="#ffffff"/><use y="27.77" x="39.12" xlink:href="#2e4cbc06-4ad3-4eb9-9332-9e90bcf19006" fill="#ffffff"/><path d="M82.6 275.32l-4.55-2.63-47.28 1.86 4.6 2.65 47.23-1.88m-16.67 3.82c-4.5-2.6-10.83-2.05-15.36.6-3.6 2.1-3.5 4.56-.2 6.47 4.57 2.64 10.88 2.07 15.4-.56 3.6-2.1 3.48-4.58.15-6.5m-12.3 5.56c-1.3-.75-1.27-1.82.74-3 2.23-1.3 6-2.4 8.36-1 1.26.73 1.24 1.8-.78 3-2.23 1.3-6 2.38-8.32 1.07M50.7 269.3c-1.26-.73-1.27-1.77.78-3 2.23-1.3 6-2.38 8.28-1 1.27.73 1.28 1.77-.77 3-2.23 1.3-6 2.4-8.3 1m12.34-5.54c-4.53-2.6-10.9-2-15.43.6-3.6 2.1-3.48 4.57-.18 6.47 4.56 2.64 10.9 2 15.43-.58 3.6-2.1 3.47-4.58.18-6.48" fill="#ffffff"/></g><path d="M231.7 169.97l9.5 5.48V164.5l-9.5-5.48v10.96z" fill="#ed9a21"/><path d="M231.7 159l9.5 5.48 9.48-5.48-9.48-5.47-9.5 5.47zm18.98 10.97l-9.48 5.48V164.5l9.48-5.48v10.96z" fill="#fbab20"/><g><path d="M245.95 173.1l-.36-.2v-10.95l.36.2v10.94zm-9.5 0l.36-.2v-10.95l-.36.2v10.94z" fill="#ffffff"/><path d="M246.3 156.05l-5.1 2.75-5.1-2.75v.42l4.56 2.62-4.56 2.45v11.36l.36.2v-10.94l4.75-2.75 4.75 2.75v10.94l.36-.2v-11.36l-4.55-2.45 4.55-2.62v-.42z" fill="#ffffff"/><path d="M236.1 161.54l.36.2 9.86-5.7-.36-.2-9.86 5.7z" fill="#ffffff"/><path d="M246.3 161.54l-.36.2-9.86-5.7.36-.2 9.86 5.7z" fill="#ffffff"/></g><path d="M339.7 410.06l14.5 8.38v-16.76l-14.5-8.38v16.76z" fill="#ed9a21"/><path d="M339.7 393.3l14.5 8.38 14.5-8.38-14.5-8.38-14.5 8.38zm29.03 16.76l-14.5 8.38v-16.76l14.5-8.38v16.76z" fill="#fbab20"/><g><path d="M361.5 414.85l-.55-.3V397.8l.55.32v16.74zm-14.54 0l.55-.3V397.8l-.55.32v16.74z" fill="#ffffff"/><path d="M362.05 388.77l-7.82 4.2-7.82-4.2v.63l6.97 4.02-6.97 3.74v17.38l.55.3V398.1l7.27-4.2 7.27 4.2v16.74l.55-.3v-17.38l-6.97-3.74 6.97-4.02v-.63z" fill="#ffffff"/><path d="M346.4 397.16l.55.32 15.1-8.7-.55-.32-15.1 8.7z" fill="#ffffff"/><path d="M362.05 397.16l-.55.32-15.1-8.7.55-.32 15.1 8.7z" fill="#ffffff"/></g></g></svg>